<?xml version="1.0" encoding="utf-8"?>
<!-- Generator: Adobe Illustrator 19.1.1, SVG Export Plug-In . SVG Version: 6.00 Build 0)  -->
<svg version="1.1" id="_x31_0" xmlns="http://www.w3.org/2000/svg" xmlns:xlink="http://www.w3.org/1999/xlink" x="0px" y="0px"
	 viewBox="0 0 512 512" style="enable-background:new 0 0 512 512;" xml:space="preserve">
<style type="text/css">
	.st0{fill:#374149;}
</style>
<g>
	<path class="st0" d="M419.584,161.16c0-42.582-17.317-83.078-48.762-114.023C339.92,16.738,299.022,0,255.647,0
		C165.639,0,92.412,72.297,92.412,161.16v116.246c0,31.203-40.082,59.41-63.766,71.152c-10.836,5.391-18.282,15.726-19.942,27.676
		c-1.656,11.946,2.691,23.918,11.633,32.031c9,8.164,30.789,25.215,61.047,31.031c-0.942,6.582-0.082,13.414,2.675,19.742
		c5.344,12.278,16.962,20.629,30.313,21.789c3.551,0.305,7.222,0.457,10.973,0.457c4.645,0,10.133-0.238,16.199-0.937
		c0.687,5.105,2.465,10.082,5.32,14.613C153.584,505.629,165.12,512,177.721,512h1.629l1.808-0.164
		c24.707-2.332,52.864-12.266,74.84-32.535c21.981,20.27,50.133,30.203,74.836,32.535l1.625,0.152l1.817,0.012
		c12.602,0,24.137-6.371,30.855-17.039c2.856-4.531,4.633-9.508,5.321-14.613c6.066,0.699,11.558,0.937,16.203,0.937
		c3.746,0,7.422-0.152,10.914-0.449c13.406-1.168,25.023-9.519,30.375-21.797c2.754-6.328,3.61-13.156,2.672-19.742
		c30.254-5.816,52.042-22.863,61.039-31.023c8.941-8.11,13.297-20.086,11.64-32.031c-1.656-11.954-9.102-22.293-19.922-27.668
		c-23.707-11.758-63.789-39.965-63.789-71.168V161.16z M404.545,406.473c-2.821-0.207-5.699-0.57-8.629-1.137
		c-0.309-0.062-0.618-0.133-0.926-0.195c-2.981-0.618-6.008-1.426-9.086-2.469c-0.214-0.074-0.426-0.153-0.637-0.226
		c-3.191-1.114-6.43-2.462-9.707-4.094c-0.094-0.042-0.187-0.094-0.281-0.14c-1.684-0.844-3.371-1.75-5.074-2.738
		c-0.332-0.195-0.68-0.282-1.015-0.282c-1.215,0-2.278,1.129-1.825,2.442c5.11,14.797,22.516,37.851,28.594,45.649
		c0.938,1.199,0.18,2.937-1.332,3.07c-1.957,0.165-4.675,0.325-7.972,0.325c-16.657,0-48.106-4.016-70.958-31.082
		c-0.414-0.488-0.949-0.703-1.469-0.703c-1.14,0-2.214,1.024-1.828,2.379c5.367,18.851,19.09,48.106,23.547,57.398
		c0.613,1.278-0.305,2.722-1.672,2.722c-0.062,0-0.125-0.004-0.187-0.007c-12.969-1.227-60.676-9.035-76.301-57.997
		c-0.274-0.863-1.031-1.293-1.79-1.293c-0.758,0-1.511,0.43-1.789,1.293c-15.625,48.962-63.332,56.77-76.297,57.997
		c-0.066,0.003-0.129,0.007-0.191,0.007c-1.367,0-2.286-1.445-1.672-2.722c4.457-9.293,18.179-38.547,23.55-57.394
		c0.387-1.359-0.687-2.383-1.828-2.383c-0.519,0-1.054,0.215-1.469,0.707c-22.855,27.062-54.305,31.078-70.957,31.078
		c-3.297,0-6.016-0.16-7.973-0.325c-1.515-0.133-2.27-1.87-1.332-3.07c6.078-7.798,23.481-30.852,28.59-45.649
		c0.454-1.313-0.609-2.442-1.824-2.442c-0.336,0-0.683,0.086-1.015,0.282c-1.696,0.988-3.383,1.894-5.063,2.734
		c-0.098,0.05-0.199,0.102-0.297,0.152c-3.262,1.618-6.48,2.961-9.652,4.07c-0.238,0.082-0.473,0.172-0.711,0.25
		c-3.054,1.035-6.062,1.836-9.019,2.449c-0.328,0.07-0.657,0.145-0.985,0.207c-2.922,0.566-5.793,0.934-8.609,1.137
		c-0.36,0.023-0.715,0.054-1.074,0.074c-1.406,0.082-2.805,0.133-4.18,0.133c-29.633,0-52-18.051-58.606-24.039
		c-0.992-0.906-0.773-2.477,0.43-3.074c13.926-6.91,82.997-44.094,82.997-102.16V161.16c0-69.59,57.894-126.55,128.625-126.55
		c35.367,0,67.586,14.258,90.898,37.195c23.316,22.946,38.43,54.558,38.43,89.355v116.246c0,58.066,69.07,95.25,83,102.16
		c1.203,0.598,1.422,2.168,0.426,3.074c-6.606,5.988-28.965,24.039-58.606,24.039c-1.374,0-2.773-0.051-4.179-0.133
		C405.26,406.527,404.904,406.5,404.545,406.473z"/>
	<path class="st0" d="M222.037,192.718c-0.992-12.015-9.285-21.133-18.527-20.374c-9.242,0.766-15.934,11.125-14.942,23.14
		c0.992,12.016,9.29,21.133,18.531,20.367C216.342,215.094,223.029,204.734,222.037,192.718z"/>
	<path class="st0" d="M308.491,172.344c-9.242-0.758-17.535,8.359-18.528,20.374c-0.992,12.016,5.695,22.375,14.934,23.133
		c9.242,0.766,17.539-8.351,18.531-20.367C324.42,183.469,317.732,173.11,308.491,172.344z"/>
	<path class="st0" d="M281.514,273.554h-51.031c-6.191,0-11.207,5.016-11.207,11.207v15.848c0,6.195,5.016,11.21,11.207,11.21
		h51.031c6.191,0,11.21-5.015,11.21-11.21v-15.848C292.724,278.57,287.705,273.554,281.514,273.554z"/>
</g>
</svg>
