<!--?xml version="1.0" encoding="utf-8"?-->
<!-- Generator: Adobe Illustrator 19.1.1, SVG Export Plug-In . SVG Version: 6.00 Build 0)  -->
<svg version="1.1" id="_x31_0" xmlns="http://www.w3.org/2000/svg" xmlns:xlink="http://www.w3.org/1999/xlink" x="0px" y="0px" viewBox="0 0 512 512" style="width: 512px; height: 512px; opacity: 1;" xml:space="preserve">
<style type="text/css">
	.st0{fill:#374149;}
</style>
<g>
	<path class="st0" d="M91.226,349.73l27.234,1.821c4.094,0.168,8.191,0.246,12.29,0.378c2,0.066,3.996,0.129,5.992,0.188
		c8.054,0.23,16.102,0.398,24.152,0.5c2.305,0.027,4.598,0.05,6.894,0.07c3.887,0.031,7.782,0.121,11.672,0.121
		c20.188,0,40.383-0.394,60.539-1.258l27.23-1.79c1.262-0.062,2.219-1.156,2.086-2.378c-0.63-5.958-2.348-14.394-3.477-20.122
		c-0.195-1.125-1.422-2.644-3.375-4.469c-14.527-13.57-54.34-37.398-57.156-38.027h-0.958h-0.23v-7.183l0.371-16.566
		c0.133-0.11,0.274-0.211,0.414-0.313c0.16-0.117,0.32-0.238,0.488-0.375c5.008-4.054,6.402-12.703,6.801-15.55
		c0.031-0.16,0.07-0.289,0.102-0.454c0.684,0.227,1.367,0.325,1.954,0.325c7.113,0,8.238-14.492,8.667-18.336
		c0.399-3.84-1.289-6.555-2.511-7.578c0.297-0.633,0.625-1.523,0.957-2.617c0.828-2.711,1.59-6.622,1.887-10.758
		c0.43-6.054-0.098-12.64-2.977-16.71c-0.992-1.43-2.551-3.215-4.34-5c-4.137-4.106-9.562-8.274-12.742-8.274
		c-5.16-9.27-11.75-15.293-23.93-16.09c-0.73-0.062-1.488-0.062-2.285-0.098h-0.164c-10.13,0-27.34,12.015-34.227,24.461
		c-6.882,12.414-8.934,16.914-5.461,32.469c0.336,1.094,0.664,1.984,0.996,2.617c-1.226,1.023-2.914,3.738-2.519,7.578
		c0.398,3.844,1.523,18.336,8.641,18.336c0.629,0,1.293-0.098,2.019-0.328c0.164,1.258,0.793,4.734,2.086,8.273
		c1.293,3.574,3.21,7.18,6.023,8.703v8.07l-0.226,15.129l-0.004,0.27h-0.004h-0.957c-2.782,0.629-42.559,24.458-57.122,38.027
		c-1.988,1.825-3.179,3.344-3.41,4.469c-1.126,5.727-2.844,14.13-3.477,20.086C89.039,348.574,90.004,349.664,91.226,349.73z" style="fill: rgb(75, 75, 75);"></path>
	<path class="st0" d="M319.453,203.383h100.102c1.813,0,3.286-1.469,3.286-3.282v-16.766c0-1.812-1.473-3.285-3.286-3.285H319.453
		c-1.812,0-3.281,1.473-3.281,3.285v16.766C316.172,201.914,317.641,203.383,319.453,203.383z" style="fill: rgb(75, 75, 75);"></path>
	<path class="st0" d="M319.453,272.719h100.102c1.813,0,3.286-1.469,3.286-3.286v-16.766c0-1.812-1.473-3.285-3.286-3.285H319.453
		c-1.812,0-3.281,1.473-3.281,3.285v16.766C316.172,271.25,317.641,272.719,319.453,272.719z" style="fill: rgb(75, 75, 75);"></path>
	<path class="st0" d="M319.453,342.051h100.102c1.813,0,3.286-1.469,3.286-3.282V322c0-1.812-1.473-3.281-3.286-3.281H319.453
		c-1.812,0-3.281,1.469-3.281,3.281v16.77C316.172,340.582,317.641,342.051,319.453,342.051z" style="fill: rgb(75, 75, 75);"></path>
	<path class="st0" d="M475.438,51.641H36.554C16.398,51.641,0,68.039,0,88.203v335.594c0,20.164,16.398,36.562,36.554,36.562
		h438.883c20.156,0,36.562-16.398,36.562-36.562V88.203C512,68.039,495.594,51.641,475.438,51.641z M43.594,410.817V101.184
		c0-3.282,2.664-5.942,5.946-5.942h412.836c3.281,0,5.945,2.66,5.945,5.942v309.633c0,3.285-2.664,5.941-5.945,5.941H49.539
		C46.258,416.758,43.594,414.102,43.594,410.817z" style="fill: rgb(75, 75, 75);"></path>
</g>
</svg>
