<?xml version="1.0" encoding="utf-8"?>
<!-- Generator: Adobe Illustrator 16.0.0, SVG Export Plug-In . SVG Version: 6.00 Build 0)  -->
<!DOCTYPE svg PUBLIC "-//W3C//DTD SVG 1.1//EN" "http://www.w3.org/Graphics/SVG/1.1/DTD/svg11.dtd">
<svg version="1.1" id="carender" xmlns="http://www.w3.org/2000/svg" xmlns:xlink="http://www.w3.org/1999/xlink" x="0px" y="0px"
	 width="50px" height="50px" viewBox="0 0 50 50" enable-background="new 0 0 50 50" xml:space="preserve">
<path d="M17.397,20.32h6.239v6.24h-6.239V20.32z M26.554,20.32h6.238v6.24h-6.238V20.32z M35.704,20.32h6.241v6.24h-6.241V20.32z
	 M8.246,28.511h6.241v6.241H8.246V28.511z M17.397,28.511h6.239v6.241h-6.239V28.511z M26.554,28.511h6.238v6.241h-6.238V28.511z
	 M35.704,28.511h6.241v6.241h-6.241V28.511z M8.246,37.247h6.241v6.241H8.246V37.247z M17.397,37.247h6.239v6.241h-6.239V37.247z
	 M26.554,37.247h6.238v6.241h-6.238V37.247z M35.704,37.247h6.241v6.241h-6.241V37.247z"/>
<path fill="none" d="M4.968,18.448h40.333v26.757H4.968V18.448z"/>
<path d="M41.009,6.043v6.942H30.478V6.043H19.323v6.942H8.793V6.043H1.068v43.061h48.13V6.043H41.009L41.009,6.043z M45.301,45.205
	H4.968V18.447h40.333V45.205L45.301,45.205z"/>
<path d="M10.352,0.896h7.645v10.765H10.35L10.352,0.896z M31.958,0.896h7.648v10.765H31.96L31.958,0.896z"/>
</svg>
