<!--?xml version="1.0" encoding="utf-8"?-->
<!-- Generator: Adobe Illustrator 19.1.1, SVG Export Plug-In . SVG Version: 6.00 Build 0)  -->
<svg version="1.1" id="_x31_0" xmlns="http://www.w3.org/2000/svg" xmlns:xlink="http://www.w3.org/1999/xlink" x="0px" y="0px" viewBox="0 0 512 512" style="width: 256px; height: 256px; opacity: 1;" xml:space="preserve">
<style type="text/css">
	.st0{fill:#374149;}
</style>
<g>
	<path class="st0" d="M480.028,422.047c-1.969-10.794-8.426-15.672-14.019-15.754c-9.61-4.57-95.387-45.293-112.797-56.476
		c-1.879-1.157-3.766-2.563-5.668-4.051c-0.79-0.676-1.543-1.266-2.406-2.09l0.039-0.16l-2.047-4.176
		c-1.894-3.782-4.414-10.711-6.695-16.934l-0.711-1.89c-0.801-2.09-1.515-3.962-2.14-5.653c-0.13-0.457-0.282-0.93-0.363-1.375
		c0.73,0.29,1.461,0.582,2.191,0.805l4.39,1.43l2.461,0.898l-0.027-0.102l0.184,0.059l-2.047-7.094
		c-1.149-4.042-1.406-9.078-1.313-13.468c0.047-0.731,0.09-1.466,0.161-2.059c1.054,1.391,6.542,8.821,8.426,11.379
		c0.297,0.442,0.504,0.774,0.527,0.867l0.019-0.129c0.035,0.046,0.137,0.183,0.137,0.183l1.34-9.453
		c0.066-0.426,1.129-7.934,0.222-16.797c-0.082-1.024-0.183-2.058-0.32-3.114c1.801,0.543,3.902,1.09,6.554,1.715l4.989,1.164
		l3.301,0.878l-0.066-0.125l0.206,0.051l-4.098-7.637c-1.273-2.477-2.438-4.914-3.469-7.219c-0.102-0.273-0.238-0.546-0.335-0.824
		c18.789-0.988,27.519-21.355,32.476-36.703c0.797-2.519,1.688-6.082,2.332-10.191c0.141-0.746,0.29-1.465,0.426-2.262
		c1.891,1.801,6.395,4.539,9.954,2.953c0.054-0.012,0.129-0.012,0.179-0.027l-0.019-0.027c0.051-0.024,0.106-0.027,0.156-0.055
		c0,0-7.906-12.679-10.113-13.937c-0.379-5.309,0.488-4.157-1.582-9.466c-0.254-0.75-0.55-1.598-0.918-2.633l6.289,4.165l3.75,2.602
		c0-0.004-0.012-0.11-0.012-0.122l0.172,0.114c0,0-0.691-12.782-11.215-27.73c-2.125-3.09-4.539-6.238-7.57-9.426
		c2.203,1.321,11.746,7.942,14.852,10.102c0.492,0.375,0.832,0.641,0.878,0.719c0-0.008,0-0.086,0.004-0.106
		c0.024,0.019,0.157,0.11,0.157,0.11s1.254-30.614-9.871-49.481c4.398-75-51.883-99.234-59.129-102.226
		C312.169,7.722,289.486,0,265.384,0c-29.066,0-54.668,11.5-69.082,31.039c-5.195-1.262-10.32-1.89-15.359-1.89
		c-30.797,0-56.242,23.785-67.977,63.566l-1.515,5.187l-1.157,3.57c0,0,0.098-0.051,0.137-0.07l-0.062,0.214
		c0,0,5.558-2.914,7.746-4.078c0.394-0.18,0.679-0.297,0.847-0.352c-4.214,8.398-7.27,18.43-9.148,29.633l-1.16,6.898l-1.086,5.672
		l0.164-0.172l-0.046,0.282l8.824-9.367c0.07,0,1.707-1.742,4.156-4.226c0.367-0.321,0.699-0.629,1.122-0.965
		c-5.942,18.175-10.11,34.402-10.27,45.511c-0.137,9.266,1.801,17.395,2.469,19.918c0.078,0.41,0.129,0.703,0.113,0.774
		c0.008-0.008,0.055-0.082,0.066-0.098c0.02,0.066,0.058,0.206,0.058,0.206s5.969-9.484,12.543-14.758
		c1.39-1.082,2.801-2.023,4.207-2.606c-0.39,2.266-1.012,5.055-1.859,8.543c-1.422,1.418-2.758,3.07-3.938,5.039
		c-3.863,6.144-5.676,14.258-5.359,23.398c-0.942,2.519-1.574,4.015-1.574,4.09l-2.262,5.586l-1.832,4.199l0.164-0.078l-0.09,0.222
		l5.504-2.878l1.438-0.703c0.473,2.347,1.023,4.695,1.726,6.886c3.07,9.375,7.954,22.137,16.543,29.855
		c-1.183,1.497-2.446,2.993-3.707,4.645l-3.473,4.246l-2.527,2.922l0.16-0.015l-0.144,0.175l9.375-0.945
		c3.598-0.352,6.996-1.18,10.266-2.23c1.988-0.563,3.976-1.149,5.972-1.895c-1.086,2.563-2.32,5.192-3.793,7.989l-2.438,4.539
		l-1.699,2.941l0.141-0.031l-0.102,0.188l8.43-1.969c3.02-0.684,5.29-1.301,7.203-1.871c0.286-0.062,0.625-0.153,0.902-0.211
		c-0.473,7.39-1.965,14.45-1.965,14.527l-0.984,4.684l-0.653,2.656l0.102-0.046l-0.039,0.191l7.012-2.992
		c2.145-0.942,3.824-1.742,5.27-2.454c0.262-0.106,0.546-0.234,0.797-0.328c0.152,5.043-0.004,12.254-1.184,18.297l-0.882,4.355
		l-0.508,2.106c0.027-0.007,0.058-0.019,0.086-0.027l-0.035,0.18c0,0,5.125-1.629,6.75-2.184c0.168-0.035,0.371-0.086,0.465-0.094
		c-0.855,2.106-1.711,4.519-2.722,7.242c-2.207,6.066-4.726,13-6.618,16.699l-2.046,4.176l0.074,0.316
		c-2.75,2.285-5.434,4.332-8.11,5.985C141.403,361,55.622,401.722,46.013,406.293c-5.594,0.082-12.055,4.961-14.024,15.754
		c-0.546,2.992-1.262,15.121-0.706,86.015L31.36,512h449.301v-3.938C481.134,455.84,480.974,426.855,480.028,422.047z
		 M152.864,243.047c-4.554-3.891-8.477-13.926-10.754-21.074c-1.89-5.824-2.602-12.129-1.89-17.25v-0.074
		c6.144-4.809,9.609-8.508,9.609-8.508c3.782,2.519,6.066,5.75,7.402,9.449c0.082,0.078,0.16,0.238,0.16,0.317
		c0,0.156,0.078,0.238,0.078,0.394c0.078,0.316,0.078,0.469,0.078,0.469s0.316,0.946,0.71,2.602c0.078,0,0.078,0,0.078,0.078
		c1.18,6.382,0.156,13.546-1.34,20.324c-0.949,4.332-2.117,8.07-3.461,11.558C153.298,241.89,153.122,242.5,152.864,243.047z
		 M177.712,245.762c0,0,0,0,0-0.078c-0.157-0.472-0.157-0.866-0.313-1.418c-1.973-10.16-2.602-22.133-2.758-36.863
		c-0.078-1.418-0.078-2.918-0.078-4.488c0-24.106,3.309-36.078,10.004-59.946l0.473-1.809c3.938-14.34,10.554-27.809,15.832-37.183
		c9.371-6.614,19.614-11.5,28.672-12.918c1.812-0.312,3.625-0.473,5.355-0.473c0.786,0,1.5,0.161,2.129,0.473
		c2.676,1.262,3.309,5.043,4.649,8.664c19.766,47.578,69,70.661,94.679,82.161c0.707,6.222,1.102,12.996,1.024,21.031v4.644
		c-0.16,14.649-0.79,26.547-2.836,36.707c0,0.473-0.157,0.946-0.238,1.418c0,0.078,0,0.078,0,0.078l-7.008,19.145
		c0,0,0,0.074-0.082,0.074c-0.391,0.789-0.863,1.578-1.418,2.445c-1.812,2.914-4.015,6.145-6.535,9.527
		c-2.363,3.153-5.121,6.465-8.113,9.77c-14.18,15.676-34.344,30.954-55.141,30.954s-40.957-15.199-55.137-30.954
		c-2.992-3.305-5.75-6.617-8.114-9.77c-2.598-3.382-4.726-6.613-6.538-9.527c-0.551-0.867-1.024-1.656-1.497-2.445v-0.074
		L177.712,245.762z M320.786,338.152c1.011,2.649,1.949,5.145,2.965,7.332c-1.18,5.278-2.758,14.966-4.489,26.231
		c-0.789,5.199-1.578,10.633-2.363,16.226c-0.394,2.754-0.707,5.438-1.102,8.191c-1.183,8.274-2.207,16.543-3.152,23.946
		c-0.195,1.355-0.344,2.691-0.52,4.004l-0.183,0.812c-7.867-7.477-18.465-17.363-27.969-26.164c-0.946-0.863-1.969-1.73-2.836-2.598
		c-3.226-2.992-6.222-5.75-8.902-8.191c-0.629-0.473-1.18-0.946-1.652-1.418c-0.238-0.238-0.551-0.473-0.707-0.629
		c-0.23-0.23-0.527-0.461-0.762-0.683l-0.024-0.031c2.126-1.574,4.485-3.387,7.086-5.352c11.578-8.742,26.859-20.714,34.973-29.145
		c0.394-0.394,0.785-0.785,1.102-1.101c2.758-2.914,5.121-6.066,7.011-9.141c0.543-0.778,1.008-1.551,1.477-2.332L320.786,338.152z
		 M191.262,338.082c0.473,0.789,0.942,1.574,1.496,2.359c1.969,3.152,4.332,6.226,7.008,9.141c0.317,0.316,0.711,0.706,1.106,1.101
		c8.114,8.43,23.313,20.402,34.894,29.145c2.598,1.969,5.035,3.778,7.164,5.352l-0.011,0.019c-0.234,0.226-0.466,0.386-0.77,0.695
		c-0.238,0.156-0.398,0.39-0.715,0.629c-0.469,0.473-1.019,0.946-1.652,1.418c-2.676,2.442-5.668,5.199-8.898,8.191
		c-0.95,0.867-1.895,1.734-2.836,2.598c-8.066,7.402-16.703,15.496-24.004,22.359c-1.402,1.278-2.832,2.586-4.133,3.754
		c-0.157-1.539-0.383-3.153-0.535-4.766c-0.95-7.402-2.047-15.672-3.153-23.946c-0.394-2.754-0.71-5.438-1.102-8.191
		c-0.789-5.516-1.578-10.95-2.363-16.07c-1.734-11.34-3.308-21.031-4.492-26.387C189.212,343.278,190.318,340.758,191.262,338.082z
		 M199.298,447.886c10.629-10.003,24.34-22.926,36.23-33.953c2.84,3.469,6.934,6.934,12.446,8.668v5.351
		c-5.352,3.864-10.867,13.238-13.309,26.313c-1.262,6.457-3.152,25.047-4.254,43.324h-26.625c-2.758-17.882-4.57-35.21-5.833-48.367
		L199.298,447.886z M200.872,319.488v-13.152c15.047,13.785,34.187,25.207,55.137,25.207c18.488,0,35.558-8.902,49.652-20.461
		c1.942-1.555,3.782-3.102,5.489-4.61v13.015c-1.258,4.887-4.489,12.29-10.794,18.985c-9.531,10.242-34.027,28.594-44.347,36.234
		c-10.317-7.641-34.817-25.992-44.344-36.234C205.36,331.778,202.134,324.375,200.872,319.488z M264.044,422.602
		c5.515-1.813,9.613-5.199,12.445-8.668c11.895,11.027,25.602,23.95,36.234,33.953l1.34,1.336
		c-1.179,13.157-3.074,30.485-5.832,48.367H281.61c-1.106-18.277-2.992-36.867-4.254-43.324
		c-2.441-13.074-7.953-22.449-13.312-26.313V422.602z M339.673,96.457l-0.191-0.031c0,0,1.242,2.602,3.242,6.226
		c1.227,2.203,2.774,4.817,4.462,7.414c0.23,0.371,0.469,0.766,0.699,1.137l0.05,0.152c-1.457,0.102-2.902,0.129-4.32,0.066
		l-0.027-0.023c-13.668-0.668-24.622-9.133-29.871-14.039c-1.098-1.05-1.965-1.953-2.566-2.625c2.992,0.875,6.21,1.469,9.59,1.57
		c0.805,0.035,1.629-0.016,2.446-0.047c0.285,0.004,0.566,0.008,0.851,0.012l0.313,0.062c-0.016-0.015-0.028-0.039-0.043-0.058
		c0.043,0.004,0.082,0.004,0.125,0.004c-0.008-0.016-0.019-0.031-0.027-0.043c0.023,0,0.047,0,0.07,0
		c-1.488-1.859-2.653-3.722-3.586-5.469c-0.109-0.207-0.218-0.41-0.324-0.617c-0.859-1.688-1.508-3.254-1.961-4.539
		c-0.766-2.211-0.996-3.633-0.996-3.633l8.164,0.969l1.562,0.183l0.758,0.172c0-0.004-0.035-0.078-0.038-0.086l0.187,0.023
		c0,0-1.722-4.172-5.641-9.477c-0.801-1.082-1.722-2.226-2.718-3.375c-0.11-0.14-0.223-0.281-0.332-0.426l-0.086-0.214
		c1.149,0.25,2.325,0.602,3.558,1.078c0.59,0.234,1.176,0.473,1.746,0.711c12.649,5.504,20.258,15.203,24.027,21.301
		c1.258,2.012,1.989,3.461,2.442,4.41c0.141,0.363,0.328,0.766,0.418,1.094l-1.966-0.297l-0.031-0.024c0,0-0.015,0.004-0.046-0.019
		l-0.02,0.004l-6.41-1l-3.555-0.649C339.626,96.355,339.665,96.442,339.673,96.457z M364.962,227.016
		c0.106,0.054,0.195,0.101,0.301,0.16c-5.515-6.305-6.695-22.293-6.93-29.226c0.359-0.582,0.797-1.016,1.234-1.454
		c0.043-0.035,0.062-0.078,0.11-0.113c1.422,1.652,3.539,4.011,5.191,5.507c1.656,1.414,4.176,3.07,7.168,4.562
		c0.317,4.809-0.473,10.402-2.125,15.52c-2.914,9.058-8.43,22.766-14.574,22.766c-0.867,0-1.813-0.313-2.676-0.946
		c-1.812-1.179-2.679-3.938-2.918-7.402v-0.398l5.594-14.019c0,0,2.969,1.492,6.762,3.508c0.985,0.566,1.996,1.156,3.043,1.801
		C365.075,227.207,365.028,227.094,364.962,227.016z" style="fill: rgb(75, 75, 75);"></path>
</g>
</svg>
