<?xml version="1.0" encoding="utf-8"?>
<!-- Generator: Adobe Illustrator 16.0.0, SVG Export Plug-In . SVG Version: 6.00 Build 0)  -->
<!DOCTYPE svg PUBLIC "-//W3C//DTD SVG 1.1//EN" "http://www.w3.org/Graphics/SVG/1.1/DTD/svg11.dtd">
<svg version="1.1" id="close" xmlns="http://www.w3.org/2000/svg" xmlns:xlink="http://www.w3.org/1999/xlink" x="0px" y="0px"
	 width="50px" height="50px" viewBox="0 0 50 50" enable-background="new 0 0 50 50" xml:space="preserve">
<path d="M28.464,24.981l19.78-19.78c0.951-0.952,0.951-2.49,0-3.442c-0.95-0.952-2.491-0.952-3.441,0l-19.78,19.78L5.242,1.757
	c-0.952-0.952-2.49-0.952-3.442,0s-0.952,2.49,0,3.442l19.78,19.78L1.8,44.76c-0.952,0.953-0.952,2.488,0,3.442
	c0.474,0.473,1.098,0.713,1.721,0.713c0.623,0,1.247-0.24,1.721-0.713l19.781-19.78l19.78,19.78
	c0.476,0.473,1.098,0.713,1.721,0.713s1.246-0.24,1.721-0.713c0.951-0.954,0.951-2.489,0-3.442L28.464,24.981z"/>
</svg>
