<?xml version="1.0" encoding="utf-8"?>
<!-- Generator: Adobe Illustrator 16.0.0, SVG Export Plug-In . SVG Version: 6.00 Build 0)  -->
<!DOCTYPE svg PUBLIC "-//W3C//DTD SVG 1.1//EN" "http://www.w3.org/Graphics/SVG/1.1/DTD/svg11.dtd">
<svg version="1.1" id="hatena" xmlns="http://www.w3.org/2000/svg" xmlns:xlink="http://www.w3.org/1999/xlink" x="0px" y="0px"
	 width="50px" height="50px" viewBox="0 0 50 50" enable-background="new 0 0 50 50" xml:space="preserve">
<g>
	<path d="M25,0.533c-13.715,0-24.833,8.188-24.833,20.693c0,7.713,4.79,14.366,13.554,19.559l14.444,8.682l0.163-8.033
		c12.835-0.713,21.505-8.281,21.505-20.208C49.833,8.721,38.716,0.533,25,0.533z M28.121,37.738l-3.425,0.189l-0.069,3.432
		l-0.034,1.643L15.607,37.6C7.819,32.984,3.869,27.475,3.869,21.226C3.869,10.071,14.499,4.234,25,4.234s21.132,5.837,21.132,16.992
		C46.132,30.938,39.399,37.109,28.121,37.738z"/>
</g>
</svg>
