<?xml version="1.0" encoding="utf-8"?>
<!-- Generator: Adobe Illustrator 16.0.0, SVG Export Plug-In . SVG Version: 6.00 Build 0)  -->
<!DOCTYPE svg PUBLIC "-//W3C//DTD SVG 1.1//EN" "http://www.w3.org/Graphics/SVG/1.1/DTD/svg11.dtd">
<svg version="1.1" id="hatena" xmlns="http://www.w3.org/2000/svg" xmlns:xlink="http://www.w3.org/1999/xlink" x="0px" y="0px"
	 width="50px" height="50px" viewBox="0 0 50 50" enable-background="new 0 0 50 50" xml:space="preserve">
<g>
	<path d="M9.881,37.965l2.424-5.422l-1.109-0.567c-2.384-1.22-4.339-2.881-5.684-4.794c-1.347-1.916-2.089-4.07-2.091-6.368
		c0-1.803,0.459-3.515,1.304-5.097c1.267-2.373,3.422-4.445,6.187-5.923c2.763-1.478,6.127-2.354,9.761-2.354
		c3.885,0,7.452,1.004,10.308,2.673c2.86,1.669,4.994,3.994,6.082,6.616l2.425-1.008c-1.347-3.237-3.904-5.961-7.182-7.875
		c-3.28-1.916-7.296-3.03-11.633-3.03C15.266,4.817,10.347,6.544,6.731,9.4c-1.806,1.429-3.288,3.146-4.321,5.079
		c-1.034,1.931-1.615,4.083-1.614,6.335c-0.001,2.875,0.947,5.577,2.57,7.88c1.4,1.989,3.299,3.689,5.543,5.014l-3.324,7.433
		l2.281-0.255c4.682-0.521,9.236-1.633,13.016-2.767l-0.754-2.515C17.088,36.517,13.54,37.403,9.881,37.965z"/>
	<path d="M47.362,35.575c1.188-1.681,1.887-3.671,1.885-5.784c0.002-1.657-0.427-3.242-1.184-4.656
		c-1.139-2.124-2.999-3.876-5.289-5.1c-2.291-1.224-5.021-1.925-7.946-1.926c-3.899,0.001-7.454,1.245-10.082,3.32
		c-1.312,1.039-2.394,2.291-3.152,3.706c-0.757,1.414-1.186,2.999-1.185,4.656c-0.002,2.535,1.001,4.879,2.642,6.749
		c1.625,1.856,3.87,3.277,6.463,4.109c2.695,1.044,8.365,3.031,14.312,3.696l2.282,0.254l-2.491-5.565
		C45.116,38.102,46.401,36.94,47.362,35.575z M41.341,37.326l-1.108,0.568l1.572,3.512c-4.728-0.804-9.127-2.343-11.34-3.205
		l-0.04-0.016l-0.041-0.014c-2.214-0.694-4.074-1.894-5.355-3.359c-1.283-1.473-1.992-3.185-1.993-5.021
		c0-1.206,0.306-2.352,0.874-3.418c0.853-1.596,2.315-3.011,4.21-4.021c1.893-1.013,4.205-1.617,6.709-1.616
		c3.338-0.001,6.338,1.076,8.452,2.752c1.06,0.838,1.897,1.821,2.465,2.885c0.571,1.066,0.875,2.212,0.875,3.418
		c0,1.536-0.496,2.977-1.403,4.273C44.306,35.357,42.976,36.491,41.341,37.326z"/>
</g>
</svg>
