<?xml version="1.0" encoding="utf-8"?>
<!-- Generator: Adobe Illustrator 16.0.0, SVG Export Plug-In . SVG Version: 6.00 Build 0)  -->
<!DOCTYPE svg PUBLIC "-//W3C//DTD SVG 1.1//EN" "http://www.w3.org/Graphics/SVG/1.1/DTD/svg11.dtd">
<svg version="1.1" id="crown" xmlns="http://www.w3.org/2000/svg" xmlns:xlink="http://www.w3.org/1999/xlink" x="0px" y="0px"
	 width="50px" height="50px" viewBox="0 0 50 50" enable-background="new 0 0 50 50" xml:space="preserve">
<circle cx="3.363" cy="11.418" r="2.937"/>
<circle cx="46.637" cy="11.418" r="2.937"/>
<path d="M24.999,9.432c1.622,0,2.937-1.313,2.937-2.935c0-1.622-1.314-2.937-2.937-2.937c-1.616,0-2.935,1.315-2.935,2.937
	C22.064,8.121,23.383,9.432,24.999,9.432z M24.999,12.06l-9.325,16.754L5.219,16.982l2.564,19.821c0,0,14.274,3.541,34.437,0
	l2.564-19.822l-10.46,11.833l-9.325-16.753V12.06z M8.182,39.012l0.795,6.144c0,0,14.413,2.426,32.048,0l0.798-6.142
	c-17.109,3.048-33.641,0-33.641,0V39.012z"/>
</svg>
