<?xml version="1.0" encoding="utf-8"?>
<!-- Generator: Adobe Illustrator 16.0.0, SVG Export Plug-In . SVG Version: 6.00 Build 0)  -->
<!DOCTYPE svg PUBLIC "-//W3C//DTD SVG 1.1//EN" "http://www.w3.org/Graphics/SVG/1.1/DTD/svg11.dtd">
<svg version="1.1" id="denied" xmlns="http://www.w3.org/2000/svg" xmlns:xlink="http://www.w3.org/1999/xlink" x="0px" y="0px"
	 width="50px" height="50px" viewBox="0 0 50 50" enable-background="new 0 0 50 50" xml:space="preserve">
<path d="M25,0.751C11.63,0.751,0.751,11.63,0.751,25C0.751,38.372,11.63,49.249,25,49.249c13.372,0,24.249-10.877,24.249-24.249
	C49.249,11.63,38.372,0.751,25,0.751z M5.684,25c0-4.385,1.487-8.42,3.956-11.663l27.022,27.024
	C33.42,42.833,29.384,44.316,25,44.316C14.351,44.316,5.684,35.65,5.684,25z M40.184,36.903L13.097,9.817
	C16.382,7.237,20.509,5.684,25,5.684c10.65,0,19.316,8.667,19.316,19.316C44.316,29.489,42.763,33.618,40.184,36.903z"/>
</svg>
