<!--?xml version="1.0" encoding="utf-8"?-->
<!-- Generator: Adobe Illustrator 19.1.1, SVG Export Plug-In . SVG Version: 6.00 Build 0)  -->
<svg version="1.1" id="_x31_0" xmlns="http://www.w3.org/2000/svg" xmlns:xlink="http://www.w3.org/1999/xlink" x="0px" y="0px" viewBox="0 0 512 512" style="width: 256px; height: 256px; opacity: 1;" xml:space="preserve">
<style type="text/css">
	.st0{fill:#374149;}
</style>
<g>
	<path class="st0" d="M466.904,411.531c-3.231-17.469-14.52-26.793-25.856-29.18c-31.289-14.847-80.934-38.969-91.289-45.621
		c-2.996-1.922-6.274-4.637-9.602-7.965c-1.45-3.602-3.043-8.008-4.45-11.801c-1.355-3.746-2.668-7.211-3.652-9.649
		c-0.375-0.89-0.844-1.734-1.402-2.484v-1.574l0.066-0.641c0.648,0.387,1.394,0.61,2.074,0.95c1.136,0.59,2.234,1.121,3.23,1.59
		c-0.012-0.039-0.016-0.086-0.024-0.125c0.062,0.023,0.114,0.062,0.176,0.082c-1.442-5.078-1.617-11.382-1.442-16.453
		c0.141-2.457,0.348-4.758,0.641-6.645c0.527-0.679,1.023-1.312,1.477-1.965c0.011-0.012,0.015-0.023,0.031-0.035
		c1.023,0.91,2.836,3.254,6.046,7.582c0.707,1.007,1.402,1.996,2.266,3.254c0,0,0.019-0.125,0.023-0.16
		c0.05,0.07,0.086,0.113,0.137,0.183c0,0,1.734-11.566-0.934-22.527c0.374-0.703,0.75-1.359,1.074-2.015
		c1.473,0.558,4.153,1.437,8.598,2.546c0.777,0.23,1.434,0.426,2.27,0.672c-0.024-0.043-0.039-0.086-0.063-0.129
		c0.074,0.019,0.126,0.035,0.203,0.05c-2.953-5.531-4.965-10.258-6.371-14.148c0.282-0.699,0.469-1.454,0.657-2.153
		c1.312,0.325,2.668,0.469,4.027,0.469c15.691,0,23.422-18.457,27.871-32.367c1.426-4.359,2.465-9.445,2.77-14.633
		c0.011-0.102,0.035-0.203,0.042-0.308c3.75,0.644,7.367,0.605,10.551-0.36c0.508-0.109,1.054-0.195,1.531-0.324
		c-0.125,0-0.254-0.035-0.379-0.039c0.122-0.046,0.258-0.07,0.379-0.121c-4.215,0-8.383-2.062-12.133-5.058
		c-0.375-5.246-1.734-10.352-4.351-14.614c-1.219-1.985-2.766-3.61-4.446-5.035c-0.504-0.477-0.977-0.984-1.512-1.434
		c2.852,0.43,6.414,1.156,9.5,2.25c0.59,0.238,1.199,0.465,1.73,0.746c-0.007-0.031-0.023-0.074-0.031-0.11
		c0.058,0.028,0.129,0.047,0.188,0.07c-1.742-7.449-7.485-21.535-9.922-27.375c-0.434-1.113-0.789-2.042-1.004-2.644
		c0.809,0.301,5.188,2.046,11.028,5.394c1.195,0.718,2.426,1.488,3.722,2.359c-0.004-0.004-0.02-0.09-0.031-0.144
		c0.066,0.038,0.125,0.074,0.187,0.113c0,0-4.027-20.515-8.336-32.738c4.122-76.254-45.855-102.718-56.77-106.558
		C291.962-8.798,224.841-8.098,198.286,31.39c-31.817-8.71-57.684,7.234-72.848,37.684c-0.473,0.93-0.918,1.894-1.371,2.855
		c-0.426,0.926-0.871,1.836-1.282,2.786c-2.007,4.57-3.816,9.41-5.37,14.566c0,0,0.109-0.058,0.144-0.078
		c-0.019,0.074-0.046,0.145-0.07,0.219c0,0,4.942-2.594,11.848-7.336c1.648-1.086,3.39-2.274,5.23-3.574
		c-8.774,8.574-14.543,20.73-17.988,34.211c-0.867,3.242-1.664,6.574-2.301,10.082c0.004-0.004,0.129-0.133,0.172-0.179
		c-0.016,0.098-0.039,0.191-0.055,0.289c0,0,6.266-6.578,13.207-13.066c1.718-1.554,3.469-3.09,5.199-4.516
		c-5.871,10.465-14.434,40.13-15.867,59.18c-0.348,4.066-0.394,7.66-0.012,10.414c0.004-0.008,0.11-0.086,0.129-0.106
		c0.008,0.054,0.008,0.125,0.016,0.176c0.082-0.161,10.516-7.958,16.969-12.489c0.988-0.664,1.879-1.246,2.614-1.703
		c0.015,0.469,0.117,6.062-4.36,22.672c-0.05,0.23-0.094,0.418-0.187,0.653c-0.422,0.515-0.797,1.078-1.172,1.687
		c-2.718,4.355-4.027,9.649-4.355,15.035c0,0.047,0,0.047,0,0.094c-1.801,4.867-3.286,8.645-3.778,9.906l-0.281,0.398
		c0.054-0.027,0.105-0.047,0.156-0.074c-0.016,0.043-0.07,0.191-0.082,0.215c1.086-0.558,2.102-1.118,3.114-1.676
		c0.359-0.164,0.695-0.359,1.066-0.512c0.473,4.286,1.351,8.434,2.519,12.07c3.325,10.352,8.481,23.184,17.332,29.137
		c-1.605,2.317-3.441,4.723-5.43,7.207c-0.633,0.73-1.203,1.461-1.894,2.187c0.054-0.003,0.11-0.015,0.164-0.023
		c-0.054,0.062-0.094,0.121-0.148,0.184c7.496-0.75,13.77-3.094,18.687-6.375h0.051c1.074,0,2.109-0.137,3.136-0.375
		c0.188,0.707,0.422,1.454,0.657,2.156c-1.082,3.094-2.738,6.844-4.79,10.973c-0.535,0.996-0.972,1.969-1.57,2.977
		c0.046-0.012,0.078-0.023,0.129-0.035c-0.035,0.066-0.059,0.121-0.094,0.187c5.997-1.406,9.227-2.484,10.962-3.14
		c0.562,1.125,1.218,2.297,1.965,3.558v0.094c-0.274,7-1.59,13.977-1.985,15.942c-0.07,0.238-0.129,0.402-0.164,0.442
		c0.031-0.016,0.051-0.024,0.082-0.039c-0.012,0.066-0.039,0.191-0.039,0.191c5.43-2.34,8.43-3.981,9.882-4.918
		c0.516,0.656,0.938,1.171,1.5,1.828l0.047,0.042v0.145c0.187,3.961,0.363,11.355-0.504,18.332c-0.214,1.473-0.43,2.954-0.766,4.324
		c0.027-0.007,0.054-0.027,0.086-0.038c-0.016,0.062-0.024,0.129-0.035,0.191c1.679-0.558,3.258-1.305,4.75-2.191l0.027,0.074v0.524
		c-0.562,0.75-1.031,1.594-1.406,2.484c-0.984,2.438-2.246,5.902-3.652,9.649c-1.406,3.793-2.996,8.199-4.45,11.801
		c-3.324,3.328-6.652,6.042-9.554,7.918c-10.402,6.699-60.047,30.821-91.289,45.668c-11.336,2.387-22.622,11.664-25.856,29.133
		c-0.656,3.418-1.5,8.059-0.89,77.332L44.418,512h423.188l0.188-23.184C468.357,419.543,467.513,414.902,466.904,411.531z
		 M68.837,412.969c0.519-1.586,1.176-2.883,1.902-3.942c0.042-0.058,0.082-0.129,0.129-0.191c1.926-2.688,4.34-3.723,6.199-3.723
		h0.469c0,0,60.469-28.55,87.371-43.011c2.617-1.387,5.015-2.684,6.922-3.766c3.465,21.785,8.703,59.535,10.531,78.676l1.41,14.706
		l0.774,9.114l0.09-0.086l0.02,0.199l17.426-16.532c10.258-9.742,24.074-22.718,36.019-33.82c2.574,2.438,5.852,4.684,9.93,5.996
		v5.34c-5.339,3.844-10.82,13.16-13.304,26.183c-1.168,6.134-2.902,23.184-4.074,40.469H67.653
		c-0.281-31.054-0.422-67.961,0.465-72.789c0.18-0.965,0.41-1.848,0.668-2.66C68.806,413.078,68.821,413.019,68.837,412.969z
		 M177.548,235.374c-0.246-1.594-0.493-3.179-0.668-4.871c-0.61-4.687-0.938-9.746-1.172-15.273
		c-0.234-5.294-0.328-11.051-0.328-17.238c-0.094-23.934,3.234-35.829,9.836-59.574l0.515-1.734
		c4.027-14.523,10.726-28.149,15.973-37.516v-0.05c8.523-5.898,17.801-10.352,26.137-12.082c2.481-0.515,4.871-0.797,7.117-0.797
		c1.172,0,2.016,0.282,2.766,0.797c0.472,0.328,0.843,0.786,1.191,1.282c0.066,0.098,0.148,0.176,0.214,0.277
		c1.102,1.762,1.688,4.29,2.622,6.778c19.531,47.074,68.148,70.024,93.77,81.5c0.75,6.274,1.125,13.02,1.125,21.122
		c0,6.094-0.094,11.71-0.328,16.957c-0.234,5.762-0.61,11.008-1.172,15.879c-0.562,4.355-1.218,8.386-2.152,12.179
		c0,0.047,0,0.047,0,0.094c-0.985,3.981-2.153,7.634-3.699,11.145c-0.426,1.035-0.985,2.156-1.594,3.375
		c-0.046,0-0.046,0.047-0.046,0.094c-0.188,0.282-0.328,0.562-0.469,0.844c-2.016,3.652-4.778,7.961-8.242,12.55
		c-3.328,4.45-7.262,9.133-11.711,13.676l-0.281,0.282c-3.375,3.469-7.023,6.839-10.914,9.976
		c-11.898,9.602-25.805,16.817-40.046,16.817c-14.192,0-28.102-7.215-40-16.817c-3.981-3.183-7.731-6.648-11.149-10.21
		c-0.047-0.047-0.094-0.094-0.094-0.094c-4.45-4.538-8.383-9.226-11.711-13.675c-3.418-4.59-6.226-8.898-8.195-12.504
		c-0.187-0.328-0.375-0.657-0.516-0.938c-0.046-0.047-0.046-0.047-0.046-0.094l-5.199-14.192c0-0.094-0.047-0.14-0.047-0.234
		c-0.347-1.445-0.641-2.976-0.93-4.503C177.899,237.534,177.716,236.449,177.548,235.374z M153.376,237.867
		c-4.574-3.91-8.398-13.798-10.691-20.856c-1.871-5.809-2.574-12.133-1.918-17.234v-0.05c6.137-4.778,9.602-8.43,9.602-8.43
		c2.11,1.406,3.793,3.042,5.106,4.918v1.871c0,10.309,0.187,20.426,1.125,30.164v0.05c-0.781,3.082-1.699,5.867-2.762,8.477
		C153.677,237.129,153.552,237.523,153.376,237.867z M237.177,379.66c-0.355,0.313-0.742,0.656-1.094,1.004
		c-0.562,0.469-1.126,0.984-1.688,1.5c-2.339,2.156-4.871,4.449-7.445,6.886c-1.734,1.543-3.469,3.184-5.246,4.825
		c-6.015,5.574-12.195,11.355-17.722,16.519l-1.027,0.851c-0.699-5.5-1.489-11.41-2.282-17.37
		c-0.516-3.887-1.074-7.825-1.594-11.711c-2.153-15.129-4.356-29.508-6.043-38.5c-0.137-0.985-0.324-1.875-0.465-2.672
		c0.047-0.094,0.094-0.141,0.141-0.187c0.094,0.14,0.187,0.281,0.324,0.422c1.313,1.781,2.766,3.469,4.359,5.199
		c1.965,2.156,4.496,4.543,7.352,7.074c5.996,5.434,13.445,11.476,20.515,16.957c3.294,2.57,6.43,4.953,9.383,7.168
		C235.486,378.305,236.384,379,237.177,379.66z M204.747,313.453v-2.015c1.078,0.89,2.203,1.734,3.375,2.531
		c4.402,3.277,9.038,6.273,13.91,8.804c10.492,5.481,21.918,8.993,33.958,8.993c12.038,0,23.511-3.512,34.004-9.039
		c4.87-2.527,9.511-5.481,13.863-8.758c0.75-0.512,1.453-1.074,2.164-1.622c0.406-0.27,0.77-0.542,1.21-0.801v2.094
		c-0.937,3.184-2.766,7.539-5.902,12.035c-1.078,1.594-2.386,3.234-3.839,4.782c-8.102,8.711-28.852,24.59-41.5,33.906
		c-12.692-9.367-33.348-25.242-41.454-33.906c-1.5-1.594-2.762-3.187-3.886-4.828C207.466,321.086,205.638,316.637,204.747,313.453z
		 M308.93,411.27c-5.742-5.367-12.266-11.52-18.609-17.394c-1.778-1.641-3.512-3.282-5.246-4.825
		c-2.621-2.438-5.149-4.73-7.492-6.886c-0.562-0.516-1.125-1.031-1.688-1.5c-0.347-0.348-0.734-0.688-1.086-1.004l-0.074-0.082
		c3.602-2.664,7.723-5.797,11.981-9.121c7.074-5.481,14.519-11.523,20.515-16.914c2.856-2.574,5.387-4.961,7.352-7.117
		c1.594-1.73,3.046-3.418,4.359-5.199c0.141-0.141,0.234-0.328,0.328-0.465c0.043,0.043,0.094,0.09,0.188,0.183
		c-0.188,0.844-0.329,1.734-0.516,2.719c-1.687,8.992-3.89,23.371-6.043,38.5c-0.515,3.886-1.078,7.824-1.594,11.711
		c-0.562,4.23-1.11,8.374-1.641,12.422C309.415,407.942,309.216,409.664,308.93,411.27z M340.212,358.308
		c21.32,12.391,94.23,46.805,94.23,46.805h0.52c2.996,0,7.445,2.672,8.898,10.68c0.89,4.828,0.797,41.734,0.515,72.789H281.329
		c-1.171-17.285-2.902-34.335-4.074-40.469c-2.485-13.023-7.962-22.339-13.305-26.183v-5.34c4.078-1.312,7.355-3.558,9.934-5.996
		c11.988,11.102,25.805,24.078,36.062,33.82l10.683,10.133l6.582,6.383l0.012-0.125l0.148,0.141l2.297-23.934
		c1.641-17.211,5.993-49.379,9.375-71.547C339.442,362.976,339.837,360.527,340.212,358.308z M353.994,88.488
		c1.25,2.007,1.984,3.457,2.438,4.406c0.14,0.367,0.332,0.77,0.426,1.102l-1.969-0.304l-0.031-0.02c0,0-0.02,0.004-0.047-0.019
		l-0.019,0.004l-6.434-1.004l-3.535-0.641c0,0,0.039,0.082,0.046,0.098l-0.191-0.031c0,0,1.246,2.602,3.246,6.226
		c1.222,2.203,2.774,4.817,4.461,7.414c0.23,0.374,0.469,0.77,0.699,1.141l0.05,0.148c-1.461,0.106-2.898,0.129-4.32,0.066
		l-0.027-0.023c-13.668-0.672-24.622-9.133-29.871-14.039c-1.102-1.051-1.965-1.953-2.57-2.625c2.996,0.874,6.215,1.469,9.594,1.57
		c0.805,0.035,1.629-0.016,2.446-0.047c0.281,0,0.558,0.008,0.836,0.012l0.328,0.066c-0.016-0.02-0.031-0.043-0.047-0.062
		c0.043,0,0.086,0,0.129,0c-0.011-0.012-0.019-0.028-0.027-0.039c0.024,0,0.047,0,0.07,0c-1.492-1.86-2.652-3.723-3.59-5.469
		c-0.106-0.203-0.215-0.41-0.321-0.618c-0.859-1.687-1.507-3.254-1.961-4.539c-0.766-2.21-0.996-3.633-0.996-3.633l8.164,0.969
		l1.559,0.188l0.762,0.168l-0.035-0.082l0.183,0.02c0,0-1.722-4.172-5.641-9.477c-0.801-1.082-1.722-2.226-2.718-3.375
		c-0.11-0.137-0.222-0.282-0.332-0.426l-0.082-0.211c1.145,0.246,2.321,0.598,3.551,1.074c0.594,0.234,1.18,0.473,1.75,0.711
		C342.614,72.69,350.224,82.39,353.994,88.488z M364.403,221.957c0.102,0.054,0.199,0.106,0.301,0.16
		c-5.48-6.23-6.699-22.058-6.934-28.996c0.394-0.566,0.879-1.074,1.36-1.489c0.042-0.023,0.058-0.066,0.101-0.094
		c1.356,1.641,3.414,3.977,5.098,5.426c1.636,1.453,4.121,3.094,7.07,4.59c0.329,4.778-0.422,10.305-2.058,15.457
		c-2.906,8.992-8.386,22.578-14.523,22.578c-0.278,0-0.558-0.051-0.797-0.094c1.129-7.028,1.781-14.336,2.156-21.829
		c1.402,0.703,3.746,1.902,6.367,3.298c0.672,0.402,1.355,0.816,2.039,1.262C364.517,222.148,364.47,222.034,364.403,221.957z" style="fill: rgb(75, 75, 75);"></path>
</g>
</svg>
