<?xml version="1.0" encoding="utf-8"?>
<!-- Generator: Adobe Illustrator 16.0.0, SVG Export Plug-In . SVG Version: 6.00 Build 0)  -->
<!DOCTYPE svg PUBLIC "-//W3C//DTD SVG 1.1//EN" "http://www.w3.org/Graphics/SVG/1.1/DTD/svg11.dtd">
<svg version="1.1" id="feedly" xmlns="http://www.w3.org/2000/svg" xmlns:xlink="http://www.w3.org/1999/xlink" x="0px" y="0px"
	 width="50px" height="50px" viewBox="0 0 50 50" enable-background="new 0 0 50 50" xml:space="preserve">
<path d="M47.814,31.305L34.439,44.67c-0.979,0.978-2.331,1.582-3.823,1.582H19.157c-1.358,0-2.6-0.502-3.55-1.328L1.968,31.295
	c-2.093-2.09-2.093-5.512,0-7.602L21.082,4.593c2.093-2.09,5.516-2.09,7.607,0l19.125,19.109
	C49.906,25.792,49.906,29.214,47.814,31.305z M28.157,15.529l-2.729-2.727c-0.298-0.297-0.787-0.297-1.085,0L10.175,26.961
	c-0.298,0.297-0.298,0.786,0,1.083l1.947,1.945c0.135,0.117,0.312,0.188,0.505,0.188h1.635c0.212,0,0.406-0.086,0.545-0.227
	l13.349-13.337C28.456,16.316,28.456,15.828,28.157,15.529z M28.157,26.963l-2.728-2.729c-0.299-0.298-0.788-0.298-1.086,0
	l-8.447,8.441c-0.298,0.298-0.298,0.787,0,1.086l1.946,1.942c0.135,0.119,0.313,0.189,0.507,0.189h1.635
	c0.213,0,0.405-0.085,0.545-0.226l7.629-7.622C28.456,27.747,28.456,27.26,28.157,26.963z M28.157,38.393l-2.729-2.726
	c-0.298-0.299-0.787-0.299-1.085,0l-2.727,2.726c-0.297,0.298-0.297,0.787,0,1.083l1.947,1.945c0.136,0.117,0.312,0.189,0.506,0.189
	h1.635c0.213,0,0.406-0.086,0.546-0.227l1.907-1.905C28.456,39.181,28.456,38.69,28.157,38.393z"/>
</svg>
