<?xml version="1.0" encoding="utf-8"?>
<!-- Generator: Adobe Illustrator 16.0.0, SVG Export Plug-In . SVG Version: 6.00 Build 0)  -->
<!DOCTYPE svg PUBLIC "-//W3C//DTD SVG 1.1//EN" "http://www.w3.org/Graphics/SVG/1.1/DTD/svg11.dtd">
<svg version="1.1" id="yahoo" xmlns="http://www.w3.org/2000/svg" xmlns:xlink="http://www.w3.org/1999/xlink" x="0px" y="0px"
	 width="165.809px" height="50.217px" viewBox="0 0 165.809 50.217" enable-background="new 0 0 165.809 50.217"
	 xml:space="preserve">
<g id="g2403" transform="matrix(1.0986567,0,0,1.0986567,0,-7.6819571)">
	<g id="g2405">
		<path id="path2407" fill="#0063DB" d="M6.455,28.446H0.412v-7.441h6.215v-1.889C6.627,9.963,10.789,6.774,19,6.774
			c2.223,0,3.934,0.354,5.244,0.591l-0.628,7.323c-0.854-0.296-1.71-0.473-3.249-0.473c-2.623,0-3.649,1.89-3.649,4.902v1.889h7.297
			v7.441h-7.297v23.326H6.455V28.446z"/>
		<rect id="rect2409" x="29.374" y="7.482" fill="#0063DB" width="10.263" height="44.289"/>
		<rect id="rect2411" x="48.418" y="8.191" fill="#0063DB" width="10.262" height="7.795"/>
		<rect id="rect2413" x="48.418" y="21.005" fill="#0063DB" width="10.262" height="30.765"/>
		<path id="path2415" fill="#0063DB" d="M89.525,29.804c-1.882-1.181-3.763-1.712-6.215-1.712c-4.446,0-7.867,3.188-7.867,8.503
			c0,4.902,3.991,8.09,8.438,8.09c2.34,0,4.675-0.532,6.387-1.476l0.228,7.914c-2.565,0.884-5.644,1.357-8.382,1.357
			c-9.808,0-17.275-5.907-17.275-16.063c0-10.216,7.467-16.121,17.275-16.121c3.081,0,5.817,0.532,8.154,1.712L89.525,29.804z"/>
		<polygon id="polygon2417" fill="#0063DB" points="94.771,7.482 105.035,7.482 105.035,33.938 105.149,33.938 113.701,21.005 
			124.932,21.005 114.613,35.119 125.787,51.772 113.358,51.772 105.149,36.535 105.035,36.535 105.035,51.772 94.771,51.772 		"/>
		<path id="path2419" fill="#FF0084" d="M150.817,29.509c-1.141-0.354-2.282-0.354-3.478-0.354c-4.787,0-7.47,3.601-7.47,9.626
			v12.992h-10.262V21.005h9.35v5.669h0.116c1.766-3.898,4.331-6.378,8.778-6.378c1.196,0,2.452,0.177,3.478,0.354L150.817,29.509z"
			/>
	</g>
</g>
</svg>
