<?xml version="1.0" encoding="utf-8"?>
<!-- Generator: Adobe Illustrator 16.0.0, SVG Export Plug-In . SVG Version: 6.00 Build 0)  -->
<!DOCTYPE svg PUBLIC "-//W3C//DTD SVG 1.1//EN" "http://www.w3.org/Graphics/SVG/1.1/DTD/svg11.dtd">
<svg version="1.1" id="github" xmlns="http://www.w3.org/2000/svg" xmlns:xlink="http://www.w3.org/1999/xlink" x="0px" y="0px"
	 width="50px" height="50px" viewBox="0 0 50 50" enable-background="new 0 0 50 50" xml:space="preserve">
<path d="M25,0.865c-13.663,0-24.742,11.08-24.742,24.747c0,10.93,7.089,20.202,16.924,23.482c1.238,0.22,1.688-0.546,1.688-1.196
	c0-0.587-0.02-2.146-0.034-4.208c-6.884,1.497-8.337-3.319-8.337-3.319c-1.125-2.857-2.749-3.618-2.749-3.618
	c-2.247-1.536,0.171-1.51,0.171-1.51c2.482,0.182,3.79,2.552,3.79,2.552c2.208,3.784,5.792,2.691,7.201,2.06
	c0.225-1.602,0.866-2.69,1.57-3.302c-5.494-0.632-11.274-2.758-11.274-12.237c0-2.701,0.965-4.913,2.548-6.64
	c-0.255-0.626-1.102-3.139,0.244-6.549c0,0,2.078-0.667,6.804,2.536c1.972-0.549,4.09-0.822,6.197-0.832
	c2.099,0.01,4.215,0.282,6.191,0.832c4.731-3.202,6.801-2.536,6.801-2.536c1.351,3.407,0.499,5.923,0.245,6.549
	c1.587,1.727,2.546,3.938,2.546,6.64c0,9.511-5.787,11.6-11.299,12.211c0.886,0.764,1.678,2.273,1.678,4.585
	c0,3.305-0.029,5.974-0.029,6.786c0,0.66,0.448,1.431,1.7,1.191c9.824-3.28,16.909-12.548,16.909-23.478
	C49.747,11.945,38.67,0.865,25,0.865z"/>
</svg>
