<?xml version="1.0" encoding="utf-8"?>
<!-- Generator: Adobe Illustrator 16.0.0, SVG Export Plug-In . SVG Version: 6.00 Build 0)  -->
<!DOCTYPE svg PUBLIC "-//W3C//DTD SVG 1.1//EN" "http://www.w3.org/Graphics/SVG/1.1/DTD/svg11.dtd">
<svg version="1.1" id="google" xmlns="http://www.w3.org/2000/svg" xmlns:xlink="http://www.w3.org/1999/xlink" x="0px" y="0px"
	 width="50px" height="50px" viewBox="0 0 50 50" enable-background="new 0 0 50 50" xml:space="preserve">
<path d="M16.057,9.143c-8.671,0-15.685,7.014-15.685,15.686c0,8.673,7.013,15.687,15.685,15.687c9.055,0,15.055-6.363,15.055-15.331
	c0-1.03,0-1.816-0.247-2.603H16.057v5.385h8.898c-0.356,2.303-2.693,6.769-8.898,6.769c-5.353,0-9.724-4.441-9.724-9.909
	c0-5.462,4.371-9.907,9.724-9.907c3.052,0,5.094,1.303,6.251,2.422l4.259-4.095C23.829,10.691,20.295,9.143,16.057,9.143
	L16.057,9.143z M40.708,18.108v4.474h-4.491v4.493h4.491v4.474h4.476v-4.474h4.488v-4.488h-4.488v-4.479H40.708L40.708,18.108z"/>
</svg>
