<?xml version="1.0" encoding="utf-8"?>
<!-- Generator: Adobe Illustrator 16.0.0, SVG Export Plug-In . SVG Version: 6.00 Build 0)  -->
<!DOCTYPE svg PUBLIC "-//W3C//DTD SVG 1.1//EN" "http://www.w3.org/Graphics/SVG/1.1/DTD/svg11.dtd">
<svg version="1.1" id="hatena" xmlns="http://www.w3.org/2000/svg" xmlns:xlink="http://www.w3.org/1999/xlink" x="0px" y="0px"
	 width="50px" height="50px" viewBox="0 0 50 50" enable-background="new 0 0 50 50" xml:space="preserve">
<g>
	<path d="M39.198,5.091h9.697v27.703h-9.697V5.091z"/>
	<path d="M30.22,27.336c-1.64-1.834-3.921-2.865-6.848-3.087c2.604-0.71,4.493-1.748,5.69-3.135
		c1.189-1.369,1.779-3.226,1.779-5.564c0-1.851-0.404-3.488-1.187-4.903c-0.805-1.406-1.96-2.532-3.478-3.374
		c-1.328-0.73-2.906-1.246-4.746-1.55c-1.849-0.295-5.084-0.443-9.728-0.443H0.414v41.174h11.632c4.673,0,8.042-0.165,10.103-0.477
		c2.058-0.323,3.787-0.869,5.183-1.615c1.73-0.912,3.05-2.211,3.972-3.88c0.929-1.674,1.386-3.604,1.386-5.812
		C32.689,31.618,31.866,29.164,30.22,27.336z M10.838,14.409h2.41c2.785,0,4.656,0.314,5.622,0.94
		c0.953,0.629,1.439,1.714,1.439,3.261c0,1.489-0.518,2.537-1.54,3.151c-1.037,0.603-2.925,0.909-5.69,0.909h-2.241V14.409z
		 M20.398,38.021c-1.097,0.672-2.986,1.004-5.637,1.004h-3.922v-8.996h4.092c2.723,0,4.605,0.342,5.605,1.026
		c1.017,0.685,1.517,1.893,1.517,3.628C22.053,36.234,21.504,37.351,20.398,38.021z"/>
	<path d="M44.048,35.564c-3.062,0-5.542,2.478-5.542,5.538c0,3.062,2.48,5.542,5.542,5.542c3.058,0,5.538-2.48,5.538-5.542
		C49.586,38.042,47.105,35.564,44.048,35.564z"/>
</g>
</svg>
