<?xml version="1.0" encoding="utf-8"?>
<!-- Generator: Adobe Illustrator 16.0.0, SVG Export Plug-In . SVG Version: 6.00 Build 0)  -->
<!DOCTYPE svg PUBLIC "-//W3C//DTD SVG 1.1//EN" "http://www.w3.org/Graphics/SVG/1.1/DTD/svg11.dtd">
<svg version="1.1" id="heart" xmlns="http://www.w3.org/2000/svg" xmlns:xlink="http://www.w3.org/1999/xlink" x="0px" y="0px"
	 width="50px" height="50px" viewBox="0 0 50 50" enable-background="new 0 0 50 50" xml:space="preserve">
<path d="M25.005,7.723C19.42,2.135,10.368,1.031,4.781,6.618c-5.585,5.585-5.585,14.643,0,20.23v-0.01l20.221,20.223l0,0
	l20.223-20.223c5.582-5.582,5.582-14.638,0-20.22C39.645,1.031,30.589,2.135,25.005,7.723z M43.206,24.816L25.005,43.018
	L8.826,26.838l-2.025-2.022c-4.458-4.457-4.46-11.718,0-16.177c4.461-4.459,11.721-3.357,16.179,1.103l2.025,2.023l2.022-2.023
	c4.464-4.462,11.72-5.562,16.179-1.105C47.663,13.096,47.667,20.354,43.206,24.816z"/>
</svg>
