<?xml version="1.0" encoding="utf-8"?>
<!-- Generator: Adobe Illustrator 16.0.0, SVG Export Plug-In . SVG Version: 6.00 Build 0)  -->
<!DOCTYPE svg PUBLIC "-//W3C//DTD SVG 1.1//EN" "http://www.w3.org/Graphics/SVG/1.1/DTD/svg11.dtd">
<svg version="1.1" id="home" xmlns="http://www.w3.org/2000/svg" xmlns:xlink="http://www.w3.org/1999/xlink" x="0px" y="0px"
	 width="50px" height="50px" viewBox="0 0 50 50" enable-background="new 0 0 50 50" xml:space="preserve">
<path d="M49.457,25.503L26.061,2.106c-0.562-0.562-1.559-0.562-2.121,0L0.543,25.503c-0.586,0.586-0.586,1.535,0,2.121
	s1.535,0.586,2.121,0l1.886-1.886v19.743c0,1.504,1.224,2.728,2.728,2.728h34.985c1.504,0,2.728-1.224,2.728-2.728V25.278
	l2.346,2.346c0.293,0.293,0.677,0.439,1.061,0.439s0.768-0.146,1.061-0.439C50.043,27.038,50.043,26.089,49.457,25.503z
	 M32.124,45.209H17.416V33.33c0-3.655,2.974-6.628,6.629-6.628h1.451c3.655,0,6.628,2.973,6.628,6.628V45.209z M41.99,45.209h-6.866
	V33.33c0-5.31-4.319-9.628-9.628-9.628h-1.451c-5.31,0-9.629,4.319-9.629,9.628v11.879H7.55V22.738L25,5.288l16.99,16.99V45.209z"/>
</svg>
