<?xml version="1.0" encoding="utf-8"?>
<!-- Generator: Adobe Illustrator 19.1.1, SVG Export Plug-In . SVG Version: 6.00 Build 0)  -->
<svg version="1.1" id="_x31_0" xmlns="http://www.w3.org/2000/svg" xmlns:xlink="http://www.w3.org/1999/xlink" x="0px" y="0px"
	 viewBox="0 0 512 512" style="enable-background:new 0 0 512 512;" xml:space="preserve">
<style type="text/css">
	.st0{fill:#374149;}
</style>
<g>
	<path class="st0" d="M443.674,111.45L454.1,99.305h-0.137l0.137-0.16h-77.11l-20.688-0.043c0.004,0.015,0.008,0.031,0.012,0.043
		h-0.164c2.45,8.746,3.726,17.867,3.726,27.125c0,3.726-0.125,7.328-0.515,10.797c7.847,7.586,15.812,15.684,23.785,24.422H454.1
		l-26.481-31.105L443.674,111.45z"/>
	<path class="st0" d="M447.659,320.457c-7.328-59.492-59.504-133.973-108.102-178.031c0.59-2.179,1.086-4.586,1.5-7.328
		c0.316-2.535,0.527-5.176,0.527-7.82c0-16.25-6.742-31.715-18.215-42.172l16.246-29.863c4.402-8.004,5-17.52,1.633-26.09
		c-3.203-8.254-9.762-14.629-17.961-17.476c-44.282-15.559-95.133-15.57-139.465-0.02c-8.242,2.782-14.852,9.199-18.129,17.629
		c-3.27,8.645-2.629,18.118,1.742,25.938l16.34,29.973c-11.586,10.516-18.398,25.946-18.398,42.082
		c0,5.109,0.684,10.156,2.031,15.046C118.725,186.562,66.51,261.145,59.299,320.461c-6.039,49.492,7.594,95.918,38.386,130.738
		C122.307,478.938,169.315,512,253.432,512c84.301,0,131.226-33.066,155.746-60.801c30.848-34.766,44.516-81.199,38.481-130.738
		V320.457z M211.842,119.367c1.762-2.734,4.59-4.394,7.813-4.394h67.75c0.684,0,1.465,0.098,2.145,0.293
		c2.246,0.586,4.199,1.953,5.664,4.004c1.562,2.145,2.442,4.879,2.442,8.004c0,0.586,0,1.172-0.098,1.758
		c-0.39,3.614-2.149,6.734-4.59,8.59c-1.661,1.172-3.512,1.954-5.563,1.954h-67.75c-5.762,0-10.348-5.566-10.348-12.301
		C209.307,124.246,210.186,121.512,211.842,119.367z M198.467,173.547c6.351,3.32,13.57,5.074,21.187,5.074h67.75
		c7.321,0,14.645-1.754,21.184-4.976c39.145,35.042,89.324,102.695,95.473,152.191c8.882,72.434-37.489,142.234-150.629,142.234
		c-113.145,0-159.414-69.801-150.531-142.234C109.049,276.246,159.323,208.594,198.467,173.547z M307.592,42.473l-18.238,33.55
		l-3.414,6.344h-64.922l-3.41-6.344l-15.402-28.328l-2.828-5.262c33.246-10.637,70.992-10.906,104.555-1.008
		C305.143,41.797,306.389,42.074,307.592,42.473z"/>
	<polygon class="st0" points="232.248,310.215 232.655,310.789 232.866,311.293 197.397,311.293 197.397,326.031 242.107,326.031 
		242.107,342.434 197.397,342.434 197.397,357.27 242.107,357.27 242.107,395.246 264.854,395.246 264.854,357.27 309.659,357.27 
		309.659,342.434 264.854,342.434 264.854,326.031 309.659,326.031 309.659,311.293 286.999,311.226 274.19,311.102 
		274.811,310.215 316.299,256.23 316.271,256.23 316.299,256.195 316.217,256.195 316.299,256.035 287.107,256.035 255.287,297.523 
		253.721,299.504 253.416,299.844 219.85,256.035 190.76,255.938 190.854,256.035 190.659,256.035 	"/>
</g>
</svg>
