<?xml version="1.0" encoding="utf-8"?>
<!-- Generator: Adobe Illustrator 16.0.0, SVG Export Plug-In . SVG Version: 6.00 Build 0)  -->
<!DOCTYPE svg PUBLIC "-//W3C//DTD SVG 1.1//EN" "http://www.w3.org/Graphics/SVG/1.1/DTD/svg11.dtd">
<svg version="1.1" id="line" xmlns="http://www.w3.org/2000/svg" xmlns:xlink="http://www.w3.org/1999/xlink" x="0px" y="0px"
	 width="50px" height="50px" viewBox="0 0 50 50" enable-background="new 0 0 50 50" xml:space="preserve">
<path d="M44.279,33.809h0.002C39.134,39.752,27.62,46.99,25,48.098c-2.619,1.105-2.232-0.705-2.125-1.324
	c0.062-0.373,0.35-2.109,0.35-2.109c0.083-0.629,0.168-1.604-0.08-2.225c-0.276-0.682-1.364-1.041-2.163-1.213
	C9.189,39.662,0.458,31.393,0.458,21.521c0-11.01,11.011-19.97,24.542-19.97c13.533,0,24.541,8.959,24.541,19.97
	C49.541,25.929,47.839,29.898,44.279,33.809z M15.394,25.493h-3.59v-8.489c0-0.71-0.576-1.291-1.286-1.291
	c-0.708,0-1.286,0.581-1.286,1.291v9.778c0,0.713,0.577,1.291,1.286,1.291h4.876c0.71,0,1.286-0.578,1.286-1.291
	C16.68,26.07,16.104,25.493,15.394,25.493z M20.437,17.003c0-0.71-0.577-1.291-1.286-1.291c-0.709,0-1.286,0.581-1.286,1.291v9.778
	c0,0.713,0.577,1.291,1.286,1.291c0.709,0,1.286-0.578,1.286-1.291V17.003z M32.175,17.003c0-0.71-0.576-1.291-1.286-1.291
	c-0.709,0-1.287,0.581-1.287,1.291v6.052l-4.999-6.826c-0.241-0.324-0.626-0.518-1.027-0.518c-0.139,0-0.276,0.023-0.408,0.066
	c-0.527,0.177-0.881,0.668-0.881,1.225v9.778c0,0.713,0.578,1.291,1.288,1.291s1.286-0.578,1.286-1.291v-6.048l4.999,6.823
	c0.241,0.324,0.626,0.516,1.028,0.516c0.137,0,0.275-0.02,0.407-0.064c0.527-0.176,0.88-0.668,0.88-1.227V17.003z M40.065,23.184
	c0.71,0,1.287-0.579,1.287-1.291c0-0.712-0.577-1.29-1.287-1.29h-3.588v-2.309h3.588c0.71,0,1.287-0.579,1.287-1.292
	c0-0.71-0.577-1.291-1.287-1.291h-4.876c-0.709,0-1.287,0.581-1.287,1.291c0,0.001,0,0.002,0,0.006v4.882c0,0,0,0.002,0,0.002
	c0,0.002,0,0.002,0,0.003v4.884c0,0.713,0.578,1.291,1.287,1.291h4.876c0.708,0,1.287-0.578,1.287-1.291
	c0-0.711-0.579-1.289-1.287-1.289h-3.588v-2.309H40.065z"/>
</svg>
