<svg xmlns="http://www.w3.org/2000/svg" width="555.194" height="156.334" viewBox="21.625 20.229 555.194 156.334">
<g id='logo_vivid'>
  <path d="M122.389 96.194l-8.14 3.86-5.395 14.817 5.332 3.857 8.14-3.857 5.394-14.817zM130.829 100.054l-5.394 14.819 5.332 3.858 8.14-3.858 5.394-14.819-5.331-3.86zM460.915 71.559l-7.856 3.724-5.201 14.301L453 93.308l7.856-3.724 5.201-14.301-5.142-3.724zM476.915 71.559l-7.856 3.724-5.201 14.301L469 93.308l7.856-3.724 5.201-14.301-5.142-3.724zM322.2 58.677c-7.91 0-14.322 6.413-14.322 14.323 0 7.911 6.412 14.323 14.322 14.323 7.911 0 14.323-6.412 14.323-14.323 0-7.91-6.412-14.323-14.323-14.323zm0 21.644c-4.043 0-7.32-3.277-7.32-7.321s3.277-7.321 7.32-7.321a7.32 7.32 0 1 1 0 14.642z"/>
</g>
<g id='logo_title'>
  <path d="M409.637 150.883l1.815 24.138h-3.114l-.986-14.056-8.541 15.598-4.727-15.598-4.398 14.056h-3.344l7.627-23.608 5.584 18.024zM428.833 169.419c.029-.514.043-.885.043-1.113 0-2.188-.584-3.937-1.756-5.242-1.152-1.295-2.729-1.938-4.729-1.938-2.062 0-3.771.717-5.127 2.152-1.357 1.447-2.043 3.246-2.043 5.397 0 2.058.619 3.699 1.857 4.929 1.236 1.229 2.895 1.842 4.979 1.842 1.314 0 2.41-.223 3.285-.672.867-.437 1.709-1.207 2.529-2.312l-2.357-1.301c-.789 1.104-1.922 1.657-3.396 1.657-1.076 0-1.961-.319-2.656-.957-.684-.637-1.027-1.452-1.027-2.442v-.001h10.398zm-6.598-5.652c1.961 0 3.104 1.037 3.438 3.112h-7.064c.559-2.075 1.768-3.112 3.626-3.112zM444.969 150.896l-1.557 12.713c-.791-.862-1.545-1.479-2.271-1.844-.691-.352-1.549-.527-2.566-.527-1.99 0-3.646.701-4.955 2.103-1.316 1.397-1.977 3.159-1.977 5.271 0 1.979.605 3.6 1.805 4.854 1.195 1.246 2.736 1.871 4.627 1.871.828 0 1.521-.114 2.086-.344.57-.248 1.246-.72 2.023-1.414l-.172 1.44h3.146l2.971-24.123h-3.16zm-3.297 20.353c-.828.973-1.842 1.457-3.043 1.457-1.152 0-2.076-.357-2.77-1.072-.695-.723-1.043-1.68-1.043-2.869 0-1.41.402-2.576 1.213-3.5.809-.924 1.834-1.387 3.066-1.387 1.146 0 2.066.354 2.771 1.059s1.057 1.627 1.057 2.771c.005 1.408-.413 2.589-1.251 3.541zM454.612 161.565l-1.656 13.454h-3.157l1.657-13.454zM455.596 155.167c0 .457-.166.854-.498 1.188a1.617 1.617 0 0 1-1.195.5 1.662 1.662 0 0 1-1.219-.516c-.32-.334-.5-.779-.5-1.242 0-.467.162-.861.484-1.186.334-.334.73-.5 1.188-.5.467 0 .865.176 1.213.527.351.344.527.752.527 1.229zM469.071 161.567l-.215 1.771c-.719-.772-1.414-1.315-2.104-1.627-.678-.315-1.496-.474-2.457-.474-2.037 0-3.709.709-5.014 2.13-1.285 1.418-1.928 3.235-1.928 5.454 0 1.925.562 3.49 1.686 4.699 1.125 1.209 2.576 1.812 4.355 1.812 1.443 0 2.846-.59 4.195-1.771l-.186 1.457h3.156l1.65-13.453-3.138.002zm-1.961 9.741c-.852.941-1.854 1.414-3.018 1.414-1.049 0-1.9-.377-2.566-1.129s-1-1.718-1-2.898c0-1.354.396-2.49 1.195-3.428.805-.924 1.789-1.387 2.975-1.387 1.086 0 1.971.377 2.652 1.129.689.742 1.027 1.709 1.027 2.898.004 1.304-.419 2.438-1.265 3.401zM489.018 156.153c-.477-.951-1.135-1.69-1.973-2.213-1.018-.649-2.498-.977-4.438-.977h-4.477l-2.727 22.059h3.27l1.104-8.928h2.414c2.822 0 4.896-.894 6.213-2.675.885-1.194 1.328-2.588 1.328-4.17a6.983 6.983 0 0 0-.714-3.096zm-3.664 6.006c-.719.689-1.744 1.035-3.092 1.035h-2.129l.887-7.188 1.389.006c2.684 0 4.023 1.051 4.023 3.151 0 1.309-.359 2.307-1.078 2.996zM496.102 161.565l-.143 1.156c1.064-1.012 2.141-1.518 3.227-1.518.953 0 1.818.352 2.604 1.043l-2.014 2.604c-.582-.496-1.162-.744-1.744-.744-.398 0-.752.08-1.061.232-.305.158-.564.404-.793.742-.225.34-.41.771-.557 1.311-.166.629-.283 1.27-.35 1.914l-.83 6.713h-3.156l1.658-13.453h3.159zM515.094 163.097c-1.342-1.312-3.08-1.972-5.213-1.972-2.172 0-3.979.694-5.428 2.086-1.438 1.381-2.156 3.112-2.156 5.199 0 2.036.695 3.723 2.086 5.055 1.379 1.324 3.16 1.986 5.34 1.986 2.086 0 3.842-.702 5.26-2.101 1.43-1.4 2.145-3.129 2.145-5.188-.003-2.083-.678-3.772-2.034-5.065zm-2.369 8.367c-.799.906-1.816 1.357-3.057 1.357-1.242 0-2.246-.414-3.027-1.242-.775-.811-1.172-1.881-1.172-3.213 0-1.324.414-2.424 1.244-3.301.828-.865 1.875-1.299 3.146-1.299 1.219 0 2.199.389 2.953 1.17.756.752 1.131 1.771 1.131 3.066-.003 1.415-.407 2.565-1.218 3.462zM533.219 150.896l-1.557 12.713c-.791-.862-1.545-1.479-2.271-1.844-.691-.352-1.549-.527-2.566-.527-1.99 0-3.646.701-4.955 2.103-1.316 1.397-1.977 3.159-1.977 5.271 0 1.979.605 3.6 1.805 4.854 1.197 1.246 2.736 1.871 4.627 1.871.828 0 1.521-.114 2.086-.344.568-.248 1.246-.72 2.023-1.414l-.172 1.44h3.146l2.971-24.123h-3.16zm-3.297 20.353c-.828.973-1.842 1.457-3.043 1.457-1.152 0-2.076-.357-2.77-1.072-.695-.723-1.043-1.68-1.043-2.869 0-1.41.402-2.576 1.213-3.5.809-.924 1.834-1.387 3.066-1.387 1.146 0 2.066.354 2.771 1.059s1.057 1.627 1.057 2.771c.005 1.408-.413 2.589-1.251 3.541zM551.303 161.565l-.957 7.826a15.283 15.283 0 0 1-.287 1.738c-.109.496-.232.91-.365 1.242-.271.643-.719 1.205-1.348 1.701-1.062.838-2.471 1.256-4.213 1.256-1.658 0-2.979-.424-3.971-1.271-.99-.854-1.486-2.004-1.486-3.438 0-.224.016-.479.037-.771.023-.295.061-.637.105-1.018l.887-7.271h3.156l-.934 7.559c-.031.281-.062.566-.086.852-.02.24-.023.443-.023.605 0 1.418.834 2.127 2.5 2.127.898 0 1.566-.23 2-.699.428-.467.713-1.283.854-2.457l.984-7.982h3.145l.002.001zM565.67 162.866l-.398 3.213c-.646-.828-1.268-1.424-1.854-1.785-.58-.354-1.266-.527-2.057-.527-1.199 0-2.189.441-2.955 1.328-.771.885-1.158 2.023-1.158 3.412 0 1.307.357 2.35 1.086 3.129.729.789 1.68 1.186 2.842 1.186 1.115 0 2.271-.479 3.457-1.438l-.414 3.326c-1.219.496-2.381.744-3.482.744-1.975 0-3.574-.646-4.812-1.934-1.229-1.285-1.844-2.951-1.844-4.998 0-2.104.662-3.857 1.98-5.271 1.334-1.418 2.99-2.127 4.977-2.127 1.607 0 3.156.58 4.632 1.742zM572.155 164.493l-1.299 10.526H567.7l1.299-10.526h-1.786l.358-2.928h1.785l.769-6.24h3.157l-.772 6.24h2.914l-.353 2.928z"/>
  <path fill="#AAA" d="M374.534 164H24.581c-.839 0-1.767.556-2.073 1.396l-.025-.06c-.306.84.127 1.664.966 1.664H373.4c.841 0 1.769-.824 2.074-1.664l.021.06c.312-.84-.121-1.396-.961-1.396z"/>
</g>
<g id='logo_text'>
  <path d="M145.792 22.239c-.495 0-.803.4-.803 1.018 0 .584.309 1.017.803 1.017h8.492c.527 0 .838-.433.838-1.017 0-.615-.311-1.018-.838-1.018h-8.492zM25.333 28.665h18.166c.681 0 1.113-.65 1.113-1.392 0-.683-.433-1.391-1.143-1.391H25.333c-.71 0-1.143.708-1.143 1.391 0 .743.433 1.392 1.143 1.392zm20.7 14.304H22.768c-.71 0-1.143.711-1.143 1.391 0 .741.433 1.421 1.112 1.421h23.327c.71 0 1.112-.68 1.112-1.421 0-.68-.402-1.391-1.143-1.391zm28.771 1.791h-5.189c.865-3.8 1.607-7.971 1.916-11.338.027-.157.027-.311.027-.467 0-.711-.154-1.329-.618-1.85-.435-.495-1.083-.742-1.951-.742h-11.15c-.588 0-.958.557-.958 1.236 0 .649.401 1.144.958 1.144h10.103c.775 0 .988.185.988.741v.278c-.278 3.089-.924 7.014-1.913 10.999H55.552c-.617 0-1.019.493-1.019 1.143 0 .649.4 1.236 1.019 1.236h19.249c.65 0 .962-.587.962-1.236 0-.651-.311-1.144-.959-1.144zm33.065-10.32h-23.45c-.803 0-1.236.588-1.236 1.392 0 .834.433 1.329 1.205 1.329H107.9c.772 0 1.205-.494 1.205-1.329 0-.805-.433-1.392-1.236-1.392zm23.087 2.627c2.165-2.657 3.893-5.283 4.916-8.033.216-.649.339-1.267.339-1.792 0-.618-.154-1.113-.401-1.545-.559-.803-1.421-1.235-2.752-1.235l-15.726.15c-.71 0-1.143.497-1.143 1.238 0 .835.404 1.359 1.143 1.359l14.767-.187c.774 0 1.113.216 1.113.681 0 .188-.061.405-.154.682-1.203 3.46-3.767 7.073-6.982 10.039-3.306 3.029-7.227 5.253-10.966 6.673a1.424 1.424 0 0 0-.927 1.33c0 .186.029.37.091.524.187.524.62.772 1.143.772.249 0 .491-.062.741-.155 4.79-1.79 9.64-4.789 13.069-8.557 3.432 2.688 5.839 5.005 8.156 7.785.309.341.711.494 1.112.494.403 0 .804-.153 1.082-.464.248-.278.401-.618.401-.989 0-.37-.152-.74-.43-1.08-2.598-2.993-5.132-5.002-8.592-7.69zm24.537-10.379H144.68c-.556 0-.834.403-.834 1.019 0 .618.278 1.079.834 1.079h10.813c.525 0 .804-.466.804-1.079-.001-.616-.279-1.019-.804-1.019zm15.571 14.735h-.155c-.648 0-1.05.34-1.081.927-.062 1.607-.34 2.935-.772 3.615-.463.742-1.544.927-4.82.927-3.954 0-4.294-.248-4.294-1.36v-9.547c0-.74.309-.958 1.019-.958h7.137c1.884 0 2.781-.741 2.781-2.688v-6.983c0-1.977-.898-2.719-2.781-2.719h-10.226c-.589 0-.9.495-.9 1.144 0 .68.31 1.143.9 1.143h9.577c.711 0 1.02.218 1.02.958v5.963c0 .742-.309.958-1.02.958h-7.075c-1.947 0-2.873.742-2.873 2.688V46.12c0 2.409.74 2.967 5.53 3.028.618.03 1.205.03 1.729.03 2.255 0 3.955-.155 4.943-.587.618-.214 1.112-.587 1.421-1.112.585-.864 1.051-2.937 1.112-5.005v-.064c.002-.616-.461-.955-1.172-.987zm-25.272-8.125h8.527c.495 0 .772-.494.772-1.05s-.277-.988-.772-.988h-8.527c-.525 0-.773.432-.773.988s.248 1.05.773 1.05zm8.62 2.379h-8.62c-.523 0-.773.464-.773 1.018 0 .522.249 1.017.773 1.017v.002h8.62c.494 0 .772-.495.772-1.053 0-.552-.279-.984-.772-.984zm-1.7 4.387h-5.222c-1.61 0-2.383.617-2.383 2.193v4.851c0 1.576.773 2.224 2.383 2.224h5.222c1.606 0 2.378-.648 2.378-2.224v-4.851c.001-1.575-.771-2.193-2.378-2.193zm.216 6.581c0 .586-.278.741-.834.741h-3.984c-.558 0-.835-.154-.835-.741v-3.983c0-.587.278-.741.835-.741h3.984c.557 0 .834.153.834.741v3.983zm49.501-7.631h-2.131V37.53c0-1.699-.743-2.348-2.595-2.348h-7.971v-1.851h7.566c1.699 0 2.471-.494 2.471-1.916V29.31c0-1.418-.772-1.946-2.471-1.946h-7.566v-1.699h12.358c.522 0 .834-.433.834-1.016 0-.56-.31-.961-.834-.961h-12.358V22.05c0-.557-.344-.862-1.082-.862-.682 0-1.081.305-1.081.862v1.637h-12.05c-.525 0-.803.401-.803.961 0 .583.278 1.016.803 1.016h12.05v1.699h-7.261c-1.668 0-2.441.526-2.441 1.946v2.104c0 1.421.772 1.916 2.441 1.916h7.261v1.852h-9.856c-.495 0-.773.432-.773.926 0 .524.278.989.773.989h9.856v1.916h-12.297c-.494 0-.772.431-.772.989 0 .556.278.989.772.989h12.297v2.193h-10.227c-.495 0-.772.431-.772.926 0 .524.278.989.772.989h10.227v1.608c0 .834-.401 1.05-1.729 1.05-.838 0-1.854-.154-2.535-.306-.091-.028-.188-.028-.278-.028-.495 0-.898.278-.988.834-.03.093-.03.187-.03.249 0 .586.369.926.927 1.051.805.186 2.039.308 3.09.308 2.904 0 3.706-.802 3.706-2.842v-1.914h7.974c1.851 0 2.595-.649 2.595-2.319h-.002v-1.791h2.132c.494 0 .799-.433.799-1.019.001-.563-.307-.965-.801-.965zm-12.696-9.855h7.01c.586 0 .865.124.865.649v1.08c0 .523-.278.646-.865.646v.001h-7.01v-2.376zm-2.164 2.377h-6.643c-.617 0-.896-.124-.896-.647V29.81c0-.525.278-.649.896-.649v-.001h6.643v2.376zm10.504 10.877c0 .587-.278.772-.896.772h-7.446v-2.193h8.342v1.421zm.001-3.399h-8.338v-1.916h7.442c.619 0 .896.128.896.71v1.206zm22.468-14.709c-8.432 0-13.811 5.563-13.811 13.256 0 5.192 2.564 8.311 5.778 8.311 1.266 0 2.564-.4 3.553-1.358 1.081-1.017 1.977-2.41 3.059-5.592 1.078-3.306 1.761-7.628 2.042-12.328 5.465.183 8.898 3.984 8.898 9.206 0 3.244-1.421 5.745-3.371 7.199-1.544 1.145-3.924 1.917-6.179 2.226-.711.124-1.112.584-1.112 1.205 0 .089 0 .216.026.306.123.772.649 1.077 1.298 1.077.09 0 .216 0 .34-.027 2.471-.369 4.696-1.08 6.488-2.226 3.214-2.039 5.098-5.342 5.098-9.699.006-6.799-4.816-11.556-12.107-11.556zm-3.893 13.751c-.742 2.256-1.455 3.584-2.132 4.233-.648.649-1.359.896-2.069.896-1.639 0-3.213-1.947-3.213-5.655 0-5.993 3.706-10.318 9.361-10.844-.218 4.233-.989 8.465-1.947 11.37zm45.788 6.519c-2.157-1.885-4.937-3.429-7.409-4.479a18.86 18.86 0 0 0-2.225-.804c-.123-1.669-.248-3.213-.339-4.881a86.16 86.16 0 0 0 8.771-.772c.587-.092.989-.495.989-1.114v-.215c-.089-.618-.463-1.016-1.051-1.016h-.186c-2.86.394-5.736.661-8.62.8-.062-1.421-.124-2.626-.124-3.831a92.335 92.335 0 0 0 9.203-.772c.622-.09.961-.524.961-1.051 0-.09 0-.187-.031-.278-.092-.619-.433-.989-1.05-.989-.093 0-.184 0-.309.03-2.91.378-5.836.606-8.771.681-.031-.896-.031-1.792-.031-2.78 0-.834-.371-1.174-1.143-1.174-.834 0-1.236.37-1.236 1.112v2.876c-.989.028-1.977.028-2.966.028-2.688 0-5.192-.062-6.832-.154h-.062c-.679 0-1.077.432-1.14 1.053v.152c0 .587.305 1.114 1.016 1.176 1.606.09 4.14.154 7.169.154.989 0 1.912 0 2.873-.031.03 1.361.062 2.66.124 3.865-1.205.062-2.41.062-3.615.062-2.101 0-3.706-.062-5.932-.186h-.062c-.649 0-1.051.43-1.112 1.112v.124c0 .619.401 1.081 1.05 1.143 2.317.155 3.986.155 6.148.155 1.237 0 2.41 0 3.646-.062.063 1.412.157 2.823.282 4.232a17.748 17.748 0 0 0-3.275-.342c-5.1 0-7.6 2.104-7.6 5.098s2.75 4.972 6.92 4.972c4.201 0 6.515-1.483 6.515-5.312 0-.404 0-.899-.027-1.331.494.216.988.464 1.421.648 2.128 1.082 4.417 2.472 6.299 4.203.278.249.587.37.926.37.401 0 .804-.188 1.082-.557.185-.249.278-.524.278-.802 0-.372-.187-.772-.525-1.113zm-16.121 1.514c-2.504 0-4.299-.895-4.299-2.564 0-1.79 1.483-2.874 4.944-2.874 1.145 0 2.411.186 3.588.527.027.431.027.864.027 1.296.035 2.812-1.356 3.615-4.26 3.615zm44.62-1.699c-.123 0-.246 0-.371.031-2.344.495-5.744.834-8.771.834-6.553 0-8.53-1.359-8.53-4.048 0-2.255 2.105-4.572 6.12-6.395 3.271-1.482 7.662-2.905 10.875-3.708.713-.185 1.053-.649 1.053-1.205 0-.154-.031-.306-.062-.463-.188-.618-.586-.927-1.205-.927-.15 0-.312.031-.494.062-2.75.711-6.361 1.947-9.424 3.247-.896-2.597-1.545-5.592-2.065-8.528-.094-.711-.622-1.051-1.237-1.051-.124 0-.217 0-.34.029-.618.124-1.112.522-1.112 1.205 0 .09 0 .187.027.278.587 3.121 1.328 6.335 2.255 9.115-4.449 2.164-7.044 5.19-7.044 8.311 0 4.666 3.488 6.767 11.062 6.735 3.617 0 6.979-.216 9.365-.742.737-.154 1.174-.682 1.174-1.331 0-.124 0-.213-.023-.34-.11-.708-.573-1.109-1.253-1.109zm30.132-15.45c-1.237-.834-2.659-1.36-4.422-1.638.242-1.177.449-2.362.619-3.552.026-.09.026-.187.026-.278 0-.619-.397-1.079-1.082-1.144-.09-.028-.188-.028-.274-.028-.617 0-1.021.342-1.11 1.081a61.903 61.903 0 0 1-.619 3.708c-2.965 0-5.47.647-7.541 1.764a75.308 75.308 0 0 1-.709-4.48c-.062-.679-.467-1.019-1.054-1.019-.09 0-.188 0-.305.031-.619.093-.966.556-.966 1.174v.216c.246 1.796.576 3.58.988 5.345-3.271 2.443-5.225 5.904-5.225 9.702 0 3.985 2.104 6.21 4.885 6.21 1.76 0 3.736-.68 5.594-2.969.222.309.398.586.646.896.188.216.463.34.771.34.311 0 .619-.122.836-.305.272-.218.434-.55.434-.899a1.47 1.47 0 0 0-.275-.862c-.277-.433-.586-.838-.834-1.266 1.295-1.978 2.529-4.604 3.461-7.201.463-1.296.859-2.752 1.232-4.262 1.328.216 2.504.649 3.521 1.359 1.887 1.328 3.119 3.584 3.119 6.363 0 4.663-3.83 7.848-9.67 8.59-.74.094-1.113.588-1.113 1.178 0 .09 0 .186.028.278.093.617.556 1.016 1.267 1.016.094 0 .188 0 .311-.027 7.197-.898 11.771-4.976 11.771-11.062.017-3.81-1.651-6.559-4.31-8.259zm-16.687 14.646c-1.455 0-2.562-1.544-2.562-3.955 0-2.564 1.203-5.221 3.436-7.075a38.267 38.267 0 0 0 3.308 8.466c-1.525 1.978-3.006 2.564-4.182 2.564zm8.312-10.566c-.739 2.131-1.668 4.264-2.655 5.931-1.144-2.316-2.131-5.066-2.812-7.939 1.914-1.079 4.26-1.729 6.517-1.729a38.512 38.512 0 0 1-1.05 3.737zm43.634-12.389a1.263 1.263 0 0 0-.896-.402c-.373 0-.867.306-.867.74 0 .249.062.465.312.772.771.989 1.479 2.226 2.065 3.46.154.37.399.619.863.619.559 0 .961-.401.961-.864 0-.342-.062-.557-.156-.773-.493-1.11-1.448-2.655-2.282-3.552zm-3.032 6.116c.154.37.434.556.84.556.521 0 1.051-.307 1.051-.864 0-.278-.062-.522-.156-.74-.49-1.113-1.512-2.75-2.348-3.647-.244-.248-.521-.432-.865-.432-.488 0-.922.403-.922.835 0 .248.025.432.275.74.797.989 1.539 2.347 2.125 3.552zm-19.986-.059h16.467c.711 0 1.115-.496 1.115-1.237 0-.772-.344-1.328-1.115-1.328v.002h-16.467c-.74 0-1.113.557-1.113 1.267-.001.676.404 1.296 1.113 1.296zm21.47 5.22h-24.094c-.744 0-1.117.525-1.117 1.205 0 .71.371 1.267 1.082 1.267h11.619c-.031 3.213-.647 5.56-1.854 7.507-1.269 2.131-3.556 3.707-6.271 4.387-.588.154-.899.68-.899 1.236 0 .185.03.37.094.555.186.525.588.742 1.145.742.23-.002.461-.033.684-.092 3.119-.834 5.812-2.626 7.441-5.221 1.572-2.41 2.383-5.407 2.41-9.114h9.795c.74 0 1.082-.525 1.082-1.205-.001-.742-.341-1.267-1.117-1.267zm26.731-3.986a.982.982 0 0 0-.803.404c-1.945 2.225-3.98 3.955-6.672 5.686-3.339 2.129-6.552 3.611-9.394 4.572-.56.186-.836.619-.836 1.144 0 .185.024.368.09.556.151.463.522.74 1.054.74.186 0 .366-.027.586-.091 2.53-.863 5.651-2.319 8.465-4.045v10.813c0 .711.623 1.112 1.233 1.112.615 0 1.298-.432 1.298-1.081V35.466c2.284-1.731 4.479-3.616 5.991-5.345.218-.278.345-.587.345-.865 0-.34-.154-.649-.435-.927-.303-.253-.612-.407-.922-.407zm35.817-2.656c-.561-.711-1.357-1.174-2.75-1.174H393.75c-.711 0-1.111.495-1.111 1.297 0 .8.367 1.267 1.111 1.267h20.33c.709 0 1.02.306 1.02.74 0 .216-.094.494-.217.772-1.42 2.625-4.016 4.818-6.73 5.994a1.28 1.28 0 0 0-.771 1.176c0 .216.062.466.188.682.215.4.615.584 1.053.584.211 0 .428-.062.68-.154 3.121-1.203 6.521-4.168 8.098-7.505.311-.683.469-1.361.469-1.949-.018-.681-.203-1.267-.543-1.73z"/>
  <path d="M404.35 29.436c-.836 0-1.422.433-1.422 1.329 0 4.789-.521 7.384-1.576 9.64-1.23 2.657-3.676 4.634-6.605 5.623-.619.216-.896.618-.896 1.112 0 .186.023.401.119.618.248.556.619.803 1.113.803.217 0 .436-.031.646-.124 3.366-1.112 6.337-3.368 8.03-6.797 1.238-2.471 1.918-5.53 1.951-10.937-.001-.834-.526-1.267-1.36-1.267z"/>
  <path fill="#AAA" d="M487.993 35.885h-60.814c-.84 0-1.768.555-2.068 1.395l-.025-.058c-.307.84.127 1.663.967 1.663h60.814c.84 0 1.768-.823 2.068-1.663l.025.058c.306-.841-.127-1.395-.967-1.395zm21.843 1.612c2.705-1.478 4.057-3.623 4.057-6.435 0-1.849-.547-3.43-1.641-4.74a5.651 5.651 0 0 0-2.506-1.767c-1.008-.347-2.324-.522-3.947-.522h-5.15l-3.426 27.83h7.334c.844.004 1.686-.022 2.523-.081a16.568 16.568 0 0 0 1.82-.226 6.641 6.641 0 0 0 2.646-1.171c1.01-.734 1.791-1.695 2.344-2.884a8.77 8.77 0 0 0 .865-3.84c.003-3.292-1.637-5.347-4.919-6.164zm-5.548-9.625h1.424c2.691 0 4.037 1.13 4.037 3.389 0 3.292-1.766 4.938-5.299 4.938h-1.172l1.01-8.327zm4.558 19.376c-.77.516-2.188.775-4.254.775h-2.771l1.045-8.525 2.482-.001c.939 0 1.74.072 2.406.216.668.145 1.211.374 1.633.686.42.312.73.712.932 1.198.193.487.297 1.072.297 1.758-.002 1.815-.59 3.112-1.77 3.893zm27.633-23.215l-.471 3.839H525.79l-.883 7.21h10.219l-.432 3.568h-10.223l-1.15 9.373h10.219l-.486 3.839h-14.328l3.426-27.829h14.327zm12.543 3.839l-2.955 23.99h-4.127l2.955-23.99h-6.65l.469-3.839h17.143l-.471 3.839h-6.364zm18.187-5.822l-15.393 29.812h4.484l3.393-6.543h10.793l2.02 6.543h4.312l-9.609-29.812zm-5.732 19.701l4.867-9.896 2.992 9.896h-7.859z"/>
</g>
<g id='logo_main'>
  <path d="M153.973 98h19.229l-13.417 36.627c-.733 2.015.273 3.373 2.287 3.373h4.583c2.014 0 3.797-1.358 4.53-3.373L184.601 98h19.186c.84 0 1.766-.89 2.072-1.728l.026-.414c.305-.838-.127-1.86-.966-1.86h-49.813c-.839 0-1.767 1.022-2.072 1.86l-.026.414c-.307.84.126 1.728.965 1.728zM89.449 73h49.812c.839 0 1.767-.823 2.072-1.663l.025.057c.306-.84-.126-1.394-.966-1.394H90.58c-.839 0-1.767.554-2.072 1.394l-.025-.057c-.306.84.127 1.663.966 1.663zm174.3-3h-53.813c-.839 0-1.767.555-2.073 1.394l-.025-.057c-.305.84.127 1.663.966 1.663h18.185c-.074.148-.155.293-.211.449l-22.239 60.903c-.733 2.016.305 3.646 2.319 3.646h5.144c2.014 0 4.24-1.631 4.973-3.646l22.238-60.903c.057-.156.084-.301.12-.449h12.392l-10.705 29.299c-.734 2.015.978 3.701 2.991 3.701h4.583c2.013 0 4.128-1.687 4.861-3.701L264.89 71h-.09c.056-.613-.353-1-1.051-1zm102.753 67.017c.897-.642 1.646-1.537 2.012-2.535l21.459-58.958c.363-.999.271-1.896-.164-2.536.008-.57-.383-.981-1.021-.981h-1.033l-.019-.002h-4.965l-.021.002h-27.996l-.021-.002h-4.965l-.021.002h-2.031c-.812 0-1.701.656-2 1.466l-.021.067c-.104.286-.111.55-.055.776a4.869 4.869 0 0 0-.668 1.208l-21.461 58.958a3.433 3.433 0 0 0-.215 1.211 2.237 2.237 0 0 0-.51.772l-.021.068c-.297.811.121 1.467.936 1.467h41.066c.64 0 1.329-.412 1.735-.983zm-9.988-2.538c-.057.17-.104.346-.137.521h-21.105c.088-.172.184-.342.242-.521l21.459-58.961c.062-.169.104-.342.137-.518h21.104c-.088.17-.176.341-.238.518l-21.462 58.961zM82.66 91h19.234l-15.686 43.235c-.733 2.013.625 3.765 2.639 3.765h4.583c2.014 0 4.481-1.752 5.214-3.765L114.331 91h18.142c.839 0 1.767-.498 2.072-1.336l.026-.108c.305-.839-.128-1.556-.967-1.556H83.791c-.839 0-1.767.717-2.072 1.556l-.026.108c-.305.838.128 1.336.967 1.336zm-55.916 43.063c-.791 2.174.33 3.938 2.502 3.938h5.55c2.171 0 4.574-1.764 5.364-3.938L54.08 97.63l16.539 8.062c.814.396 2.037.174 2.729-.5l.254-.455c.692-.67.79-1.938-.024-2.33l-17.974-8.76 10.787-28.229c.791-2.17-.329-4.418-2.502-4.418h-5.55c-2.172 0-4.574 2.248-5.365 4.419l-8.681 22.719-19.029-9.271c-.812-.396-2.229.226-2.922.896l-.254.459c-.693.672-.597 1.536.216 1.937l20.465 9.973-16.025 41.931zM574.051 96h-24.533l7.455-20.482c.709-1.944-.293-3.519-2.229-3.519h-4.963c-1.945 0-4.1 1.576-4.809 3.519l-21.461 58.961c-.707 1.939.295 3.521 2.238 3.521h4.963c1.943 0 4.092-1.576 4.799-3.521L548.426 99h24.535c.811 0 1.705-.656 2-1.467l.023-.068c.296-.808-.12-1.465-.933-1.465zm-273.537 38.479l21.459-58.961c.154-.427.215-.831.215-1.208.229-.226.404-.49.508-.775l.025-.067c.295-.81-.123-1.466-.932-1.466h-2.035l-.018-.002h-4.965l-.021.002h-41.03c-.81 0-1.705.656-2 1.466l-.024.067c-.295.81.122 1.466.932 1.466h37.585a4.12 4.12 0 0 0-.24.518l-21.457 58.96c-.707 1.939.295 3.521 2.236 3.521h4.965c1.94 0 4.088-1.576 4.797-3.521zM390.344 107h4.422c1.943 0 3.391-1.742 4.098-3.685l1.207-3.315h28.992l-12.551 34.479c-.707 1.938.295 3.521 2.238 3.521h4.963c1.943 0 4.092-1.576 4.799-3.521l13.229-36.336.002-.006.098-.271.002-.013 8.135-22.341c.145-.386.219-.795.219-1.208.223-.219.396-.483.51-.775l.021-.067c.299-.81-.119-1.466-.932-1.466h-7.016l-.024.004h-41.037c-.645 0-1.34.42-1.746.999h-.082l-.166.457a.088.088 0 0 0-.006.01l-.02.067-.002.009-10.841 29.771c-.708 1.947-.456 3.687 1.488 3.687zm18.819-32h29.051c-.09.167-.17.34-.24.518L430.518 96H401.52l7.643-21zm77.693 28.315L497.163 75h24.051c-.09.167-.17.34-.24.518l-21.461 58.961c-.707 1.939.295 3.521 2.238 3.521h4.965c1.941 0 4.09-1.576 4.797-3.521l21.461-58.961c.154-.427.219-.831.215-1.208.227-.219.396-.483.514-.775l.021-.067c.295-.81-.123-1.466-.932-1.466h-2.031l-.024-.002h-4.971l-.02.002h-37.031c-.645 0-1.34.42-1.746.999h-.082l-.166.457a.088.088 0 0 0-.006.01l-.02.067-.002.009-10.836 29.771c-.707 1.939-.244 3.686 1.691 3.686h4.422c1.95-.001 4.179-1.743 4.886-3.686z"/>
</g>
</svg>
