<!--?xml version="1.0" encoding="utf-8"?-->
<!-- Generator: Adobe Illustrator 18.1.1, SVG Export Plug-In . SVG Version: 6.00 Build 0)  -->

<svg version="1.1" id="_x32_" xmlns="http://www.w3.org/2000/svg" xmlns:xlink="http://www.w3.org/1999/xlink" x="0px" y="0px" viewBox="0 0 512 512" style="width: 256px; height: 256px; opacity: 1;" xml:space="preserve">
<style type="text/css">
	.st0{fill:#4B4B4B;}
</style>
<g>
	<path class="st0" d="M508.257,332.895l-0.016-0.04L444.565,45.507c0,0-0.015-0.016-0.015-0.024l-0.016-0.126h-0.016
		c-5.322-24.897-27.306-42.711-52.78-42.711H120.246c-25.474,0-47.458,17.814-52.78,42.711h-0.015L3.774,332.784l-0.031,0.118
		C1.263,344.739,0,356.789,0,368.879v82.185c0.016,32.201,26.089,58.283,58.291,58.291h395.418
		c32.201-0.008,58.275-26.09,58.291-58.291v-82.185C512,356.789,510.736,344.739,508.257,332.895z M450.061,342.521h-29.832H316.218
		l-2.306,8.362c-7.044,25.402-30.274,44.109-57.912,44.093c-27.637,0.016-50.868-18.69-57.896-44.093l-2.322-8.362H91.772H61.939
		v-32.344h36.197l42.64-216.645h230.447l42.641,216.645h36.196V342.521z" style="fill: rgb(75, 75, 75);"></path>
</g>
</svg>
