<!--?xml version="1.0" encoding="utf-8"?-->
<!-- Generator: Adobe Illustrator 18.1.1, SVG Export Plug-In . SVG Version: 6.00 Build 0)  -->

<svg version="1.1" id="_x32_" xmlns="http://www.w3.org/2000/svg" xmlns:xlink="http://www.w3.org/1999/xlink" x="0px" y="0px" viewBox="0 0 512 512" style="width: 256px; height: 256px; opacity: 1;" xml:space="preserve">
<style type="text/css">
	.st0{fill:#4B4B4B;}
</style>
<g>
	<path class="st0" d="M242.022,369.207V205.192H20.874v177.646h221.148V369.207z M214.761,355.576H48.136V232.454h55.248v59.063
		l28.065-12.156l28.064,12.156v-59.063h55.248V355.576z" style="fill: rgb(75, 75, 75);"></path>
	<path class="st0" d="M269.977,382.838h221.148v-13.631V205.192H269.977V382.838z M297.239,232.454h55.248v59.063l28.065-12.156
		l28.064,12.156v-59.063h55.248v123.123H297.239V232.454z" style="fill: rgb(75, 75, 75);"></path>
	<path class="st0" d="M368.411,164.015V0h-221.14v177.646h221.14V164.015z M341.15,150.384H174.533V27.262h55.248v59.064
		l28.057-12.156l28.064,12.156V27.262h55.248V150.384z" style="fill: rgb(75, 75, 75);"></path>
	<path class="st0" d="M509.057,443.206v-31.632H2.943v31.632H50.9v37.162H2.943V512h506.115v-31.632h-46.939v-37.162H509.057z
		 M137.889,443.206h75.126v37.162h-75.126V443.206z M375.13,480.368h-75.126v-37.162h75.126V480.368z" style="fill: rgb(75, 75, 75);"></path>
</g>
</svg>
