<!--?xml version="1.0" encoding="utf-8"?-->
<!-- Generator: Adobe Illustrator 18.1.1, SVG Export Plug-In . SVG Version: 6.00 Build 0)  -->

<svg version="1.1" id="_x31_0" xmlns="http://www.w3.org/2000/svg" xmlns:xlink="http://www.w3.org/1999/xlink" x="0px" y="0px" viewBox="0 0 512 512" style="width: 256px; height: 256px; opacity: 1;" xml:space="preserve">
<style type="text/css">
	.st0{fill:#374149;}
</style>
<g>
	<path class="st0" d="M60.84,82.041c0.598,2.808,1.786,5.535,3.594,8.042c2.805,3.86,6.665,6.504,10.848,7.774
		c3.078,0.946,5.02,3.914,5.102,7.126c0.11,5.882,1.996,11.902,5.774,17.109c6.234,8.586,15.981,12.93,25.453,12.364
		c3.238-0.161,6.286,1.484,7.555,4.453c0.648,1.512,1.484,2.996,2.484,4.398c2.914,3.969,9.661,7.18,16.543,9.527h20.566
		c2.512-12.469,1.809-24.805-4.371-33.305c-3.05-4.21-7.262-7.015-11.82-8.285c-3.215-0.918-5.535-3.562-5.859-6.883
		c-0.512-5.152-2.348-10.281-5.668-14.844c-6.126-8.418-15.68-12.766-24.993-12.386c-3.289,0.133-6.476-1.566-7.637-4.641
		c-0.648-1.781-1.566-3.512-2.726-5.102c-3.015-4.156-7.25-6.703-11.742-7.851c-0.086-0.024-0.172-0.051-0.258-0.07
		c-1.473-0.356-2.938-0.531-4.438-0.547c-0.066,0-0.133-0.027-0.199-0.027c-0.133,0-0.262,0.027-0.394,0.031
		c-0.813,0.016-1.625-0.102-2.426,0.016c-3.375,0.511-6.856-0.918-8.258-4.02c-0.434-0.973-0.972-1.946-1.648-2.836
		c-5.129-7.07-19.379-5.449-21.375-3.992c-2.023,1.457-5.531,8.121-0.539,19.754c1.297,3.024,5.02,8.153,9.5,8.477
		C57.281,76.537,60.113,78.747,60.84,82.041z" style="fill: rgb(75, 75, 75);"></path>
	<path class="st0" d="M160.891,41.774c3.398,0.161,6.532,3.129,7.637,7.774c0.946,3.942,0.594,8.07,2.508,11.633
		c3,5.531,6.992,9.309,11.23,11.118c3.129,1.351,5.207,5.586,5.398,10.148c0.375,8.395,2.535,16.95,6.559,24.426
		c6.609,12.199,16.57,18.434,26.015,17.703c3.211-0.27,6.367,2.133,7.774,6.344c0.699,2.156,1.59,4.262,2.672,6.262
		c3.75,6.906,13.118,12.199,21.454,15.652h15.898c2.238-18.406,1.187-36.785-5.614-49.363c-3.238-5.992-7.613-10.039-12.199-11.848
		c-3.266-1.297-5.722-5.074-6.18-9.824c-0.73-7.313-2.808-14.653-6.316-21.16c-6.504-12.008-16.246-18.242-25.586-17.731
		c-3.293,0.192-6.558-2.266-7.824-6.664c-0.758-2.511-1.73-4.969-2.973-7.262c-4.992-9.258-13.305-14.898-20.293-13.008
		c-3.321,0.89-6.965-0.945-8.746-5.289c-0.566-1.379-1.242-2.699-2.023-3.942c-5.993-9.742-20.051-6.691-21.86-4.508
		c-1.836,2.16-4.507,11.794,1.914,28.016C152.012,34.49,156.384,41.587,160.891,41.774z" style="fill: rgb(75, 75, 75);"></path>
	<polygon class="st0" points="232.274,190.565 229.544,220.225 229.278,222.951 229.294,222.951 229.278,223.112 297.588,223.112 
		294.591,190.565 292.192,164.466 234.676,164.466 	" style="fill: rgb(75, 75, 75);"></polygon>
	<polygon class="st0" points="221.825,304.163 221.372,308.936 221.388,308.936 221.372,309.101 305.497,309.101 300.287,252.452 
		226.583,252.452 	" style="fill: rgb(75, 75, 75);"></polygon>
	<polygon class="st0" points="183.075,223.112 180.079,190.565 177.676,164.466 120.164,164.466 117.762,190.565 115.032,220.221 
		114.766,222.951 114.781,222.951 114.766,223.112 	" style="fill: rgb(75, 75, 75);"></polygon>
	<polygon class="st0" points="190.981,309.101 185.774,252.452 112.067,252.452 107.312,304.163 106.86,308.936 106.872,308.936 
		106.86,309.101 	" style="fill: rgb(75, 75, 75);"></polygon>
	<path class="st0" d="M450.588,480.515V336.14v-12.657V247.44c0-6.414-5.199-11.614-11.614-11.614h-77.563
		c-2.695,0-4.878,2.184-4.878,4.879v11.152c0,2.699,2.183,4.883,4.878,4.883h7.485c2.695,0,4.882,2.187,4.882,4.882v61.86h-17.246
		h-50.337h-85.527h-28.985h-85.528H74.352h-0.098l0,0h-0.16v157.032H54.742h-0.058l0,0h-0.16v31.231v0.098l0,0V512h19.57l0,0
		h376.494l0,0h19.562v-31.485H450.588z M303.497,368.07v35.707v2.078h-82.313v-2.078V368.07H303.497z M204.989,368.07v37.786
		h-82.317v-2.078V368.07h73.734H204.989z M401.982,368.07v37.786h-82.289V368.07H401.982z" style="fill: rgb(75, 75, 75);"></path>
</g>
</svg>
