<?xml version="1.0" encoding="utf-8"?>
<!-- Generator: Adobe Illustrator 16.0.0, SVG Export Plug-In . SVG Version: 6.00 Build 0)  -->
<!DOCTYPE svg PUBLIC "-//W3C//DTD SVG 1.1//EN" "http://www.w3.org/Graphics/SVG/1.1/DTD/svg11.dtd">
<svg version="1.1" id="new" xmlns="http://www.w3.org/2000/svg" xmlns:xlink="http://www.w3.org/1999/xlink" x="0px" y="0px"
	 width="50px" height="30px" viewBox="0 10 50 30" enable-background="new 0 10 50 30" xml:space="preserve">
<path d="M49.498,32.146c0,0.9-0.73,1.631-1.632,1.631H2.217c-0.9,0-1.63-0.729-1.63-1.631V19.103c0-0.9,0.73-1.63,1.63-1.63h45.649
	c0.901,0,1.632,0.73,1.632,1.63V32.146z"/>
<g>
	<path fill="#FFFFFF" d="M9.291,20.631h2.283l4.14,7.271v-7.271h2.03v10.43h-2.177l-4.247-7.401v7.399H9.29L9.291,20.631
		L9.291,20.631z M27.5,22.478h-5.518v2.214h5.066v1.811h-5.065v2.685h5.773v1.873h-7.903v-10.43h7.646L27.5,22.478L27.5,22.478
		L27.5,22.478z M30.869,20.631l1.379,5.971l0.3,1.662l0.304-1.625l1.176-6.008h2.299l1.24,5.971l0.317,1.662l0.32-1.599l1.392-6.035
		h2.219L38.88,31.061h-2.087l-1.261-6.101l-0.364-2.014L34.8,24.96l-1.261,6.101h-2.023l-2.957-10.429h2.315L30.869,20.631
		L30.869,20.631z"/>
</g>
</svg>
