<svg xmlns="http://www.w3.org/2000/svg" id="noimage" width="150" height="150">
  <path fill="#BABABA" d="M0 0h150v150H0z"/>
  <g fill="#FFF">
    <!-- <path d="M36.371 87.892h3.562l11.131 18.035V87.892h2.887v22.321h-3.397L39.258 92.2v18.013h-2.887V87.892zM70.271 95.563c1.438 1.397 2.157 3.451 2.157 6.163 0 2.622-.634 4.788-1.901 6.498-1.268 1.711-3.234 2.565-5.899 2.565-2.223 0-3.988-.756-5.296-2.27-1.308-1.513-1.961-3.545-1.961-6.095 0-2.733.689-4.909 2.067-6.528 1.378-1.619 3.229-2.429 5.552-2.429 2.082.001 3.842.7 5.281 2.096zm-1.699 10.816c.666-1.371.999-2.896.999-4.576 0-1.517-.24-2.751-.721-3.703-.761-1.497-2.073-2.246-3.937-2.246-1.653 0-2.854.638-3.605 1.913-.751 1.275-1.127 2.812-1.127 4.613 0 1.73.375 3.172 1.127 4.325.751 1.153 1.943 1.73 3.576 1.73 1.793.001 3.022-.685 3.688-2.056zM84.235 87.892h3.054v22.321h-3.054V87.892zM91.833 93.939h2.705v2.31c.648-.8 1.236-1.383 1.762-1.748.902-.618 1.925-.927 3.07-.927 1.297 0 2.34.319 3.129.958.447.365.852.901 1.217 1.61.607-.871 1.322-1.517 2.143-1.937s1.742-.631 2.766-.631c2.188 0 3.676.79 4.467 2.371.426.851.639 1.996.639 3.434v10.833h-2.842V98.908c0-1.084-.271-1.829-.812-2.234-.543-.405-1.203-.607-1.984-.607-1.072 0-1.998.359-2.771 1.079-.775.719-1.164 1.92-1.164 3.601v9.466h-2.779V99.592c0-1.104-.133-1.909-.396-2.416-.414-.76-1.189-1.14-2.324-1.14-1.033 0-1.973.4-2.819 1.201s-1.269 2.249-1.269 4.345v8.631h-2.735V93.939zM126.476 100.364c.628-.081 1.049-.344 1.261-.789.122-.244.183-.595.183-1.052 0-.936-.331-1.614-.993-2.037-.662-.422-1.61-.633-2.844-.633-1.425 0-2.437.387-3.032 1.161-.334.428-.551 1.064-.652 1.909h-2.553c.051-2.011.701-3.411 1.95-4.198 1.25-.787 2.699-1.181 4.348-1.181 1.913 0 3.466.365 4.66 1.094 1.184.729 1.775 1.864 1.775 3.404v9.375c0 .283.058.512.175.684.116.172.362.258.736.258a4.2 4.2 0 0 0 .41-.023 6.61 6.61 0 0 0 .486-.067v2.021a7.803 7.803 0 0 1-.972.228c-.224.03-.527.046-.912.046-.942 0-1.626-.334-2.051-1.003-.224-.354-.38-.855-.472-1.504-.557.729-1.357 1.362-2.4 1.899-1.044.536-2.193.805-3.449.805-1.51 0-2.743-.458-3.7-1.373-.957-.916-1.436-2.062-1.436-3.438 0-1.508.471-2.676 1.413-3.506.942-.829 2.178-1.34 3.707-1.533l4.362-.547zm-5.759 7.389c.577.455 1.261.683 2.051.683.963 0 1.895-.223 2.796-.668 1.52-.738 2.279-1.946 2.279-3.626v-2.199c-.334.213-.763.392-1.289.533-.525.143-1.041.244-1.547.305l-1.652.212c-.991.132-1.736.339-2.235.622-.846.476-1.269 1.233-1.269 2.274 0 .788.289 1.409.866 1.864zM144.107 94.593c.515.355 1.039.872 1.574 1.55v-2.051h2.522v14.799c0 2.066-.304 3.697-.909 4.893-1.131 2.209-3.266 3.312-6.405 3.312-1.747 0-3.216-.393-4.407-1.178-1.191-.784-1.857-2.013-1.999-3.685h2.78c.131.729.393 1.292.786 1.687.614.608 1.581.912 2.901.912 2.085 0 3.45-.739 4.095-2.219.383-.871.56-2.426.529-4.664-.545.83-1.201 1.448-1.968 1.854s-1.781.607-3.042.607c-1.756 0-3.292-.625-4.608-1.876-1.317-1.251-1.976-3.32-1.976-6.207 0-2.725.663-4.853 1.99-6.382 1.327-1.53 2.929-2.294 4.806-2.294 1.273 0 2.382.314 3.331.942zm.334 2.932c-.826-.973-1.879-1.458-3.159-1.458-1.915 0-3.225.901-3.931 2.705-.373.962-.559 2.224-.559 3.783 0 1.834.37 3.229 1.11 4.187.741.957 1.736 1.436 2.986 1.436 1.955 0 3.33-.886 4.127-2.659.443-1.003.665-2.173.665-3.51.002-2.017-.412-3.511-1.239-4.484zM162.419 94.388c1.077.542 1.897 1.244 2.461 2.104.544.82.906 1.778 1.088 2.872.161.75.241 1.945.241 3.586h-11.836c.05 1.655.437 2.983 1.16 3.984.724 1 1.845 1.501 3.362 1.501 1.417 0 2.548-.474 3.393-1.42a4.85 4.85 0 0 0 1.004-1.908h2.689c-.071.598-.307 1.264-.707 1.998-.399.734-.847 1.335-1.339 1.801-.824.811-1.845 1.357-3.061 1.641-.654.162-1.393.243-2.217.243-2.014 0-3.72-.736-5.119-2.211-1.399-1.474-2.099-3.537-2.099-6.191 0-2.613.704-4.735 2.114-6.367 1.409-1.631 3.251-2.446 5.526-2.446 1.15 0 2.263.271 3.34.813zm.979 6.389c-.11-1.185-.367-2.132-.769-2.841-.743-1.316-1.984-1.975-3.722-1.975-1.245 0-2.29.454-3.134 1.36-.844.907-1.291 2.059-1.341 3.457h8.966z"/> -->
    <text x="50%" y="55%" text-anchor="middle" dominant-baseline="central" font-size="20px" font-weight="bold">No Image</text>
  </g>
  <path opacity=".1" fill="#FFF" d="M200 44.334L43.334 200H200z"/>
</svg>
