<?xml version="1.0" encoding="utf-8"?>
<!-- Generator: Adobe Illustrator 16.0.0, SVG Export Plug-In . SVG Version: 6.00 Build 0)  -->
<!DOCTYPE svg PUBLIC "-//W3C//DTD SVG 1.1//EN" "http://www.w3.org/Graphics/SVG/1.1/DTD/svg11.dtd">
<svg version="1.1" id="yahoo" xmlns="http://www.w3.org/2000/svg" xmlns:xlink="http://www.w3.org/1999/xlink" x="0px" y="0px"
	 width="253.957px" height="49.154px" viewBox="0.999 0 253.957 49.154" enable-background="new 0.999 0 253.957 49.154"
	 xml:space="preserve">
<g transform="translate(-156.15726,-367.21451)">
	<path fill="#333333" d="M364.89,383.153c-1.379-0.976-2.381-1.966-2.381-3.188h-7.674c0,2.198-1.003,3.188-2.239,3.188h-2.05
		v22.313h39.847v-22.313h-25.646H364.89z M362.508,389.528h-7.181v-3.188h7.97v2.565L362.508,389.528z M375.995,401.939
		c-4.546,0-8.246-3.652-8.246-8.141c0-4.488,3.7-7.951,8.246-7.951c4.547,0,8.245,3.463,8.245,7.951
		C384.241,398.287,380.542,401.939,375.995,401.939z M380.427,393.798c0,2.412-1.988,4.377-4.432,4.377s-4.432-1.965-4.432-4.377
		s1.988-4.375,4.432-4.375S380.427,391.386,380.427,393.798L380.427,393.798z M411.113,380.118l-9.919,25.29l-7.612-3.054v-4.311
		l5.286,2.164l6.98-17.793l-26.156-10.001l-2.425,7.552h-4.365l4.464-12.751L411.113,380.118L411.113,380.118z"/>
	<g transform="matrix(4.129044,0,0,4.129044,-488.6229,-1536.6294)">
		<path fill="#333333" d="M159.664,463.826c1.591-0.037,3.085,1.258,3.253,2.845c0.201,1.395-0.619,2.844-1.905,3.409
			c-0.779,0.387-1.659,0.268-2.497,0.288h-0.819v2.623H156.4c0.003-2.024-0.005-4.047,0.004-6.071
			c0.042-1.507,1.277-2.858,2.767-3.058C159.334,463.837,159.499,463.825,159.664,463.826L159.664,463.826z M159.664,469.071
			c0.935,0.023,1.812-0.706,1.952-1.633c0.186-0.933-0.409-1.935-1.318-2.214c-0.879-0.312-1.935,0.099-2.364,0.928
			c-0.333,0.567-0.215,1.237-0.237,1.861v1.058C158.352,469.071,159.008,469.071,159.664,469.071L159.664,469.071z"/>
		<path fill="#333333" d="M163.544,463.794h1.282v6.542h-1.282V463.794z"/>
		<path fill="#333333" d="M168.679,467.925h0.047l1.822,2.429h1.589l-2.476-3.364l2.196-3.177h-1.589l-1.542,2.243h-0.047
			l-1.542-2.243h-1.589l2.196,3.177l-2.476,3.364h1.589L168.679,467.925z"/>
		<path fill="#333333" d="M175.039,463.794c1.299-0.026,2.544,0.825,3.024,2.026c0.251,0.558,0.247,1.176,0.239,1.774v2.742
			c-1.157-0.004-2.314,0.008-3.472-0.006c-1.33-0.065-2.546-1.035-2.927-2.308c-0.349-1.107-0.059-2.392,0.763-3.218
			C173.281,464.169,174.153,463.786,175.039,463.794L175.039,463.794z M177.007,469.039c-0.006-0.728,0.012-1.456-0.01-2.182
			c-0.076-0.975-0.98-1.791-1.957-1.766c-0.93-0.023-1.807,0.699-1.952,1.62c-0.17,0.883,0.337,1.846,1.18,2.176
			c0.519,0.226,1.093,0.133,1.642,0.153C176.275,469.039,176.641,469.039,177.007,469.039L177.007,469.039z"/>
		<path fill="#333333" d="M182.206,463.826c1.535-0.038,2.971,1.17,3.215,2.683c0.277,1.433-0.532,2.982-1.867,3.572
			c-1.304,0.616-2.982,0.219-3.879-0.909c-0.556-0.655-0.795-1.526-0.748-2.375v-5.594h1.297v2.623
			C180.884,463.826,181.545,463.825,182.206,463.826L182.206,463.826z M182.206,469.071c0.985,0.026,1.885-0.801,1.957-1.781
			c0.123-0.973-0.599-1.953-1.562-2.13c-0.533-0.073-1.075-0.024-1.611-0.038h-0.766c0.008,0.739-0.018,1.48,0.015,2.218
			C180.342,468.316,181.225,469.09,182.206,469.071z"/>
		<path fill="#333333" d="M189.233,463.794c1.298-0.026,2.544,0.825,3.024,2.026c0.251,0.558,0.247,1.176,0.239,1.774v2.742
			c-1.157-0.004-2.314,0.008-3.471-0.006c-1.33-0.065-2.547-1.035-2.927-2.308c-0.349-1.107-0.059-2.392,0.763-3.218
			C187.474,464.169,188.347,463.786,189.233,463.794L189.233,463.794z M191.2,469.039c-0.006-0.728,0.012-1.456-0.01-2.182
			c-0.077-0.975-0.98-1.791-1.957-1.766c-0.93-0.023-1.807,0.699-1.952,1.62c-0.171,0.883,0.337,1.846,1.18,2.176
			c0.519,0.226,1.093,0.133,1.642,0.153C190.468,469.039,190.834,469.039,191.2,469.039L191.2,469.039z"/>
		<path fill="#333333" d="M199.633,463.81c-0.003,2.019,0.005,4.038-0.004,6.056c-0.047,1.589-1.412,3.016-3.006,3.1
			c-0.303,0.016-0.606,0.006-0.91,0.009v-1.296c0.553-0.003,1.145,0.053,1.635-0.26c0.612-0.343,1.001-1.036,0.987-1.736
			c-1.149,0.927-2.931,0.879-4.049-0.078c-0.814-0.657-1.259-1.715-1.197-2.756v-3.038h1.297c0.006,1.155-0.012,2.311,0.009,3.465
			c0.071,0.951,0.918,1.755,1.871,1.778c0.965,0.075,1.895-0.676,2.039-1.63c0.058-0.571,0.017-1.148,0.029-1.723v-1.89
			C198.768,463.81,199.2,463.81,199.633,463.81L199.633,463.81z"/>
	</g>
</g>
</svg>
