


<svg id="レイヤー_1" xmlns="http://www.w3.org/2000/svg" viewBox="0 0 24 24" >


<path  d="M12,2.5c-5.238,0-9.5,4.262-9.5,9.5c0,5.238,4.262,9.5,9.5,9.5c5.238,0,9.5-4.262,9.5-9.5
	C21.5,6.762,17.238,2.5,12,2.5z M12,20.5c-4.687,0-8.5-3.812-8.5-8.5c0-4.687,3.813-8.5,8.5-8.5c4.688,0,8.5,3.813,8.5,8.5
	C20.5,16.688,16.688,20.5,12,20.5z"/>
<path  d="M12,7.333c-1.378,0-2.5,1.122-2.5,2.5c0,0.276,0.224,0.5,0.5,0.5s0.5-0.224,0.5-0.5
	c0-0.827,0.673-1.5,1.5-1.5s1.5,0.673,1.5,1.5c0,0.526-0.294,0.832-0.77,1.153v0.001C12.156,11.373,11.5,11.95,11.5,13v0.25
	c0,0.275,0.224,0.5,0.5,0.5s0.5-0.225,0.5-0.5V13c0-0.545,0.303-0.857,0.79-1.185c0,0,0,0,0.001,0h0.001
	c0.36-0.245,1.208-0.818,1.208-1.981C14.5,8.455,13.379,7.333,12,7.333z"/>
<path  d="M11.997,15.375c-0.48,0.002-0.872,0.396-0.872,0.876c0,0.481,0.392,0.874,0.873,0.874H12
	c0.482,0,0.875-0.393,0.875-0.875S12.482,15.375,11.997,15.375z"/>
</svg>
