<?xml version="1.0" encoding="utf-8"?>
<!-- Generator: Adobe Illustrator 16.0.0, SVG Export Plug-In . SVG Version: 6.00 Build 0)  -->
<!DOCTYPE svg PUBLIC "-//W3C//DTD SVG 1.1//EN" "http://www.w3.org/Graphics/SVG/1.1/DTD/svg11.dtd">
<svg version="1.1" id="_x32_" xmlns="http://www.w3.org/2000/svg" xmlns:xlink="http://www.w3.org/1999/xlink" x="0px" y="0px"
	 width="512px" height="512px" viewBox="0 0 512 512" enable-background="new 0 0 512 512" xml:space="preserve">
<path d="M61.188,116.688c0,16.891-13.703,30.594-30.594,30.594C13.688,147.281,0,133.578,0,116.688
	s13.688-30.594,30.594-30.594C47.484,86.094,61.188,99.797,61.188,116.688z"/>
<path d="M512,116.688c0,16.891-13.688,30.594-30.594,30.594c-16.892,0-30.594-13.703-30.594-30.594
	s13.702-30.594,30.594-30.594C498.312,86.094,512,99.797,512,116.688z"/>
<path d="M286.594,65.438c0,16.891-13.703,30.578-30.594,30.578c-16.891,0-30.594-13.688-30.594-30.578
	c0-16.906,13.703-30.594,30.594-30.594C272.891,34.844,286.594,48.531,286.594,65.438z"/>
<polygon points="462.094,174.656 353.109,251.672 256,123.391 158.891,251.672 49.906,174.656 89.063,477.156 
	256,477.156 422.938,477.156 "/>
</svg>
