<?xml version="1.0" encoding="utf-8"?>
<!-- Generator: Adobe Illustrator 16.0.0, SVG Export Plug-In . SVG Version: 6.00 Build 0)  -->
<!DOCTYPE svg PUBLIC "-//W3C//DTD SVG 1.1//EN" "http://www.w3.org/Graphics/SVG/1.1/DTD/svg11.dtd">
<svg version="1.1" id="yahoo" xmlns="http://www.w3.org/2000/svg" xmlns:xlink="http://www.w3.org/1999/xlink" x="0px" y="0px"
	 width="50px" height="50px" viewBox="0 0 50 50" enable-background="new 0 0 50 50" xml:space="preserve">
<path d="M13.548,43.233c0,3.737-3.034,6.767-6.773,6.767C3.033,50,0,46.971,0,43.233s3.033-6.767,6.775-6.767
	C10.514,36.469,13.548,39.496,13.548,43.233z M0,17.042v10.023C12.604,27.193,22.833,37.41,22.962,50h10.036
	C32.869,31.854,18.169,17.171,0,17.042z M0,10.025C22.042,10.121,39.9,27.93,39.966,50H50C49.939,22.436,27.594,0.096,0,0V10.025z"
	/>
</svg>
