<?xml version="1.0" encoding="utf-8"?>
<!-- Generator: Adobe Illustrator 16.0.0, SVG Export Plug-In . SVG Version: 6.00 Build 0)  -->
<!DOCTYPE svg PUBLIC "-//W3C//DTD SVG 1.1//EN" "http://www.w3.org/Graphics/SVG/1.1/DTD/svg11.dtd">
<svg version="1.1" id="search" xmlns="http://www.w3.org/2000/svg" xmlns:xlink="http://www.w3.org/1999/xlink" x="0px" y="0px"
	 width="50px" height="50px" viewBox="0 0 50 50" enable-background="new 0 0 50 50" xml:space="preserve">
<path d="M48.381,44.495L38.062,34.172c2.685-3.512,4.301-7.882,4.301-12.635c0-11.507-9.36-20.866-20.863-20.866
	c-11.505,0-20.866,9.359-20.866,20.864C0.634,33.04,9.995,42.4,21.5,42.4c4.665,0,8.96-1.559,12.44-4.154l10.345,10.343
	c0.563,0.566,1.307,0.851,2.048,0.851c0.742,0,1.484-0.284,2.048-0.851c1.132-1.13,1.132-2.967,0-4.099V44.495z M5.271,21.534
	c0-8.948,7.279-16.227,16.229-16.227c8.949,0,16.226,7.278,16.226,16.227c0,8.947-7.281,16.228-16.226,16.228
	c-8.95,0-16.227-7.28-16.227-16.225L5.271,21.534z"/>
</svg>
