<!--?xml version="1.0" encoding="utf-8"?-->
<!-- Generator: Adobe Illustrator 18.0.0, SVG Export Plug-In . SVG Version: 6.00 Build 0)  -->

<svg version="1.1" id="_x31_0" xmlns="http://www.w3.org/2000/svg" xmlns:xlink="http://www.w3.org/1999/xlink" x="0px" y="0px" viewBox="0 0 512 512" style="width: 256px; height: 256px; opacity: 1;" xml:space="preserve">
<style type="text/css">
	.st0{fill:#374149;}
</style>
<g>
	<path class="st0" d="M256,201.332c-30.141,0-54.664,24.523-54.664,54.664c0,30.149,24.523,54.672,54.664,54.672
		c30.141,0,54.664-24.523,54.664-54.672C310.664,225.855,286.141,201.332,256,201.332z" style="fill: rgb(75, 75, 75);"></path>
	<path class="st0" d="M472.656,204l-58.73-3.586c-2.824-8.016-6.222-15.758-10.175-23.161l22.816-25.785
		c13.176-14.89,12.488-37.469-1.574-51.531l-12.93-12.93c-14.062-14.062-36.637-14.75-51.531-1.57l-25.781,22.816
		c-7.406-3.957-15.145-7.355-23.165-10.175l-3.582-58.73C306.652,17.242,288.332,0,266.183,0h-20.366
		c-22.149,0-40.473,17.242-41.821,39.348l-3.586,58.73c-8.016,2.82-15.758,6.218-23.16,10.175l-25.786-22.816
		c-14.89-13.18-37.469-12.492-51.531,1.57l-12.93,12.93c-14.062,14.062-14.75,36.641-1.57,51.531l22.817,25.785
		c-3.958,7.402-7.356,15.145-10.18,23.161L39.344,204C17.238,205.348,0,223.668,0,245.82v20.367
		c0,22.149,17.238,40.469,39.344,41.821l58.726,3.582c2.824,8.016,6.226,15.758,10.18,23.164l-22.817,25.782
		c-13.18,14.894-12.492,37.469,1.57,51.531l12.93,12.93c14.062,14.062,36.641,14.75,51.531,1.574l25.786-22.82
		c7.402,3.957,15.144,7.355,23.16,10.179l3.586,58.726c1.348,22.11,19.672,39.344,41.821,39.344h20.366
		c22.149,0,40.469-17.234,41.821-39.344l3.582-58.726c8.016-2.824,15.758-6.222,23.165-10.179l25.781,22.816
		c14.894,13.18,37.469,12.492,51.531-1.57l12.93-12.93c14.062-14.062,14.75-36.637,1.574-51.531l-22.816-25.782
		c3.953-7.406,7.351-15.144,10.175-23.164l58.73-3.582C494.762,306.656,512,288.336,512,266.187V245.82
		C512,223.668,494.762,205.348,472.656,204z M342.664,255.996c0,47.789-38.875,86.672-86.664,86.672
		c-47.789,0-86.664-38.883-86.664-86.672c0-47.785,38.875-86.664,86.664-86.664C303.789,169.332,342.664,208.211,342.664,255.996z" style="fill: rgb(75, 75, 75);"></path>
</g>
</svg>
