<?xml version="1.0" encoding="utf-8"?>
<!-- Generator: Adobe Illustrator 16.0.0, SVG Export Plug-In . SVG Version: 6.00 Build 0)  -->
<!DOCTYPE svg PUBLIC "-//W3C//DTD SVG 1.1//EN" "http://www.w3.org/Graphics/SVG/1.1/DTD/svg11.dtd">
<svg version="1.1" id="shine" xmlns="http://www.w3.org/2000/svg" xmlns:xlink="http://www.w3.org/1999/xlink" x="0px" y="0px"
	 width="50px" height="50px" viewBox="0 0 50 50" enable-background="new 0 0 50 50" xml:space="preserve">
<path d="M18.373,43.539c-0.538,0-1.013-0.349-1.175-0.861l-4.63-14.704l-11.099-4.58c-0.465-0.192-0.765-0.649-0.76-1.149
	c0.005-0.505,0.317-0.954,0.785-1.135l11.28-4.37L17.19,1.854c0.154-0.52,0.628-0.877,1.173-0.882c0.002,0,0.005,0,0.01,0
	c0.537,0,1.013,0.35,1.175,0.862l4.624,14.7l11.102,4.584c0.461,0.191,0.762,0.643,0.76,1.146c-0.002,0.502-0.311,0.95-0.775,1.135
	L24.07,27.873l-4.52,14.796c-0.157,0.515-0.634,0.87-1.172,0.87C18.377,43.539,18.375,43.539,18.373,43.539z M5.255,22.292
	l8.782,3.622c0.338,0.144,0.597,0.424,0.705,0.77l3.611,11.469l3.531-11.564c0.108-0.355,0.375-0.644,0.719-0.783l8.924-3.568
	l-8.826-3.648c-0.336-0.137-0.594-0.42-0.704-0.768L18.406,6.413l-3.443,11.604c-0.108,0.365-0.379,0.661-0.736,0.798L5.255,22.292z
	"/>
<path d="M38.102,48.542c-0.537,0-1.01-0.351-1.174-0.861l-2.74-8.696l-6.514-2.694c-0.467-0.189-0.77-0.645-0.766-1.148
	c0.006-0.506,0.318-0.956,0.787-1.136l6.613-2.564l2.609-8.788c0.154-0.517,0.633-0.875,1.174-0.88c0.002,0,0.008,0,0.01,0
	c0.539,0,1.012,0.351,1.174,0.861l2.734,8.692l6.518,2.693c0.465,0.188,0.766,0.643,0.764,1.145
	c-0.004,0.501-0.309,0.95-0.775,1.136l-6.561,2.626l-2.67,8.746c-0.158,0.515-0.635,0.87-1.176,0.872
	C38.104,48.542,38.104,48.542,38.102,48.542z M31.459,35.191l4.205,1.736c0.336,0.14,0.594,0.421,0.701,0.767l1.719,5.46l1.684-5.51
	c0.109-0.357,0.373-0.647,0.719-0.781l4.303-1.722l-4.252-1.757c-0.338-0.14-0.596-0.418-0.703-0.767l-1.699-5.4l-1.637,5.511
	c-0.104,0.363-0.375,0.661-0.734,0.796L31.459,35.191z"/>
</svg>
