<?xml version="1.0" encoding="utf-8"?>
<!-- Generator: Adobe Illustrator 16.0.0, SVG Export Plug-In . SVG Version: 6.00 Build 0)  -->
<!DOCTYPE svg PUBLIC "-//W3C//DTD SVG 1.1//EN" "http://www.w3.org/Graphics/SVG/1.1/DTD/svg11.dtd">
<svg version="1.1" id="tag" xmlns="http://www.w3.org/2000/svg" xmlns:xlink="http://www.w3.org/1999/xlink" x="0px" y="0px"
	 width="50px" height="50px" viewBox="0 0 50 50" enable-background="new 0 0 50 50" xml:space="preserve">
<path d="M46.502,14.648l-7.787-1.503l1.608-8.331c0.105-0.542-0.25-1.067-0.792-1.171c-0.537-0.104-1.067,0.25-1.171,0.792
	l-1.608,8.331L18.25,9.195l1.425-7.38c0.104-0.542-0.25-1.066-0.792-1.171c-0.544-0.104-1.067,0.25-1.171,0.792l-1.425,7.38
	L4.877,6.613C4.334,6.506,3.81,6.863,3.706,7.406c-0.104,0.542,0.25,1.067,0.792,1.171l11.409,2.202l-4.058,21.023l-7.972-1.539
	c-0.542-0.105-1.067,0.25-1.171,0.792s0.25,1.066,0.792,1.171l7.972,1.539l-1.794,9.295c-0.104,0.542,0.25,1.066,0.792,1.171
	c0.064,0.013,0.127,0.019,0.19,0.019c0.47,0,0.889-0.332,0.981-0.811l1.794-9.295l18.502,3.571l-1.61,8.345
	c-0.105,0.542,0.25,1.066,0.792,1.171c0.063,0.013,0.128,0.019,0.19,0.019c0.47,0,0.889-0.332,0.98-0.811l1.61-8.345l11.224,2.166
	c0.063,0.013,0.128,0.019,0.19,0.019c0.47,0,0.889-0.332,0.98-0.811c0.105-0.542-0.25-1.066-0.792-1.171l-11.224-2.166l4.058-21.022
	l7.787,1.503c0.063,0.012,0.128,0.018,0.19,0.018c0.47,0,0.889-0.332,0.98-0.811C47.399,15.278,47.044,14.753,46.502,14.648z
	 M32.315,35.753l-18.502-3.571l4.058-21.023l18.502,3.572L32.315,35.753z"/>
</svg>
