<?xml version="1.0" encoding="utf-8"?>
<!-- Generator: Adobe Illustrator 16.0.0, SVG Export Plug-In . SVG Version: 6.00 Build 0)  -->
<!DOCTYPE svg PUBLIC "-//W3C//DTD SVG 1.1//EN" "http://www.w3.org/Graphics/SVG/1.1/DTD/svg11.dtd">
<svg version="1.1" id="twitter" xmlns="http://www.w3.org/2000/svg" xmlns:xlink="http://www.w3.org/1999/xlink" x="0px" y="0px"
	 width="50px" height="50px" viewBox="0 0 50 50" enable-background="new 0 0 50 50" xml:space="preserve">
<g id="Icon">
	<path d="M49.575,9.78c-1.804,0.801-3.744,1.343-5.782,1.586c2.081-1.247,3.669-3.22,4.427-5.57
		c-1.942,1.153-4.097,1.992-6.395,2.444c-1.835-1.956-4.451-3.177-7.344-3.177c-5.56,0-10.067,4.506-10.067,10.064
		c0,0.788,0.089,1.557,0.264,2.295C16.31,17.001,8.894,12.993,3.931,6.903c-0.867,1.489-1.362,3.216-1.362,5.063
		c0,3.493,1.776,6.573,4.475,8.376c-1.649-0.053-3.204-0.503-4.562-1.259c0,0.043,0,0.083,0,0.129c0,4.876,3.468,8.943,8.075,9.867
		c-0.846,0.232-1.733,0.355-2.653,0.355c-0.648,0-1.278-0.062-1.893-0.176c1.282,3.994,5.001,6.906,9.401,6.986
		c-3.446,2.699-7.787,4.311-12.5,4.311c-0.811,0-1.613-0.049-2.403-0.143c4.456,2.855,9.745,4.523,15.429,4.523
		c18.513,0,28.639-15.338,28.639-28.639c0-0.436-0.013-0.871-0.031-1.303C46.518,13.57,48.225,11.799,49.575,9.78z"/>
</g>
</svg>
