<?xml version="1.0" encoding="utf-8"?>
<!-- Generator: Adobe Illustrator 16.0.0, SVG Export Plug-In . SVG Version: 6.00 Build 0)  -->
<!DOCTYPE svg PUBLIC "-//W3C//DTD SVG 1.1//EN" "http://www.w3.org/Graphics/SVG/1.1/DTD/svg11.dtd">
<svg version="1.1" id="yahoo" xmlns="http://www.w3.org/2000/svg" xmlns:xlink="http://www.w3.org/1999/xlink" x="0px" y="0px"
	 width="50px" height="50px" viewBox="0 0 50 50" enable-background="new 0 0 50 50" xml:space="preserve">
<path d="M32.25,27.376c0,4.079-3.323,7.25-7.251,7.25c-3.927,0-7.25-3.171-7.25-7.25s3.323-7.25,7.25-7.25
	C29.079,20.276,32.25,23.449,32.25,27.376L32.25,27.376z M49.168,16.197v22.508c0,3.474-2.87,6.495-6.495,6.495H7.326
	c-3.625,0-6.495-2.87-6.495-6.495V16.047c0-3.474,2.87-6.496,6.495-6.496h5.589l1.208-3.474c0.604-1.662,2.568-3.021,4.381-3.021
	h12.991c1.812,0,3.775,1.36,4.381,3.021l1.208,3.625h5.589C46.298,9.702,49.168,12.573,49.168,16.197z M36.178,27.526
	c0-6.192-4.985-11.329-11.329-11.329c-6.193,0-11.329,5.137-11.329,11.329c0,6.194,4.985,11.329,11.329,11.329
	C31.192,38.705,36.178,33.721,36.178,27.526z"/>
</svg>
