<!--?xml version="1.0" encoding="utf-8"?-->
<!-- Generator: Adobe Illustrator 19.1.1, SVG Export Plug-In . SVG Version: 6.00 Build 0)  -->
<svg version="1.1" id="_x31_0" xmlns="http://www.w3.org/2000/svg" xmlns:xlink="http://www.w3.org/1999/xlink" x="0px" y="0px" viewBox="0 0 512 512" style="width: 256px; height: 256px; opacity: 1;" xml:space="preserve">
<style type="text/css">
	.st0{fill:#374149;}
</style>
<g>
	<path class="st0" d="M291.814,377.801c-0.031,0.035-0.058,0.074-0.09,0.11c-0.016-0.07-0.02-0.145-0.031-0.215
		c-11.614,13.699-22.254,30.668-40.961,47.218c-34.84,30.668-68.43,41.723-108.555,41.864c-21.141,0.066-31.641,0.14-38.664,0.14
		c-0.766-2.855,33.383-20.445,42.977-42.355c8.07-18.496,9.668-40.469,3.758-60.496c-4.102-13.981-22.535-14.394-29.211-15.926
		c-1.042-0.278-2.156-0.348-3.335-0.348c-6.954,0-17.665,3.199-33.242,3.684h-0.695c-17.664,0-21.418-18.703-21.418-28.301
		c0-9.805-2.574-12.102-8.973-17.246c-6.465-5.149-3.613-8.207-1.527-11.614c0,0-0.277,0.07-0.629,0.07
		c-1.457,0-5.351-0.21-7.645-1.808c-2.785-2.086-1.808-9.043-2.434-19.821c0,0-7.863-2.293-18.148-6.187
		c-10.297-3.825-9.25-12.59-4.387-22.391c4.938-9.738,20.864-37,21.352-41.378c0.554-4.379-5.91-9.25-5.91-16.203
		c0-6.954-1.183-38.457,5.422-57.649c1.5-4.336,3.562-8.32,5.762-12.062c0.679-1.102,1.234-2.203,2.004-3.305
		c1.254,2.141,3.246,4.73,5.445,5.145c3.894,0.766,12.59,0.207,18.711,0.625c6.187,0.348,1.527,7.856,1.946,8.832
		c0.418,0.977-5.215,8.692-13.282,13.145c-8.137,4.449,17.734-1.184,19.262-1.394c1.531-0.137,0.973,5.426,1.18,6.191
		c0.141,0.766,4.246,11.402,8.277,16.828c4.031,5.356,7.301,8.622,11.406,10.989c4.031,2.293,10.57-2.157,13.699-1.184
		c0.363,0.114,0.672,0.355,0.946,0.68c0.019,0.019,0.039,0.035,0.058,0.054c1.965,2.469,1.734,10.051,2.402,16.793
		c0.836,7.719,17.176,44.574,17.176,44.574s10.988,2.156,11.406-0.207c0.07-0.558,0.206-1.461,0.414-2.714
		c-0.066-0.278-0.066-0.485-0.133-0.762c-3.133-18.848,3.961-39.298,18.426-53.203c1.879-1.805,5.356-6.047,8.414-10.082
		c-0.484-3.617-0.836-7.855-0.695-12.586c0.347-14.254,1.254-26.078,9.805-48.539c3.546-9.25,9.457-19.125,17.527-29.278
		c2.754-9.32,9.274-22.648,24.023-34.058c0.84-0.637,1.602-1.293,2.5-1.914l-0.023-0.019c0.047-0.031,0.082-0.066,0.129-0.098
		c-0.762-0.699-1.598-1.394-2.43-2.156c-8.414-7.653-22.535-9.25-32.965-9.25c-6.954,0-14.606,0.695-22.25,2.016
		c-4.312,0.695-8.972,1.598-13.633,2.434c-13.422,2.503-27.328,5.078-33.656,5.078c-1.324,0-1.809-0.07-1.949-0.141
		c-0.906-0.21-1.738-0.343-2.434-0.343c-3.618,0-5.008,2.57-5.774,4.168c-0.902,1.672-1.875,3.476-5.84,5.214
		c-1.875,0.836-3.336,1.254-4.313,1.254c-0.695,0-1.113-0.207-2.082-0.766c-1.531-0.766-3.688-1.809-7.305-1.809
		c-0.695,0-1.461,0-2.226,0.07c-6.258,0.695-8.626,3.687-10.985,6.606c-1.945,2.434-4.102,5.214-9.531,7.859
		c-5.492,2.71-12.859,4.519-19.328,6.187c-8.973,2.226-15.442,3.824-18.016,7.446c-1.179,1.664-4.378,3.332-7.785,5.144
		c-4.242,2.294-9.043,4.867-12.726,8.762c-7.856,8.343,0.484,17.594,5.496,23.152l1.805,2.367
		c-0.207,2.156-4.102,7.301-12.168,13.492l-2.157,1.668l1.602,4.73h3.614l0.211-0.14c2.57,0,8.133,0.766,12.308,3.617
		c-2.781,15.297-2.922,32.406-2.714,45.898v2.641c0,6.813,2.641,12.168,4.871,15.992c-2.715,5.426-7.653,14.465-10.782,20.172
		c-3.199,5.77-6.187,11.191-7.926,14.672c-5.492,10.984-6.61,20.234-3.41,28.301c1.879,4.797,6.122,11.266,15.926,14.953
		c3.199,1.184,6.117,2.223,8.691,3.129c0.207,7.79,1.042,15.574,8.347,20.934c0.066,0,0.141,0.066,0.274,0.133
		c1.254,4.73,4.246,9.043,8.973,12.801c0.695,0.555,2.434,1.946,3.199,2.711c0.07,0.414,0.141,1.25,0.141,2.782
		c0,4.171,0.554,14.953,5.843,24.824c6.395,11.965,17.242,18.5,30.594,18.5h1.117c9.942-0.278,17.867-1.531,24.266-2.574
		c3.477-0.554,6.817-1.113,8.485-1.179c1.531,0.343,3.199,0.625,4.938,0.902c3.406,0.555,12.449,2.016,13.21,4.657
		c4.871,16.343,3.758,34.633-3.058,50.21c-4.867,11.13-21.141,22.879-29.973,29.278c-2.641,1.946-4.938,3.618-6.676,5.008
		c-1.457,1.183-2.574,2.293-3.476,3.266c-5.215,6.05-4.238,12.382-3.614,14.813l3.058,11.129h11.473
		c5.008,0,38.734-0.207,38.734-0.207c46.313-0.141,82.824-14.258,118.43-45.621c9.664-8.485,17.246-17.039,23.852-25.102
		c1.945-5.29,4.172-10.711,6.606-15.926c1.742-3.773,1.742-9.222,1.023-14.402C292.049,379.77,291.978,378.816,291.814,377.801z" style="fill: rgb(75, 75, 75);"></path>
	<path class="st0" d="M476.045,188.195c1.528,0.141,2.989,0.282,4.383,0.282c32.336,0,33.098-42.489,25.59-59.391
		c0,0,10.566-8.137,3.614-33.656c-4.52-16.969-18.914-22.738-30.805-22.738c-5.813,0-10.934,1.367-14.102,3.446
		c-0.137,0.078-0.309,0.14-0.438,0.222c-2.926-7.566-8.278-10.137-13.836-10.137c-7.066,0-14.32,4.18-17.129,7.57
		c-0.187,0.203-0.398,0.414-0.554,0.614c-8.637-11.688-36.375-32.25-80.09-36.559c-6.187-0.625-12.098-0.902-17.73-0.902
		c-34.562,0-60.293,10.57-83.242,21.559c-2.64,1.25-4.937,2.574-7.094,3.961c-13.629,8.766-17.523,19.266-18.774,24.691
		c-0.21,0.691-0.07,1.457,0.207,2.082c-7.023,8-14.254,17.805-17.941,27.398c-7.161,18.781-7.719,27.195-7.997,39.363
		c-0.206,7.023,1.114,12.449,2.086,16.344c0.137,0.554,0.277,1.25,0.414,1.804c-0.902,1.531-2.5,3.825-4.308,6.332
		c-4.383,6.047-10.5,13.766-14.465,17.524c-7.926,7.718-11.891,18.633-10.223,28.648c1.254,7.582,5.492,14.051,12.031,18.57
		c-0.206,0.762-0.347,1.457-0.488,2.289c-0.695,4.805,0.282,11.477,3.481,17.321c-2.227,5.91-1.95,12.586,0.832,18.289
		c1.668,3.336,4.102,6.188,7.023,8.203c-0.554,2.992-0.902,6.539-0.695,10.641c1.598,31.226,25.73,34.629,36.09,34.629
		c1.394,0,2.926-0.066,4.453-0.207c6.118-0.414,13.211-1.32,20.723-2.226c7.164-0.902,14.465-1.805,20.793-2.363
		c3.129-0.207,6.047-0.348,8.554-0.348c3.13,0,4.52,0.211,5.004,0.348c3.828,0.836,13.562,2.922,22.461,23.782
		c0.282,0.769,0.63,1.534,0.977,2.367c0.278,0.766,0.625,1.601,0.902,2.437c0.629,1.738,2.156,6.395,3.34,12.516
		c1.809,9.527,2.57,22.668-2.852,34.145c-10.015,21.277-15.301,45.965-17.038,55.562c-0.902,4.797,0.347,9.734,3.476,13.488
		c3.133,3.758,7.719,5.914,12.657,5.914c3.894,0,7.722-1.391,10.71-3.965c1.043-0.902,2.504-2.157,4.242-3.688
		c12.656-11.054,42.211-36.992,81.082-63.144c24.691-16.618,53.828-19.051,54.105-19.051l22.063-1.547l15.523-0.976l-0.121-0.102
		l0.226-0.016l-28.582-24.691c-9.875-8.55-27.121-26.699-31.504-38.73c-11.266-31.574-11.332-36.582-0.418-54.172
		c0.77-1.183,1.672-2.645,2.645-4.242c8.277-5.078,17.664-12.66,23.507-27.191c6.047-15.023,5.356-28.859,3.821-37.832
		c1.042-4.938,1.812-9.805,2.297-14.602C475.279,188.125,475.627,188.125,476.045,188.195z M464.299,376.59
		c-1.375,0.106-33.383,2.707-61.622,21.688c-43.125,29.042-74.906,57.64-85.511,66.839l-1.458,1.172
		c-0.117,0.062-0.234,0.141-0.374,0.141c-0.223,0-0.43-0.106-0.594-0.254c-0.031-0.043-0.066-0.129-0.098-0.184
		c-0.098-0.16-0.191-0.324-0.14-0.535c1.39-7.511,6.398-31.644,15.855-51.809c7.855-16.691,6.187-35.258,3.129-48.262
		c-0.973-4.102-2.156-7.652-3.129-10.363c-1.39-3.89-2.922-7.367-4.453-10.5c-9.524-19.402-21.141-25.801-31.223-27.957
		c-2.222-0.485-5.074-0.695-8.274-0.695h-0.976c-4.59,0.074-9.946,0.492-15.574,1.046c-11.961,1.321-25.035,3.266-34.633,3.962
		c-1.184,0.07-2.293,0.14-3.34,0.14c-17.106,0-20.027-10.43-20.512-19.82c-0.418-8.133,2.434-13.211,2.434-16.203
		c0-2.918-2.434-4.867-6.469-5.633c-4.101-0.836-5.699-5.906-3.824-9.734c0.489-1.043,1.25-1.738,2.226-2.226
		c1.462-0.766,3.406-1.043,5.493-1.043c1.25,0,2.558,0.137,3.859,0.274c0.328,0.074,0.664,0.106,0.984,0.207
		c-0.004-0.004-0.156-0.114-0.21-0.153c0.102,0.012,0.203,0.008,0.305,0.02c0,0-2.993-2.223-6.746-4.172
		c-1.043-0.558-2.086-1.043-3.199-1.527c-5.145-2.157-5.906-9.391-5.633-11.34c0.211-1.875,2.645-2.918,5.633-6.954
		c0.418-0.554,0.77-0.969,0.977-1.386c1.038-1.394,1.113-1.95-0.766-2.992c-1.532-0.902-4.379-2.086-9.11-4.242
		c-12.102-5.703-9.668-18.082-2.715-24.828c3.618-3.477,9.039-9.942,13.703-16.199c4.586-5.985,8.414-11.824,9.523-14.539
		c2.157-5.699-2.43-11.61-2.152-22.11c0.278-10.504,0.485-17.246,7.023-34.214c3.754-9.946,13.211-21.141,20.653-28.863
		c2.988,0.77,5.77,1.602,7.785,2.714c7.375,4.102,13.286,17.039,14.258,22.738c0.976,5.637,3.546,12.238,9.113,21.906
		c5.629,9.668,7.719,6.61,16.687,16.554c8.833,9.875,3.966,19.258,6.817,27.742c0.207,6.121,0.554,11.336,1.043,13.492
		c0.137,0.066,0.277,0.141,0.418,0.348c0,0.07,0.066,0.21,0.066,0.277c0.211,1.325,0.766,2.922,1.531,4.801c0,0,0,0,0,0.066
		c3.11,7.489,9.539,17.821,11.68,21.188c0.355,0.617,0.61,1.074,0.613,1.156l0.035-0.141c0.028,0.043,0.122,0.188,0.122,0.188
		l0.277-1.18c4.313-17.523,13.906-33.313,27.746-44.851c2.016-1.672,3.824-3.059,5.352-3.965c5.984-3.477,11.476-6.887,18.082-6.887
		c4.73,0,9.946,1.672,16.344,6.191c12.168,8.692,17.179,34.004,10.222,50.973c-9.805,23.711,3.824,34.004,4.52,49.653
		c0.554,13.422,11.266,6.606,13.839,12.863c1.039,2.574,5.145,6.676,9.528,10.5c1.042,8.484,4.238,18.293,9.038,31.644
		c6.153,17.286,27.406,37.528,33.958,43.485C463.447,375.754,464.092,376.367,464.299,376.59z" style="fill: rgb(75, 75, 75);"></path>
	<path class="st0" d="M373.611,268.375c-2.992-0.485-5.77,1.531-6.262,4.523l-0.066,0.414c0,0,0,0.145-0.066,0.422
		c0,0.274-0.074,0.691-0.211,1.25c-0.14,0.555-0.347,1.18-0.625,2.016c-0.21,0.418-0.418,0.836-0.629,1.254
		c-0.207,0.418-0.484,0.902-0.766,1.387c-0.344,0.488-0.695,0.976-1.043,1.531c-0.347,0.488-0.762,1.042-1.179,1.602
		c-0.906,1.042-1.879,2.156-2.992,3.266c-1.114,1.113-2.364,2.226-3.618,3.339c-1.32,1.114-2.641,2.227-4.031,3.2
		c-5.633,4.242-11.89,7.785-16.618,10.289c-1.742,0.836-3.273,1.602-4.453,2.16c-0.488,0.207-0.902,0.414-1.32,0.554
		c-0.695,0.278-1.184,0.489-1.531,0.626c-0.418,0.137-0.626,0.206-0.626,0.206h-0.07c-1.183,0.418-1.878,1.602-1.601,2.782
		c0.277,1.324,1.601,2.156,2.851,1.879c0,0,0.211-0.066,0.695-0.207c0.488-0.07,1.184-0.278,1.95-0.558
		c1.042-0.278,2.293-0.762,3.754-1.25c0.836-0.281,1.738-0.625,2.711-0.977c5.218-2.011,12.031-5.07,18.57-8.969
		c1.598-0.972,3.195-2.015,4.797-3.058c1.531-1.042,3.058-2.156,4.519-3.34c1.39-1.179,2.786-2.363,4.035-3.613
		c0.137-0.141,0.348-0.348,0.414-0.489c0.492-0.484,0.906-0.902,1.324-1.39c0.554-0.625,1.043-1.25,1.598-1.875
		c0.418-0.695,0.902-1.324,1.32-1.878c0.418-0.695,0.77-1.321,1.114-1.879c0.625-1.25,1.183-2.293,1.531-3.336
		c0.348-0.906,0.558-1.738,0.695-2.297c0.137-0.554,0.207-0.906,0.207-0.906c0.07-0.137,0.07-0.273,0.141-0.414
		C378.615,271.645,376.534,268.863,373.611,268.375z" style="fill: rgb(75, 75, 75);"></path>
	<path class="st0" d="M163.943,334.16c-0.343,0.211-0.554,0.278-0.554,0.278l-0.07,0.074c-0.695,0.343-1.043,1.179-0.762,1.945
		c0.344,0.766,1.25,1.18,2.015,0.836c0,0,0.207-0.07,0.626-0.281c0.484-0.207,1.113-0.485,1.878-0.836
		c1.458-0.762,3.543-1.946,5.977-3.402c0.629-0.352,1.254-0.766,1.95-1.254c3.48-2.152,7.582-4.938,11.542-8.137
		c0.629-0.484,1.325-0.972,1.95-1.527c-0.41-1.629-0.598-3.289-0.754-4.996c0-0.301-0.046-0.578-0.023-0.886
		c-0.027,0.031-0.07,0.07-0.094,0.102c-0.008-0.07-0.027-0.133-0.031-0.203c-0.282,0.351-0.629,0.695-0.977,1.046
		c-0.625,0.555-1.179,1.18-1.809,1.668v0.07c-3.824,3.547-7.926,6.813-11.472,9.387c-0.766,0.625-1.531,1.179-2.298,1.668
		c-2.293,1.531-4.167,2.781-5.562,3.617C164.779,333.746,164.295,334.023,163.943,334.16z" style="fill: rgb(75, 75, 75);"></path>
</g>
</svg>
