<?xml version="1.0" encoding="utf-8"?>
<!-- Generator: Adobe Illustrator 16.0.0, SVG Export Plug-In . SVG Version: 6.00 Build 0)  -->
<!DOCTYPE svg PUBLIC "-//W3C//DTD SVG 1.1//EN" "http://www.w3.org/Graphics/SVG/1.1/DTD/svg11.dtd">
<svg version="1.1" id="yahoo" xmlns="http://www.w3.org/2000/svg" xmlns:xlink="http://www.w3.org/1999/xlink" x="0px" y="0px"
	 width="50px" height="50px" viewBox="0 0 50 50" enable-background="new 0 0 50 50" xml:space="preserve">
<path d="M21.488,13.258l0.304-2.877H0.452v2.877l6.353,0.449l12.261,14.684v7.718l-6.964,0.458v2.569h21.19v-2.569l-6.964-0.304
	l0.305-8.021l11.65-10.445l6.208-0.605v-3.181l-17.858,0.152v2.875l6.659,0.153l-8.624,7.413l-8.929-10.898L21.488,13.258z"/>
<path d="M49.529,21.375l-5.623-0.255L43.65,34.514l2.642,0.253L49.529,21.375L49.529,21.375z M43.301,39.376h3.247v-2.734
	l-3.503-0.259L43.301,39.376L43.301,39.376z"/>
</svg>
