<svg style="display: none;" id="application" version="1.1" xmlns="http://www.w3.org/2000/svg"><symbol id="application-search" viewBox="0 0 50 50" xmlns:xlink="http://www.w3.org/1999/xlink">
<path d="M48.381,44.495L38.062,34.172c2.685-3.512,4.301-7.882,4.301-12.635c0-11.507-9.36-20.866-20.863-20.866
	c-11.505,0-20.866,9.359-20.866,20.864C0.634,33.04,9.995,42.4,21.5,42.4c4.665,0,8.96-1.559,12.44-4.154l10.345,10.343
	c0.563,0.566,1.307,0.851,2.048,0.851c0.742,0,1.484-0.284,2.048-0.851c1.132-1.13,1.132-2.967,0-4.099V44.495z M5.271,21.534
	c0-8.948,7.279-16.227,16.229-16.227c8.949,0,16.226,7.278,16.226,16.227c0,8.947-7.281,16.228-16.226,16.228
	c-8.95,0-16.227-7.28-16.227-16.225L5.271,21.534z"/>
</symbol><symbol id="application-user" viewBox="0 0 512 512" xmlns:xlink="http://www.w3.org/1999/xlink">
<g>
	<path class="st0" d="M159.131,169.721c5.635,58.338,43.367,96.867,96.871,96.867c53.502,0,91.23-38.53,96.867-96.867l7.988-63.029
		C365.812,44.768,315.281,0,256.002,0c-59.281,0-109.812,44.768-104.86,106.692L159.131,169.721z"></path>
	<path class="st0" d="M463.213,422.569l-3.824-24.35c-3.203-20.417-16.035-38.042-34.475-47.361l-80.473-40.693
		c-2.519-1.274-4.57-3.194-6.289-5.338c-23.297,24.632-51.6,39.12-82.15,39.12c-30.549,0-58.856-14.488-82.152-39.12
		c-1.719,2.144-3.77,4.064-6.289,5.338l-80.472,40.693c-18.442,9.319-31.272,26.944-34.475,47.361l-3.826,24.35
		c-1.363,8.692,0.436,21.448,8.222,27.825C67.42,458.907,105.875,512,256.002,512c150.125,0,188.578-53.093,198.988-61.606
		C462.779,444.017,464.576,431.261,463.213,422.569z"></path>
</g>
</symbol><symbol id="application-home" viewBox="0 0 50 50" xmlns:xlink="http://www.w3.org/1999/xlink">
<path d="M49.457,25.503L26.061,2.106c-0.562-0.562-1.559-0.562-2.121,0L0.543,25.503c-0.586,0.586-0.586,1.535,0,2.121
	s1.535,0.586,2.121,0l1.886-1.886v19.743c0,1.504,1.224,2.728,2.728,2.728h34.985c1.504,0,2.728-1.224,2.728-2.728V25.278
	l2.346,2.346c0.293,0.293,0.677,0.439,1.061,0.439s0.768-0.146,1.061-0.439C50.043,27.038,50.043,26.089,49.457,25.503z
	 M32.124,45.209H17.416V33.33c0-3.655,2.974-6.628,6.629-6.628h1.451c3.655,0,6.628,2.973,6.628,6.628V45.209z M41.99,45.209h-6.866
	V33.33c0-5.31-4.319-9.628-9.628-9.628h-1.451c-5.31,0-9.629,4.319-9.629,9.628v11.879H7.55V22.738L25,5.288l16.99,16.99V45.209z"/>
</symbol><symbol id="application-github" viewBox="0 0 50 50" xmlns:xlink="http://www.w3.org/1999/xlink">
<path d="M25,0.865c-13.663,0-24.742,11.08-24.742,24.747c0,10.93,7.089,20.202,16.924,23.482c1.238,0.22,1.688-0.546,1.688-1.196
	c0-0.587-0.02-2.146-0.034-4.208c-6.884,1.497-8.337-3.319-8.337-3.319c-1.125-2.857-2.749-3.618-2.749-3.618
	c-2.247-1.536,0.171-1.51,0.171-1.51c2.482,0.182,3.79,2.552,3.79,2.552c2.208,3.784,5.792,2.691,7.201,2.06
	c0.225-1.602,0.866-2.69,1.57-3.302c-5.494-0.632-11.274-2.758-11.274-12.237c0-2.701,0.965-4.913,2.548-6.64
	c-0.255-0.626-1.102-3.139,0.244-6.549c0,0,2.078-0.667,6.804,2.536c1.972-0.549,4.09-0.822,6.197-0.832
	c2.099,0.01,4.215,0.282,6.191,0.832c4.731-3.202,6.801-2.536,6.801-2.536c1.351,3.407,0.499,5.923,0.245,6.549
	c1.587,1.727,2.546,3.938,2.546,6.64c0,9.511-5.787,11.6-11.299,12.211c0.886,0.764,1.678,2.273,1.678,4.585
	c0,3.305-0.029,5.974-0.029,6.786c0,0.66,0.448,1.431,1.7,1.191c9.824-3.28,16.909-12.548,16.909-23.478
	C49.747,11.945,38.67,0.865,25,0.865z"/>
</symbol><symbol id="application-feedly" viewBox="0 0 50 50" xmlns:xlink="http://www.w3.org/1999/xlink">
<path d="M47.814,31.305L34.439,44.67c-0.979,0.978-2.331,1.582-3.823,1.582H19.157c-1.358,0-2.6-0.502-3.55-1.328L1.968,31.295
	c-2.093-2.09-2.093-5.512,0-7.602L21.082,4.593c2.093-2.09,5.516-2.09,7.607,0l19.125,19.109
	C49.906,25.792,49.906,29.214,47.814,31.305z M28.157,15.529l-2.729-2.727c-0.298-0.297-0.787-0.297-1.085,0L10.175,26.961
	c-0.298,0.297-0.298,0.786,0,1.083l1.947,1.945c0.135,0.117,0.312,0.188,0.505,0.188h1.635c0.212,0,0.406-0.086,0.545-0.227
	l13.349-13.337C28.456,16.316,28.456,15.828,28.157,15.529z M28.157,26.963l-2.728-2.729c-0.299-0.298-0.788-0.298-1.086,0
	l-8.447,8.441c-0.298,0.298-0.298,0.787,0,1.086l1.946,1.942c0.135,0.119,0.313,0.189,0.507,0.189h1.635
	c0.213,0,0.405-0.085,0.545-0.226l7.629-7.622C28.456,27.747,28.456,27.26,28.157,26.963z M28.157,38.393l-2.729-2.726
	c-0.298-0.299-0.787-0.299-1.085,0l-2.727,2.726c-0.297,0.298-0.297,0.787,0,1.083l1.947,1.945c0.136,0.117,0.312,0.189,0.506,0.189
	h1.635c0.213,0,0.406-0.086,0.546-0.227l1.907-1.905C28.456,39.181,28.456,38.69,28.157,38.393z"/>
</symbol><symbol id="application-tag" viewBox="0 0 50 50" xmlns:xlink="http://www.w3.org/1999/xlink">
<path d="M46.502,14.648l-7.787-1.503l1.608-8.331c0.105-0.542-0.25-1.067-0.792-1.171c-0.537-0.104-1.067,0.25-1.171,0.792
	l-1.608,8.331L18.25,9.195l1.425-7.38c0.104-0.542-0.25-1.066-0.792-1.171c-0.544-0.104-1.067,0.25-1.171,0.792l-1.425,7.38
	L4.877,6.613C4.334,6.506,3.81,6.863,3.706,7.406c-0.104,0.542,0.25,1.067,0.792,1.171l11.409,2.202l-4.058,21.023l-7.972-1.539
	c-0.542-0.105-1.067,0.25-1.171,0.792s0.25,1.066,0.792,1.171l7.972,1.539l-1.794,9.295c-0.104,0.542,0.25,1.066,0.792,1.171
	c0.064,0.013,0.127,0.019,0.19,0.019c0.47,0,0.889-0.332,0.981-0.811l1.794-9.295l18.502,3.571l-1.61,8.345
	c-0.105,0.542,0.25,1.066,0.792,1.171c0.063,0.013,0.128,0.019,0.19,0.019c0.47,0,0.889-0.332,0.98-0.811l1.61-8.345l11.224,2.166
	c0.063,0.013,0.128,0.019,0.19,0.019c0.47,0,0.889-0.332,0.98-0.811c0.105-0.542-0.25-1.066-0.792-1.171l-11.224-2.166l4.058-21.022
	l7.787,1.503c0.063,0.012,0.128,0.018,0.19,0.018c0.47,0,0.889-0.332,0.98-0.811C47.399,15.278,47.044,14.753,46.502,14.648z
	 M32.315,35.753l-18.502-3.571l4.058-21.023l18.502,3.572L32.315,35.753z"/>
</symbol><symbol id="application-comments" viewBox="0 0 50 50" xmlns:xlink="http://www.w3.org/1999/xlink">
<g>
	<path d="M9.881,37.965l2.424-5.422l-1.109-0.567c-2.384-1.22-4.339-2.881-5.684-4.794c-1.347-1.916-2.089-4.07-2.091-6.368
		c0-1.803,0.459-3.515,1.304-5.097c1.267-2.373,3.422-4.445,6.187-5.923c2.763-1.478,6.127-2.354,9.761-2.354
		c3.885,0,7.452,1.004,10.308,2.673c2.86,1.669,4.994,3.994,6.082,6.616l2.425-1.008c-1.347-3.237-3.904-5.961-7.182-7.875
		c-3.28-1.916-7.296-3.03-11.633-3.03C15.266,4.817,10.347,6.544,6.731,9.4c-1.806,1.429-3.288,3.146-4.321,5.079
		c-1.034,1.931-1.615,4.083-1.614,6.335c-0.001,2.875,0.947,5.577,2.57,7.88c1.4,1.989,3.299,3.689,5.543,5.014l-3.324,7.433
		l2.281-0.255c4.682-0.521,9.236-1.633,13.016-2.767l-0.754-2.515C17.088,36.517,13.54,37.403,9.881,37.965z"/>
	<path d="M47.362,35.575c1.188-1.681,1.887-3.671,1.885-5.784c0.002-1.657-0.427-3.242-1.184-4.656
		c-1.139-2.124-2.999-3.876-5.289-5.1c-2.291-1.224-5.021-1.925-7.946-1.926c-3.899,0.001-7.454,1.245-10.082,3.32
		c-1.312,1.039-2.394,2.291-3.152,3.706c-0.757,1.414-1.186,2.999-1.185,4.656c-0.002,2.535,1.001,4.879,2.642,6.749
		c1.625,1.856,3.87,3.277,6.463,4.109c2.695,1.044,8.365,3.031,14.312,3.696l2.282,0.254l-2.491-5.565
		C45.116,38.102,46.401,36.94,47.362,35.575z M41.341,37.326l-1.108,0.568l1.572,3.512c-4.728-0.804-9.127-2.343-11.34-3.205
		l-0.04-0.016l-0.041-0.014c-2.214-0.694-4.074-1.894-5.355-3.359c-1.283-1.473-1.992-3.185-1.993-5.021
		c0-1.206,0.306-2.352,0.874-3.418c0.853-1.596,2.315-3.011,4.21-4.021c1.893-1.013,4.205-1.617,6.709-1.616
		c3.338-0.001,6.338,1.076,8.452,2.752c1.06,0.838,1.897,1.821,2.465,2.885c0.571,1.066,0.875,2.212,0.875,3.418
		c0,1.536-0.496,2.977-1.403,4.273C44.306,35.357,42.976,36.491,41.341,37.326z"/>
</g>
</symbol><symbol id="application-pin" viewBox="0 0 50 50" xmlns:xlink="http://www.w3.org/1999/xlink">
<g>
	<path d="M24.704,1.332c-7.726,0-14.013,6.29-14.013,14.012c0,7.41,14.013,33.34,14.013,33.34s14.013-25.93,14.013-33.34
		C38.717,7.619,32.43,1.332,24.704,1.332z M24.704,20.656c-2.938,0-5.319-2.374-5.319-5.313c0-2.932,2.381-5.317,5.319-5.317
		c2.937,0,5.309,2.385,5.309,5.317C30.013,18.283,27.641,20.656,24.704,20.656z"/>
</g>
</symbol><symbol id="application-carender" viewBox="0 0 50 50" xmlns:xlink="http://www.w3.org/1999/xlink">
<path d="M17.397,20.32h6.239v6.24h-6.239V20.32z M26.554,20.32h6.238v6.24h-6.238V20.32z M35.704,20.32h6.241v6.24h-6.241V20.32z
	 M8.246,28.511h6.241v6.241H8.246V28.511z M17.397,28.511h6.239v6.241h-6.239V28.511z M26.554,28.511h6.238v6.241h-6.238V28.511z
	 M35.704,28.511h6.241v6.241h-6.241V28.511z M8.246,37.247h6.241v6.241H8.246V37.247z M17.397,37.247h6.239v6.241h-6.239V37.247z
	 M26.554,37.247h6.238v6.241h-6.238V37.247z M35.704,37.247h6.241v6.241h-6.241V37.247z"/>
<path fill="none" d="M4.968,18.448h40.333v26.757H4.968V18.448z"/>
<path d="M41.009,6.043v6.942H30.478V6.043H19.323v6.942H8.793V6.043H1.068v43.061h48.13V6.043H41.009L41.009,6.043z M45.301,45.205
	H4.968V18.447h40.333V45.205L45.301,45.205z"/>
<path d="M10.352,0.896h7.645v10.765H10.35L10.352,0.896z M31.958,0.896h7.648v10.765H31.96L31.958,0.896z"/>
</symbol><symbol id="application-check" viewBox="0 0 50 50" xmlns:xlink="http://www.w3.org/1999/xlink">
<polygon points="48.618,13.136 44.028,8.546 19.355,33.22 5.652,19.516 1.062,24.105 19.411,42.453 "/>
</symbol><symbol id="application-ranking" viewBox="0 0 512 512" xmlns:xlink="http://www.w3.org/1999/xlink">
<path d="M61.188,116.688c0,16.891-13.703,30.594-30.594,30.594C13.688,147.281,0,133.578,0,116.688
	s13.688-30.594,30.594-30.594C47.484,86.094,61.188,99.797,61.188,116.688z"/>
<path d="M512,116.688c0,16.891-13.688,30.594-30.594,30.594c-16.892,0-30.594-13.703-30.594-30.594
	s13.702-30.594,30.594-30.594C498.312,86.094,512,99.797,512,116.688z"/>
<path d="M286.594,65.438c0,16.891-13.703,30.578-30.594,30.578c-16.891,0-30.594-13.688-30.594-30.578
	c0-16.906,13.703-30.594,30.594-30.594C272.891,34.844,286.594,48.531,286.594,65.438z"/>
<polygon points="462.094,174.656 353.109,251.672 256,123.391 158.891,251.672 49.906,174.656 89.063,477.156 
	256,477.156 422.938,477.156 "/>
</symbol><symbol id="application-rss" viewBox="0 0 50 50" xmlns:xlink="http://www.w3.org/1999/xlink">
<path d="M13.548,43.233c0,3.737-3.034,6.767-6.773,6.767C3.033,50,0,46.971,0,43.233s3.033-6.767,6.775-6.767
	C10.514,36.469,13.548,39.496,13.548,43.233z M0,17.042v10.023C12.604,27.193,22.833,37.41,22.962,50h10.036
	C32.869,31.854,18.169,17.171,0,17.042z M0,10.025C22.042,10.121,39.9,27.93,39.966,50H50C49.939,22.436,27.594,0.096,0,0V10.025z"
	/>
</symbol><symbol id="application-close" viewBox="0 0 50 50" xmlns:xlink="http://www.w3.org/1999/xlink">
<path d="M28.464,24.981l19.78-19.78c0.951-0.952,0.951-2.49,0-3.442c-0.95-0.952-2.491-0.952-3.441,0l-19.78,19.78L5.242,1.757
	c-0.952-0.952-2.49-0.952-3.442,0s-0.952,2.49,0,3.442l19.78,19.78L1.8,44.76c-0.952,0.953-0.952,2.488,0,3.442
	c0.474,0.473,1.098,0.713,1.721,0.713c0.623,0,1.247-0.24,1.721-0.713l19.781-19.78l19.78,19.78
	c0.476,0.473,1.098,0.713,1.721,0.713s1.246-0.24,1.721-0.713c0.951-0.954,0.951-2.489,0-3.442L28.464,24.981z"/>
</symbol><symbol id="application-refresh" viewBox="0 0 512 512" xmlns:xlink="http://www.w3.org/1999/xlink">
<g>
	<path class="st0" d="M403.925,108.102c-27.595-27.595-62.899-47.558-102.459-56.29L304.182,0L201.946,53.867l-27.306,14.454
		l-5.066,2.654l8.076,4.331l38.16,20.542l81.029,43.602l2.277-42.859c28.265,7.546,53.438,22.53,73.623,42.638
		c29.94,29.939,48.358,71.119,48.358,116.776c0,23.407-4.843,45.58-13.575,65.687l40.37,17.532
		c11.076-25.463,17.242-53.637,17.242-83.219C465.212,198.306,441.727,145.904,403.925,108.102z"></path>
	<path class="st0" d="M296.256,416.151l-81.101-43.612l-2.272,42.869c-28.26-7.555-53.51-22.53-73.618-42.636
		c-29.945-29.95-48.364-71.12-48.364-116.767c0-23.427,4.844-45.522,13.576-65.697l-40.37-17.531
		c-11.076,25.53-17.242,53.723-17.242,83.228c0,57.679,23.407,110.157,61.21,147.893c27.595,27.594,62.899,47.548,102.453,56.202
		l-2.716,51.9l102.169-53.878l27.455-14.454l4.988-2.643l-7.999-4.332L296.256,416.151z"></path>
</g>
</symbol><symbol id="application-denied" viewBox="0 0 50 50" xmlns:xlink="http://www.w3.org/1999/xlink">
<path d="M25,0.751C11.63,0.751,0.751,11.63,0.751,25C0.751,38.372,11.63,49.249,25,49.249c13.372,0,24.249-10.877,24.249-24.249
	C49.249,11.63,38.372,0.751,25,0.751z M5.684,25c0-4.385,1.487-8.42,3.956-11.663l27.022,27.024
	C33.42,42.833,29.384,44.316,25,44.316C14.351,44.316,5.684,35.65,5.684,25z M40.184,36.903L13.097,9.817
	C16.382,7.237,20.509,5.684,25,5.684c10.65,0,19.316,8.667,19.316,19.316C44.316,29.489,42.763,33.618,40.184,36.903z"/>
</symbol><symbol id="application-crown" viewBox="0 0 50 50" xmlns:xlink="http://www.w3.org/1999/xlink">
<circle cx="3.363" cy="11.418" r="2.937"/>
<circle cx="46.637" cy="11.418" r="2.937"/>
<path d="M24.999,9.432c1.622,0,2.937-1.313,2.937-2.935c0-1.622-1.314-2.937-2.937-2.937c-1.616,0-2.935,1.315-2.935,2.937
	C22.064,8.121,23.383,9.432,24.999,9.432z M24.999,12.06l-9.325,16.754L5.219,16.982l2.564,19.821c0,0,14.274,3.541,34.437,0
	l2.564-19.822l-10.46,11.833l-9.325-16.753V12.06z M8.182,39.012l0.795,6.144c0,0,14.413,2.426,32.048,0l0.798-6.142
	c-17.109,3.048-33.641,0-33.641,0V39.012z"/>
</symbol><symbol id="application-unsplash" viewBox="0 0 50 50" xmlns:xlink="http://www.w3.org/1999/xlink">
<path d="M32.25,27.376c0,4.079-3.323,7.25-7.251,7.25c-3.927,0-7.25-3.171-7.25-7.25s3.323-7.25,7.25-7.25
	C29.079,20.276,32.25,23.449,32.25,27.376L32.25,27.376z M49.168,16.197v22.508c0,3.474-2.87,6.495-6.495,6.495H7.326
	c-3.625,0-6.495-2.87-6.495-6.495V16.047c0-3.474,2.87-6.496,6.495-6.496h5.589l1.208-3.474c0.604-1.662,2.568-3.021,4.381-3.021
	h12.991c1.812,0,3.775,1.36,4.381,3.021l1.208,3.625h5.589C46.298,9.702,49.168,12.573,49.168,16.197z M36.178,27.526
	c0-6.192-4.985-11.329-11.329-11.329c-6.193,0-11.329,5.137-11.329,11.329c0,6.194,4.985,11.329,11.329,11.329
	C31.192,38.705,36.178,33.721,36.178,27.526z"/>
</symbol><symbol id="application-facebook" viewBox="0 0 50 50" xmlns:xlink="http://www.w3.org/1999/xlink">
<g id="Icon_1_-ce6fe83b-cf94-47ae-bed6-5b983259ee9f">
	<path d="M36.062,1.417c0,0-4.527,0-7.536,0c-4.476,0-9.449,1.881-9.449,8.363c0.024,2.261,0,4.424,0,6.859h-5.173v8.236h5.336
		v23.708h9.801V24.719h6.474l0.581-8.104h-7.223c0,0,0.016-3.604,0-4.649c0-2.563,2.667-2.416,2.83-2.416
		c1.265,0,3.732,0.005,4.366,0V1.417H36.062z"/>
</g>
</symbol><symbol id="application-tilde" viewBox="0.855 12.398 48.29 26.56" xmlns:xlink="http://www.w3.org/1999/xlink">
<path d="M45.693,38.958L24.998,18.261L4.306,38.955l-3.451-3.45l22.42-22.42c0.915-0.915,2.536-0.915,3.452,0l22.418,22.422
	L45.693,38.958z"/>
</symbol><symbol id="application-hatena" viewBox="0 0 50 50" xmlns:xlink="http://www.w3.org/1999/xlink">
<g>
	<path d="M39.198,5.091h9.697v27.703h-9.697V5.091z"/>
	<path d="M30.22,27.336c-1.64-1.834-3.921-2.865-6.848-3.087c2.604-0.71,4.493-1.748,5.69-3.135
		c1.189-1.369,1.779-3.226,1.779-5.564c0-1.851-0.404-3.488-1.187-4.903c-0.805-1.406-1.96-2.532-3.478-3.374
		c-1.328-0.73-2.906-1.246-4.746-1.55c-1.849-0.295-5.084-0.443-9.728-0.443H0.414v41.174h11.632c4.673,0,8.042-0.165,10.103-0.477
		c2.058-0.323,3.787-0.869,5.183-1.615c1.73-0.912,3.05-2.211,3.972-3.88c0.929-1.674,1.386-3.604,1.386-5.812
		C32.689,31.618,31.866,29.164,30.22,27.336z M10.838,14.409h2.41c2.785,0,4.656,0.314,5.622,0.94
		c0.953,0.629,1.439,1.714,1.439,3.261c0,1.489-0.518,2.537-1.54,3.151c-1.037,0.603-2.925,0.909-5.69,0.909h-2.241V14.409z
		 M20.398,38.021c-1.097,0.672-2.986,1.004-5.637,1.004h-3.922v-8.996h4.092c2.723,0,4.605,0.342,5.605,1.026
		c1.017,0.685,1.517,1.893,1.517,3.628C22.053,36.234,21.504,37.351,20.398,38.021z"/>
	<path d="M44.048,35.564c-3.062,0-5.542,2.478-5.542,5.538c0,3.062,2.48,5.542,5.542,5.542c3.058,0,5.538-2.48,5.538-5.542
		C49.586,38.042,47.105,35.564,44.048,35.564z"/>
</g>
</symbol><symbol id="application-google" viewBox="0 0 50 50" xmlns:xlink="http://www.w3.org/1999/xlink">
<path d="M16.057,9.143c-8.671,0-15.685,7.014-15.685,15.686c0,8.673,7.013,15.687,15.685,15.687c9.055,0,15.055-6.363,15.055-15.331
	c0-1.03,0-1.816-0.247-2.603H16.057v5.385h8.898c-0.356,2.303-2.693,6.769-8.898,6.769c-5.353,0-9.724-4.441-9.724-9.909
	c0-5.462,4.371-9.907,9.724-9.907c3.052,0,5.094,1.303,6.251,2.422l4.259-4.095C23.829,10.691,20.295,9.143,16.057,9.143
	L16.057,9.143z M40.708,18.108v4.474h-4.491v4.493h4.491v4.474h4.476v-4.474h4.488v-4.488h-4.488v-4.479H40.708L40.708,18.108z"/>
</symbol><symbol id="application-line" viewBox="0 0 50 50" xmlns:xlink="http://www.w3.org/1999/xlink">
<path d="M44.279,33.809h0.002C39.134,39.752,27.62,46.99,25,48.098c-2.619,1.105-2.232-0.705-2.125-1.324
	c0.062-0.373,0.35-2.109,0.35-2.109c0.083-0.629,0.168-1.604-0.08-2.225c-0.276-0.682-1.364-1.041-2.163-1.213
	C9.189,39.662,0.458,31.393,0.458,21.521c0-11.01,11.011-19.97,24.542-19.97c13.533,0,24.541,8.959,24.541,19.97
	C49.541,25.929,47.839,29.898,44.279,33.809z M15.394,25.493h-3.59v-8.489c0-0.71-0.576-1.291-1.286-1.291
	c-0.708,0-1.286,0.581-1.286,1.291v9.778c0,0.713,0.577,1.291,1.286,1.291h4.876c0.71,0,1.286-0.578,1.286-1.291
	C16.68,26.07,16.104,25.493,15.394,25.493z M20.437,17.003c0-0.71-0.577-1.291-1.286-1.291c-0.709,0-1.286,0.581-1.286,1.291v9.778
	c0,0.713,0.577,1.291,1.286,1.291c0.709,0,1.286-0.578,1.286-1.291V17.003z M32.175,17.003c0-0.71-0.576-1.291-1.286-1.291
	c-0.709,0-1.287,0.581-1.287,1.291v6.052l-4.999-6.826c-0.241-0.324-0.626-0.518-1.027-0.518c-0.139,0-0.276,0.023-0.408,0.066
	c-0.527,0.177-0.881,0.668-0.881,1.225v9.778c0,0.713,0.578,1.291,1.288,1.291s1.286-0.578,1.286-1.291v-6.048l4.999,6.823
	c0.241,0.324,0.626,0.516,1.028,0.516c0.137,0,0.275-0.02,0.407-0.064c0.527-0.176,0.88-0.668,0.88-1.227V17.003z M40.065,23.184
	c0.71,0,1.287-0.579,1.287-1.291c0-0.712-0.577-1.29-1.287-1.29h-3.588v-2.309h3.588c0.71,0,1.287-0.579,1.287-1.292
	c0-0.71-0.577-1.291-1.287-1.291h-4.876c-0.709,0-1.287,0.581-1.287,1.291c0,0.001,0,0.002,0,0.006v4.882c0,0,0,0.002,0,0.002
	c0,0.002,0,0.002,0,0.003v4.884c0,0.713,0.578,1.291,1.287,1.291h4.876c0.708,0,1.287-0.578,1.287-1.291
	c0-0.711-0.579-1.289-1.287-1.289h-3.588v-2.309H40.065z"/>
</symbol><symbol id="application-star" viewBox="0 0 50 50" xmlns:xlink="http://www.w3.org/1999/xlink">
<path d="M38.49,46.375c-0.184,0-0.364-0.045-0.53-0.133l-12.942-6.801l-12.941,6.805c-0.383,0.205-0.853,0.17-1.206-0.088
	c-0.354-0.256-0.529-0.691-0.457-1.121l2.473-14.406L2.418,20.424c-0.314-0.304-0.424-0.756-0.291-1.173
	c0.134-0.417,0.493-0.716,0.926-0.779l14.466-2.102l6.471-13.109c0.192-0.394,0.593-0.641,1.027-0.641l0,0
	c0.434,0,0.835,0.248,1.027,0.639l6.467,13.109l14.471,2.102c0.433,0.061,0.79,0.365,0.925,0.779
	c0.134,0.414,0.022,0.869-0.291,1.175L37.146,30.627l2.473,14.406c0.074,0.43-0.103,0.865-0.456,1.121
	C38.965,46.305,38.726,46.375,38.49,46.375z M25.018,37.002c0.184,0,0.367,0.045,0.533,0.133l11.415,6l-2.182-12.711
	c-0.061-0.375,0.06-0.754,0.333-1.016l9.235-9.002l-12.768-1.857c-0.371-0.052-0.698-0.287-0.861-0.625L25.018,6.356l-5.71,11.565
	c-0.168,0.336-0.488,0.573-0.862,0.627L5.682,20.404l9.241,9c0.269,0.264,0.39,0.643,0.329,1.016L13.07,43.133l11.416-6.002
	C24.651,37.047,24.834,37.002,25.018,37.002z"/>
</symbol><symbol id="application-target_blank" viewBox="0 0 50 50" xmlns:xlink="http://www.w3.org/1999/xlink">
<path d="M0.583,49.5h39.199V10.3H0.583V49.5z M6.463,16.18h27.439v27.44H6.463V16.18z"/>
<path d="M10.383,0.5v5.88h33.319v33.319h5.881V0.5"/>
</symbol><symbol id="application-shine" viewBox="0 0 50 50" xmlns:xlink="http://www.w3.org/1999/xlink">
<path d="M18.373,43.539c-0.538,0-1.013-0.349-1.175-0.861l-4.63-14.704l-11.099-4.58c-0.465-0.192-0.765-0.649-0.76-1.149
	c0.005-0.505,0.317-0.954,0.785-1.135l11.28-4.37L17.19,1.854c0.154-0.52,0.628-0.877,1.173-0.882c0.002,0,0.005,0,0.01,0
	c0.537,0,1.013,0.35,1.175,0.862l4.624,14.7l11.102,4.584c0.461,0.191,0.762,0.643,0.76,1.146c-0.002,0.502-0.311,0.95-0.775,1.135
	L24.07,27.873l-4.52,14.796c-0.157,0.515-0.634,0.87-1.172,0.87C18.377,43.539,18.375,43.539,18.373,43.539z M5.255,22.292
	l8.782,3.622c0.338,0.144,0.597,0.424,0.705,0.77l3.611,11.469l3.531-11.564c0.108-0.355,0.375-0.644,0.719-0.783l8.924-3.568
	l-8.826-3.648c-0.336-0.137-0.594-0.42-0.704-0.768L18.406,6.413l-3.443,11.604c-0.108,0.365-0.379,0.661-0.736,0.798L5.255,22.292z
	"/>
<path d="M38.102,48.542c-0.537,0-1.01-0.351-1.174-0.861l-2.74-8.696l-6.514-2.694c-0.467-0.189-0.77-0.645-0.766-1.148
	c0.006-0.506,0.318-0.956,0.787-1.136l6.613-2.564l2.609-8.788c0.154-0.517,0.633-0.875,1.174-0.88c0.002,0,0.008,0,0.01,0
	c0.539,0,1.012,0.351,1.174,0.861l2.734,8.692l6.518,2.693c0.465,0.188,0.766,0.643,0.764,1.145
	c-0.004,0.501-0.309,0.95-0.775,1.136l-6.561,2.626l-2.67,8.746c-0.158,0.515-0.635,0.87-1.176,0.872
	C38.104,48.542,38.104,48.542,38.102,48.542z M31.459,35.191l4.205,1.736c0.336,0.14,0.594,0.421,0.701,0.767l1.719,5.46l1.684-5.51
	c0.109-0.357,0.373-0.647,0.719-0.781l4.303-1.722l-4.252-1.757c-0.338-0.14-0.596-0.418-0.703-0.767l-1.699-5.4l-1.637,5.511
	c-0.104,0.363-0.375,0.661-0.734,0.796L31.459,35.191z"/>
</symbol><symbol id="application-yahoo" viewBox="0 0 50 50" xmlns:xlink="http://www.w3.org/1999/xlink">
<path d="M21.488,13.258l0.304-2.877H0.452v2.877l6.353,0.449l12.261,14.684v7.718l-6.964,0.458v2.569h21.19v-2.569l-6.964-0.304
	l0.305-8.021l11.65-10.445l6.208-0.605v-3.181l-17.858,0.152v2.875l6.659,0.153l-8.624,7.413l-8.929-10.898L21.488,13.258z"/>
<path d="M49.529,21.375l-5.623-0.255L43.65,34.514l2.642,0.253L49.529,21.375L49.529,21.375z M43.301,39.376h3.247v-2.734
	l-3.503-0.259L43.301,39.376L43.301,39.376z"/>
</symbol><symbol id="application-new" viewBox="0 10 50 30" xmlns:xlink="http://www.w3.org/1999/xlink">
<path d="M49.498,32.146c0,0.9-0.73,1.631-1.632,1.631H2.217c-0.9,0-1.63-0.729-1.63-1.631V19.103c0-0.9,0.73-1.63,1.63-1.63h45.649
	c0.901,0,1.632,0.73,1.632,1.63V32.146z"/>
<g>
	<path fill="#FFFFFF" d="M9.291,20.631h2.283l4.14,7.271v-7.271h2.03v10.43h-2.177l-4.247-7.401v7.399H9.29L9.291,20.631
		L9.291,20.631z M27.5,22.478h-5.518v2.214h5.066v1.811h-5.065v2.685h5.773v1.873h-7.903v-10.43h7.646L27.5,22.478L27.5,22.478
		L27.5,22.478z M30.869,20.631l1.379,5.971l0.3,1.662l0.304-1.625l1.176-6.008h2.299l1.24,5.971l0.317,1.662l0.32-1.599l1.392-6.035
		h2.219L38.88,31.061h-2.087l-1.261-6.101l-0.364-2.014L34.8,24.96l-1.261,6.101h-2.023l-2.957-10.429h2.315L30.869,20.631
		L30.869,20.631z"/>
</g>
</symbol><symbol id="application-twitter" viewBox="0 0 50 50" xmlns:xlink="http://www.w3.org/1999/xlink">
<g id="Icon-f6b6cf22-e1af-42ec-9035-00b8098b0ca2">
	<path d="M49.575,9.78c-1.804,0.801-3.744,1.343-5.782,1.586c2.081-1.247,3.669-3.22,4.427-5.57
		c-1.942,1.153-4.097,1.992-6.395,2.444c-1.835-1.956-4.451-3.177-7.344-3.177c-5.56,0-10.067,4.506-10.067,10.064
		c0,0.788,0.089,1.557,0.264,2.295C16.31,17.001,8.894,12.993,3.931,6.903c-0.867,1.489-1.362,3.216-1.362,5.063
		c0,3.493,1.776,6.573,4.475,8.376c-1.649-0.053-3.204-0.503-4.562-1.259c0,0.043,0,0.083,0,0.129c0,4.876,3.468,8.943,8.075,9.867
		c-0.846,0.232-1.733,0.355-2.653,0.355c-0.648,0-1.278-0.062-1.893-0.176c1.282,3.994,5.001,6.906,9.401,6.986
		c-3.446,2.699-7.787,4.311-12.5,4.311c-0.811,0-1.613-0.049-2.403-0.143c4.456,2.855,9.745,4.523,15.429,4.523
		c18.513,0,28.639-15.338,28.639-28.639c0-0.436-0.013-0.871-0.031-1.303C46.518,13.57,48.225,11.799,49.575,9.78z"/>
</g>
</symbol><symbol id="application-comment" viewBox="0 0 50 50" xmlns:xlink="http://www.w3.org/1999/xlink">
<g>
	<path d="M25,0.533c-13.715,0-24.833,8.188-24.833,20.693c0,7.713,4.79,14.366,13.554,19.559l14.444,8.682l0.163-8.033
		c12.835-0.713,21.505-8.281,21.505-20.208C49.833,8.721,38.716,0.533,25,0.533z M28.121,37.738l-3.425,0.189l-0.069,3.432
		l-0.034,1.643L15.607,37.6C7.819,32.984,3.869,27.475,3.869,21.226C3.869,10.071,14.499,4.234,25,4.234s21.132,5.837,21.132,16.992
		C46.132,30.938,39.399,37.109,28.121,37.738z"/>
</g>
</symbol><symbol id="application-logo" viewBox="21.625 20.229 555.194 156.334">
<g id='logo_vivid'>
  <path d="M122.389 96.194l-8.14 3.86-5.395 14.817 5.332 3.857 8.14-3.857 5.394-14.817zM130.829 100.054l-5.394 14.819 5.332 3.858 8.14-3.858 5.394-14.819-5.331-3.86zM460.915 71.559l-7.856 3.724-5.201 14.301L453 93.308l7.856-3.724 5.201-14.301-5.142-3.724zM476.915 71.559l-7.856 3.724-5.201 14.301L469 93.308l7.856-3.724 5.201-14.301-5.142-3.724zM322.2 58.677c-7.91 0-14.322 6.413-14.322 14.323 0 7.911 6.412 14.323 14.322 14.323 7.911 0 14.323-6.412 14.323-14.323 0-7.91-6.412-14.323-14.323-14.323zm0 21.644c-4.043 0-7.32-3.277-7.32-7.321s3.277-7.321 7.32-7.321a7.32 7.32 0 1 1 0 14.642z"/>
</g>
<g id='logo_title'>
  <path d="M409.637 150.883l1.815 24.138h-3.114l-.986-14.056-8.541 15.598-4.727-15.598-4.398 14.056h-3.344l7.627-23.608 5.584 18.024zM428.833 169.419c.029-.514.043-.885.043-1.113 0-2.188-.584-3.937-1.756-5.242-1.152-1.295-2.729-1.938-4.729-1.938-2.062 0-3.771.717-5.127 2.152-1.357 1.447-2.043 3.246-2.043 5.397 0 2.058.619 3.699 1.857 4.929 1.236 1.229 2.895 1.842 4.979 1.842 1.314 0 2.41-.223 3.285-.672.867-.437 1.709-1.207 2.529-2.312l-2.357-1.301c-.789 1.104-1.922 1.657-3.396 1.657-1.076 0-1.961-.319-2.656-.957-.684-.637-1.027-1.452-1.027-2.442v-.001h10.398zm-6.598-5.652c1.961 0 3.104 1.037 3.438 3.112h-7.064c.559-2.075 1.768-3.112 3.626-3.112zM444.969 150.896l-1.557 12.713c-.791-.862-1.545-1.479-2.271-1.844-.691-.352-1.549-.527-2.566-.527-1.99 0-3.646.701-4.955 2.103-1.316 1.397-1.977 3.159-1.977 5.271 0 1.979.605 3.6 1.805 4.854 1.195 1.246 2.736 1.871 4.627 1.871.828 0 1.521-.114 2.086-.344.57-.248 1.246-.72 2.023-1.414l-.172 1.44h3.146l2.971-24.123h-3.16zm-3.297 20.353c-.828.973-1.842 1.457-3.043 1.457-1.152 0-2.076-.357-2.77-1.072-.695-.723-1.043-1.68-1.043-2.869 0-1.41.402-2.576 1.213-3.5.809-.924 1.834-1.387 3.066-1.387 1.146 0 2.066.354 2.771 1.059s1.057 1.627 1.057 2.771c.005 1.408-.413 2.589-1.251 3.541zM454.612 161.565l-1.656 13.454h-3.157l1.657-13.454zM455.596 155.167c0 .457-.166.854-.498 1.188a1.617 1.617 0 0 1-1.195.5 1.662 1.662 0 0 1-1.219-.516c-.32-.334-.5-.779-.5-1.242 0-.467.162-.861.484-1.186.334-.334.73-.5 1.188-.5.467 0 .865.176 1.213.527.351.344.527.752.527 1.229zM469.071 161.567l-.215 1.771c-.719-.772-1.414-1.315-2.104-1.627-.678-.315-1.496-.474-2.457-.474-2.037 0-3.709.709-5.014 2.13-1.285 1.418-1.928 3.235-1.928 5.454 0 1.925.562 3.49 1.686 4.699 1.125 1.209 2.576 1.812 4.355 1.812 1.443 0 2.846-.59 4.195-1.771l-.186 1.457h3.156l1.65-13.453-3.138.002zm-1.961 9.741c-.852.941-1.854 1.414-3.018 1.414-1.049 0-1.9-.377-2.566-1.129s-1-1.718-1-2.898c0-1.354.396-2.49 1.195-3.428.805-.924 1.789-1.387 2.975-1.387 1.086 0 1.971.377 2.652 1.129.689.742 1.027 1.709 1.027 2.898.004 1.304-.419 2.438-1.265 3.401zM489.018 156.153c-.477-.951-1.135-1.69-1.973-2.213-1.018-.649-2.498-.977-4.438-.977h-4.477l-2.727 22.059h3.27l1.104-8.928h2.414c2.822 0 4.896-.894 6.213-2.675.885-1.194 1.328-2.588 1.328-4.17a6.983 6.983 0 0 0-.714-3.096zm-3.664 6.006c-.719.689-1.744 1.035-3.092 1.035h-2.129l.887-7.188 1.389.006c2.684 0 4.023 1.051 4.023 3.151 0 1.309-.359 2.307-1.078 2.996zM496.102 161.565l-.143 1.156c1.064-1.012 2.141-1.518 3.227-1.518.953 0 1.818.352 2.604 1.043l-2.014 2.604c-.582-.496-1.162-.744-1.744-.744-.398 0-.752.08-1.061.232-.305.158-.564.404-.793.742-.225.34-.41.771-.557 1.311-.166.629-.283 1.27-.35 1.914l-.83 6.713h-3.156l1.658-13.453h3.159zM515.094 163.097c-1.342-1.312-3.08-1.972-5.213-1.972-2.172 0-3.979.694-5.428 2.086-1.438 1.381-2.156 3.112-2.156 5.199 0 2.036.695 3.723 2.086 5.055 1.379 1.324 3.16 1.986 5.34 1.986 2.086 0 3.842-.702 5.26-2.101 1.43-1.4 2.145-3.129 2.145-5.188-.003-2.083-.678-3.772-2.034-5.065zm-2.369 8.367c-.799.906-1.816 1.357-3.057 1.357-1.242 0-2.246-.414-3.027-1.242-.775-.811-1.172-1.881-1.172-3.213 0-1.324.414-2.424 1.244-3.301.828-.865 1.875-1.299 3.146-1.299 1.219 0 2.199.389 2.953 1.17.756.752 1.131 1.771 1.131 3.066-.003 1.415-.407 2.565-1.218 3.462zM533.219 150.896l-1.557 12.713c-.791-.862-1.545-1.479-2.271-1.844-.691-.352-1.549-.527-2.566-.527-1.99 0-3.646.701-4.955 2.103-1.316 1.397-1.977 3.159-1.977 5.271 0 1.979.605 3.6 1.805 4.854 1.197 1.246 2.736 1.871 4.627 1.871.828 0 1.521-.114 2.086-.344.568-.248 1.246-.72 2.023-1.414l-.172 1.44h3.146l2.971-24.123h-3.16zm-3.297 20.353c-.828.973-1.842 1.457-3.043 1.457-1.152 0-2.076-.357-2.77-1.072-.695-.723-1.043-1.68-1.043-2.869 0-1.41.402-2.576 1.213-3.5.809-.924 1.834-1.387 3.066-1.387 1.146 0 2.066.354 2.771 1.059s1.057 1.627 1.057 2.771c.005 1.408-.413 2.589-1.251 3.541zM551.303 161.565l-.957 7.826a15.283 15.283 0 0 1-.287 1.738c-.109.496-.232.91-.365 1.242-.271.643-.719 1.205-1.348 1.701-1.062.838-2.471 1.256-4.213 1.256-1.658 0-2.979-.424-3.971-1.271-.99-.854-1.486-2.004-1.486-3.438 0-.224.016-.479.037-.771.023-.295.061-.637.105-1.018l.887-7.271h3.156l-.934 7.559c-.031.281-.062.566-.086.852-.02.24-.023.443-.023.605 0 1.418.834 2.127 2.5 2.127.898 0 1.566-.23 2-.699.428-.467.713-1.283.854-2.457l.984-7.982h3.145l.002.001zM565.67 162.866l-.398 3.213c-.646-.828-1.268-1.424-1.854-1.785-.58-.354-1.266-.527-2.057-.527-1.199 0-2.189.441-2.955 1.328-.771.885-1.158 2.023-1.158 3.412 0 1.307.357 2.35 1.086 3.129.729.789 1.68 1.186 2.842 1.186 1.115 0 2.271-.479 3.457-1.438l-.414 3.326c-1.219.496-2.381.744-3.482.744-1.975 0-3.574-.646-4.812-1.934-1.229-1.285-1.844-2.951-1.844-4.998 0-2.104.662-3.857 1.98-5.271 1.334-1.418 2.99-2.127 4.977-2.127 1.607 0 3.156.58 4.632 1.742zM572.155 164.493l-1.299 10.526H567.7l1.299-10.526h-1.786l.358-2.928h1.785l.769-6.24h3.157l-.772 6.24h2.914l-.353 2.928z"/>
  <path fill="#AAA" d="M374.534 164H24.581c-.839 0-1.767.556-2.073 1.396l-.025-.06c-.306.84.127 1.664.966 1.664H373.4c.841 0 1.769-.824 2.074-1.664l.021.06c.312-.84-.121-1.396-.961-1.396z"/>
</g>
<g id='logo_text'>
  <path d="M145.792 22.239c-.495 0-.803.4-.803 1.018 0 .584.309 1.017.803 1.017h8.492c.527 0 .838-.433.838-1.017 0-.615-.311-1.018-.838-1.018h-8.492zM25.333 28.665h18.166c.681 0 1.113-.65 1.113-1.392 0-.683-.433-1.391-1.143-1.391H25.333c-.71 0-1.143.708-1.143 1.391 0 .743.433 1.392 1.143 1.392zm20.7 14.304H22.768c-.71 0-1.143.711-1.143 1.391 0 .741.433 1.421 1.112 1.421h23.327c.71 0 1.112-.68 1.112-1.421 0-.68-.402-1.391-1.143-1.391zm28.771 1.791h-5.189c.865-3.8 1.607-7.971 1.916-11.338.027-.157.027-.311.027-.467 0-.711-.154-1.329-.618-1.85-.435-.495-1.083-.742-1.951-.742h-11.15c-.588 0-.958.557-.958 1.236 0 .649.401 1.144.958 1.144h10.103c.775 0 .988.185.988.741v.278c-.278 3.089-.924 7.014-1.913 10.999H55.552c-.617 0-1.019.493-1.019 1.143 0 .649.4 1.236 1.019 1.236h19.249c.65 0 .962-.587.962-1.236 0-.651-.311-1.144-.959-1.144zm33.065-10.32h-23.45c-.803 0-1.236.588-1.236 1.392 0 .834.433 1.329 1.205 1.329H107.9c.772 0 1.205-.494 1.205-1.329 0-.805-.433-1.392-1.236-1.392zm23.087 2.627c2.165-2.657 3.893-5.283 4.916-8.033.216-.649.339-1.267.339-1.792 0-.618-.154-1.113-.401-1.545-.559-.803-1.421-1.235-2.752-1.235l-15.726.15c-.71 0-1.143.497-1.143 1.238 0 .835.404 1.359 1.143 1.359l14.767-.187c.774 0 1.113.216 1.113.681 0 .188-.061.405-.154.682-1.203 3.46-3.767 7.073-6.982 10.039-3.306 3.029-7.227 5.253-10.966 6.673a1.424 1.424 0 0 0-.927 1.33c0 .186.029.37.091.524.187.524.62.772 1.143.772.249 0 .491-.062.741-.155 4.79-1.79 9.64-4.789 13.069-8.557 3.432 2.688 5.839 5.005 8.156 7.785.309.341.711.494 1.112.494.403 0 .804-.153 1.082-.464.248-.278.401-.618.401-.989 0-.37-.152-.74-.43-1.08-2.598-2.993-5.132-5.002-8.592-7.69zm24.537-10.379H144.68c-.556 0-.834.403-.834 1.019 0 .618.278 1.079.834 1.079h10.813c.525 0 .804-.466.804-1.079-.001-.616-.279-1.019-.804-1.019zm15.571 14.735h-.155c-.648 0-1.05.34-1.081.927-.062 1.607-.34 2.935-.772 3.615-.463.742-1.544.927-4.82.927-3.954 0-4.294-.248-4.294-1.36v-9.547c0-.74.309-.958 1.019-.958h7.137c1.884 0 2.781-.741 2.781-2.688v-6.983c0-1.977-.898-2.719-2.781-2.719h-10.226c-.589 0-.9.495-.9 1.144 0 .68.31 1.143.9 1.143h9.577c.711 0 1.02.218 1.02.958v5.963c0 .742-.309.958-1.02.958h-7.075c-1.947 0-2.873.742-2.873 2.688V46.12c0 2.409.74 2.967 5.53 3.028.618.03 1.205.03 1.729.03 2.255 0 3.955-.155 4.943-.587.618-.214 1.112-.587 1.421-1.112.585-.864 1.051-2.937 1.112-5.005v-.064c.002-.616-.461-.955-1.172-.987zm-25.272-8.125h8.527c.495 0 .772-.494.772-1.05s-.277-.988-.772-.988h-8.527c-.525 0-.773.432-.773.988s.248 1.05.773 1.05zm8.62 2.379h-8.62c-.523 0-.773.464-.773 1.018 0 .522.249 1.017.773 1.017v.002h8.62c.494 0 .772-.495.772-1.053 0-.552-.279-.984-.772-.984zm-1.7 4.387h-5.222c-1.61 0-2.383.617-2.383 2.193v4.851c0 1.576.773 2.224 2.383 2.224h5.222c1.606 0 2.378-.648 2.378-2.224v-4.851c.001-1.575-.771-2.193-2.378-2.193zm.216 6.581c0 .586-.278.741-.834.741h-3.984c-.558 0-.835-.154-.835-.741v-3.983c0-.587.278-.741.835-.741h3.984c.557 0 .834.153.834.741v3.983zm49.501-7.631h-2.131V37.53c0-1.699-.743-2.348-2.595-2.348h-7.971v-1.851h7.566c1.699 0 2.471-.494 2.471-1.916V29.31c0-1.418-.772-1.946-2.471-1.946h-7.566v-1.699h12.358c.522 0 .834-.433.834-1.016 0-.56-.31-.961-.834-.961h-12.358V22.05c0-.557-.344-.862-1.082-.862-.682 0-1.081.305-1.081.862v1.637h-12.05c-.525 0-.803.401-.803.961 0 .583.278 1.016.803 1.016h12.05v1.699h-7.261c-1.668 0-2.441.526-2.441 1.946v2.104c0 1.421.772 1.916 2.441 1.916h7.261v1.852h-9.856c-.495 0-.773.432-.773.926 0 .524.278.989.773.989h9.856v1.916h-12.297c-.494 0-.772.431-.772.989 0 .556.278.989.772.989h12.297v2.193h-10.227c-.495 0-.772.431-.772.926 0 .524.278.989.772.989h10.227v1.608c0 .834-.401 1.05-1.729 1.05-.838 0-1.854-.154-2.535-.306-.091-.028-.188-.028-.278-.028-.495 0-.898.278-.988.834-.03.093-.03.187-.03.249 0 .586.369.926.927 1.051.805.186 2.039.308 3.09.308 2.904 0 3.706-.802 3.706-2.842v-1.914h7.974c1.851 0 2.595-.649 2.595-2.319h-.002v-1.791h2.132c.494 0 .799-.433.799-1.019.001-.563-.307-.965-.801-.965zm-12.696-9.855h7.01c.586 0 .865.124.865.649v1.08c0 .523-.278.646-.865.646v.001h-7.01v-2.376zm-2.164 2.377h-6.643c-.617 0-.896-.124-.896-.647V29.81c0-.525.278-.649.896-.649v-.001h6.643v2.376zm10.504 10.877c0 .587-.278.772-.896.772h-7.446v-2.193h8.342v1.421zm.001-3.399h-8.338v-1.916h7.442c.619 0 .896.128.896.71v1.206zm22.468-14.709c-8.432 0-13.811 5.563-13.811 13.256 0 5.192 2.564 8.311 5.778 8.311 1.266 0 2.564-.4 3.553-1.358 1.081-1.017 1.977-2.41 3.059-5.592 1.078-3.306 1.761-7.628 2.042-12.328 5.465.183 8.898 3.984 8.898 9.206 0 3.244-1.421 5.745-3.371 7.199-1.544 1.145-3.924 1.917-6.179 2.226-.711.124-1.112.584-1.112 1.205 0 .089 0 .216.026.306.123.772.649 1.077 1.298 1.077.09 0 .216 0 .34-.027 2.471-.369 4.696-1.08 6.488-2.226 3.214-2.039 5.098-5.342 5.098-9.699.006-6.799-4.816-11.556-12.107-11.556zm-3.893 13.751c-.742 2.256-1.455 3.584-2.132 4.233-.648.649-1.359.896-2.069.896-1.639 0-3.213-1.947-3.213-5.655 0-5.993 3.706-10.318 9.361-10.844-.218 4.233-.989 8.465-1.947 11.37zm45.788 6.519c-2.157-1.885-4.937-3.429-7.409-4.479a18.86 18.86 0 0 0-2.225-.804c-.123-1.669-.248-3.213-.339-4.881a86.16 86.16 0 0 0 8.771-.772c.587-.092.989-.495.989-1.114v-.215c-.089-.618-.463-1.016-1.051-1.016h-.186c-2.86.394-5.736.661-8.62.8-.062-1.421-.124-2.626-.124-3.831a92.335 92.335 0 0 0 9.203-.772c.622-.09.961-.524.961-1.051 0-.09 0-.187-.031-.278-.092-.619-.433-.989-1.05-.989-.093 0-.184 0-.309.03-2.91.378-5.836.606-8.771.681-.031-.896-.031-1.792-.031-2.78 0-.834-.371-1.174-1.143-1.174-.834 0-1.236.37-1.236 1.112v2.876c-.989.028-1.977.028-2.966.028-2.688 0-5.192-.062-6.832-.154h-.062c-.679 0-1.077.432-1.14 1.053v.152c0 .587.305 1.114 1.016 1.176 1.606.09 4.14.154 7.169.154.989 0 1.912 0 2.873-.031.03 1.361.062 2.66.124 3.865-1.205.062-2.41.062-3.615.062-2.101 0-3.706-.062-5.932-.186h-.062c-.649 0-1.051.43-1.112 1.112v.124c0 .619.401 1.081 1.05 1.143 2.317.155 3.986.155 6.148.155 1.237 0 2.41 0 3.646-.062.063 1.412.157 2.823.282 4.232a17.748 17.748 0 0 0-3.275-.342c-5.1 0-7.6 2.104-7.6 5.098s2.75 4.972 6.92 4.972c4.201 0 6.515-1.483 6.515-5.312 0-.404 0-.899-.027-1.331.494.216.988.464 1.421.648 2.128 1.082 4.417 2.472 6.299 4.203.278.249.587.37.926.37.401 0 .804-.188 1.082-.557.185-.249.278-.524.278-.802 0-.372-.187-.772-.525-1.113zm-16.121 1.514c-2.504 0-4.299-.895-4.299-2.564 0-1.79 1.483-2.874 4.944-2.874 1.145 0 2.411.186 3.588.527.027.431.027.864.027 1.296.035 2.812-1.356 3.615-4.26 3.615zm44.62-1.699c-.123 0-.246 0-.371.031-2.344.495-5.744.834-8.771.834-6.553 0-8.53-1.359-8.53-4.048 0-2.255 2.105-4.572 6.12-6.395 3.271-1.482 7.662-2.905 10.875-3.708.713-.185 1.053-.649 1.053-1.205 0-.154-.031-.306-.062-.463-.188-.618-.586-.927-1.205-.927-.15 0-.312.031-.494.062-2.75.711-6.361 1.947-9.424 3.247-.896-2.597-1.545-5.592-2.065-8.528-.094-.711-.622-1.051-1.237-1.051-.124 0-.217 0-.34.029-.618.124-1.112.522-1.112 1.205 0 .09 0 .187.027.278.587 3.121 1.328 6.335 2.255 9.115-4.449 2.164-7.044 5.19-7.044 8.311 0 4.666 3.488 6.767 11.062 6.735 3.617 0 6.979-.216 9.365-.742.737-.154 1.174-.682 1.174-1.331 0-.124 0-.213-.023-.34-.11-.708-.573-1.109-1.253-1.109zm30.132-15.45c-1.237-.834-2.659-1.36-4.422-1.638.242-1.177.449-2.362.619-3.552.026-.09.026-.187.026-.278 0-.619-.397-1.079-1.082-1.144-.09-.028-.188-.028-.274-.028-.617 0-1.021.342-1.11 1.081a61.903 61.903 0 0 1-.619 3.708c-2.965 0-5.47.647-7.541 1.764a75.308 75.308 0 0 1-.709-4.48c-.062-.679-.467-1.019-1.054-1.019-.09 0-.188 0-.305.031-.619.093-.966.556-.966 1.174v.216c.246 1.796.576 3.58.988 5.345-3.271 2.443-5.225 5.904-5.225 9.702 0 3.985 2.104 6.21 4.885 6.21 1.76 0 3.736-.68 5.594-2.969.222.309.398.586.646.896.188.216.463.34.771.34.311 0 .619-.122.836-.305.272-.218.434-.55.434-.899a1.47 1.47 0 0 0-.275-.862c-.277-.433-.586-.838-.834-1.266 1.295-1.978 2.529-4.604 3.461-7.201.463-1.296.859-2.752 1.232-4.262 1.328.216 2.504.649 3.521 1.359 1.887 1.328 3.119 3.584 3.119 6.363 0 4.663-3.83 7.848-9.67 8.59-.74.094-1.113.588-1.113 1.178 0 .09 0 .186.028.278.093.617.556 1.016 1.267 1.016.094 0 .188 0 .311-.027 7.197-.898 11.771-4.976 11.771-11.062.017-3.81-1.651-6.559-4.31-8.259zm-16.687 14.646c-1.455 0-2.562-1.544-2.562-3.955 0-2.564 1.203-5.221 3.436-7.075a38.267 38.267 0 0 0 3.308 8.466c-1.525 1.978-3.006 2.564-4.182 2.564zm8.312-10.566c-.739 2.131-1.668 4.264-2.655 5.931-1.144-2.316-2.131-5.066-2.812-7.939 1.914-1.079 4.26-1.729 6.517-1.729a38.512 38.512 0 0 1-1.05 3.737zm43.634-12.389a1.263 1.263 0 0 0-.896-.402c-.373 0-.867.306-.867.74 0 .249.062.465.312.772.771.989 1.479 2.226 2.065 3.46.154.37.399.619.863.619.559 0 .961-.401.961-.864 0-.342-.062-.557-.156-.773-.493-1.11-1.448-2.655-2.282-3.552zm-3.032 6.116c.154.37.434.556.84.556.521 0 1.051-.307 1.051-.864 0-.278-.062-.522-.156-.74-.49-1.113-1.512-2.75-2.348-3.647-.244-.248-.521-.432-.865-.432-.488 0-.922.403-.922.835 0 .248.025.432.275.74.797.989 1.539 2.347 2.125 3.552zm-19.986-.059h16.467c.711 0 1.115-.496 1.115-1.237 0-.772-.344-1.328-1.115-1.328v.002h-16.467c-.74 0-1.113.557-1.113 1.267-.001.676.404 1.296 1.113 1.296zm21.47 5.22h-24.094c-.744 0-1.117.525-1.117 1.205 0 .71.371 1.267 1.082 1.267h11.619c-.031 3.213-.647 5.56-1.854 7.507-1.269 2.131-3.556 3.707-6.271 4.387-.588.154-.899.68-.899 1.236 0 .185.03.37.094.555.186.525.588.742 1.145.742.23-.002.461-.033.684-.092 3.119-.834 5.812-2.626 7.441-5.221 1.572-2.41 2.383-5.407 2.41-9.114h9.795c.74 0 1.082-.525 1.082-1.205-.001-.742-.341-1.267-1.117-1.267zm26.731-3.986a.982.982 0 0 0-.803.404c-1.945 2.225-3.98 3.955-6.672 5.686-3.339 2.129-6.552 3.611-9.394 4.572-.56.186-.836.619-.836 1.144 0 .185.024.368.09.556.151.463.522.74 1.054.74.186 0 .366-.027.586-.091 2.53-.863 5.651-2.319 8.465-4.045v10.813c0 .711.623 1.112 1.233 1.112.615 0 1.298-.432 1.298-1.081V35.466c2.284-1.731 4.479-3.616 5.991-5.345.218-.278.345-.587.345-.865 0-.34-.154-.649-.435-.927-.303-.253-.612-.407-.922-.407zm35.817-2.656c-.561-.711-1.357-1.174-2.75-1.174H393.75c-.711 0-1.111.495-1.111 1.297 0 .8.367 1.267 1.111 1.267h20.33c.709 0 1.02.306 1.02.74 0 .216-.094.494-.217.772-1.42 2.625-4.016 4.818-6.73 5.994a1.28 1.28 0 0 0-.771 1.176c0 .216.062.466.188.682.215.4.615.584 1.053.584.211 0 .428-.062.68-.154 3.121-1.203 6.521-4.168 8.098-7.505.311-.683.469-1.361.469-1.949-.018-.681-.203-1.267-.543-1.73z"/>
  <path d="M404.35 29.436c-.836 0-1.422.433-1.422 1.329 0 4.789-.521 7.384-1.576 9.64-1.23 2.657-3.676 4.634-6.605 5.623-.619.216-.896.618-.896 1.112 0 .186.023.401.119.618.248.556.619.803 1.113.803.217 0 .436-.031.646-.124 3.366-1.112 6.337-3.368 8.03-6.797 1.238-2.471 1.918-5.53 1.951-10.937-.001-.834-.526-1.267-1.36-1.267z"/>
  <path fill="#AAA" d="M487.993 35.885h-60.814c-.84 0-1.768.555-2.068 1.395l-.025-.058c-.307.84.127 1.663.967 1.663h60.814c.84 0 1.768-.823 2.068-1.663l.025.058c.306-.841-.127-1.395-.967-1.395zm21.843 1.612c2.705-1.478 4.057-3.623 4.057-6.435 0-1.849-.547-3.43-1.641-4.74a5.651 5.651 0 0 0-2.506-1.767c-1.008-.347-2.324-.522-3.947-.522h-5.15l-3.426 27.83h7.334c.844.004 1.686-.022 2.523-.081a16.568 16.568 0 0 0 1.82-.226 6.641 6.641 0 0 0 2.646-1.171c1.01-.734 1.791-1.695 2.344-2.884a8.77 8.77 0 0 0 .865-3.84c.003-3.292-1.637-5.347-4.919-6.164zm-5.548-9.625h1.424c2.691 0 4.037 1.13 4.037 3.389 0 3.292-1.766 4.938-5.299 4.938h-1.172l1.01-8.327zm4.558 19.376c-.77.516-2.188.775-4.254.775h-2.771l1.045-8.525 2.482-.001c.939 0 1.74.072 2.406.216.668.145 1.211.374 1.633.686.42.312.73.712.932 1.198.193.487.297 1.072.297 1.758-.002 1.815-.59 3.112-1.77 3.893zm27.633-23.215l-.471 3.839H525.79l-.883 7.21h10.219l-.432 3.568h-10.223l-1.15 9.373h10.219l-.486 3.839h-14.328l3.426-27.829h14.327zm12.543 3.839l-2.955 23.99h-4.127l2.955-23.99h-6.65l.469-3.839h17.143l-.471 3.839h-6.364zm18.187-5.822l-15.393 29.812h4.484l3.393-6.543h10.793l2.02 6.543h4.312l-9.609-29.812zm-5.732 19.701l4.867-9.896 2.992 9.896h-7.859z"/>
</g>
<g id='logo_main'>
  <path d="M153.973 98h19.229l-13.417 36.627c-.733 2.015.273 3.373 2.287 3.373h4.583c2.014 0 3.797-1.358 4.53-3.373L184.601 98h19.186c.84 0 1.766-.89 2.072-1.728l.026-.414c.305-.838-.127-1.86-.966-1.86h-49.813c-.839 0-1.767 1.022-2.072 1.86l-.026.414c-.307.84.126 1.728.965 1.728zM89.449 73h49.812c.839 0 1.767-.823 2.072-1.663l.025.057c.306-.84-.126-1.394-.966-1.394H90.58c-.839 0-1.767.554-2.072 1.394l-.025-.057c-.306.84.127 1.663.966 1.663zm174.3-3h-53.813c-.839 0-1.767.555-2.073 1.394l-.025-.057c-.305.84.127 1.663.966 1.663h18.185c-.074.148-.155.293-.211.449l-22.239 60.903c-.733 2.016.305 3.646 2.319 3.646h5.144c2.014 0 4.24-1.631 4.973-3.646l22.238-60.903c.057-.156.084-.301.12-.449h12.392l-10.705 29.299c-.734 2.015.978 3.701 2.991 3.701h4.583c2.013 0 4.128-1.687 4.861-3.701L264.89 71h-.09c.056-.613-.353-1-1.051-1zm102.753 67.017c.897-.642 1.646-1.537 2.012-2.535l21.459-58.958c.363-.999.271-1.896-.164-2.536.008-.57-.383-.981-1.021-.981h-1.033l-.019-.002h-4.965l-.021.002h-27.996l-.021-.002h-4.965l-.021.002h-2.031c-.812 0-1.701.656-2 1.466l-.021.067c-.104.286-.111.55-.055.776a4.869 4.869 0 0 0-.668 1.208l-21.461 58.958a3.433 3.433 0 0 0-.215 1.211 2.237 2.237 0 0 0-.51.772l-.021.068c-.297.811.121 1.467.936 1.467h41.066c.64 0 1.329-.412 1.735-.983zm-9.988-2.538c-.057.17-.104.346-.137.521h-21.105c.088-.172.184-.342.242-.521l21.459-58.961c.062-.169.104-.342.137-.518h21.104c-.088.17-.176.341-.238.518l-21.462 58.961zM82.66 91h19.234l-15.686 43.235c-.733 2.013.625 3.765 2.639 3.765h4.583c2.014 0 4.481-1.752 5.214-3.765L114.331 91h18.142c.839 0 1.767-.498 2.072-1.336l.026-.108c.305-.839-.128-1.556-.967-1.556H83.791c-.839 0-1.767.717-2.072 1.556l-.026.108c-.305.838.128 1.336.967 1.336zm-55.916 43.063c-.791 2.174.33 3.938 2.502 3.938h5.55c2.171 0 4.574-1.764 5.364-3.938L54.08 97.63l16.539 8.062c.814.396 2.037.174 2.729-.5l.254-.455c.692-.67.79-1.938-.024-2.33l-17.974-8.76 10.787-28.229c.791-2.17-.329-4.418-2.502-4.418h-5.55c-2.172 0-4.574 2.248-5.365 4.419l-8.681 22.719-19.029-9.271c-.812-.396-2.229.226-2.922.896l-.254.459c-.693.672-.597 1.536.216 1.937l20.465 9.973-16.025 41.931zM574.051 96h-24.533l7.455-20.482c.709-1.944-.293-3.519-2.229-3.519h-4.963c-1.945 0-4.1 1.576-4.809 3.519l-21.461 58.961c-.707 1.939.295 3.521 2.238 3.521h4.963c1.943 0 4.092-1.576 4.799-3.521L548.426 99h24.535c.811 0 1.705-.656 2-1.467l.023-.068c.296-.808-.12-1.465-.933-1.465zm-273.537 38.479l21.459-58.961c.154-.427.215-.831.215-1.208.229-.226.404-.49.508-.775l.025-.067c.295-.81-.123-1.466-.932-1.466h-2.035l-.018-.002h-4.965l-.021.002h-41.03c-.81 0-1.705.656-2 1.466l-.024.067c-.295.81.122 1.466.932 1.466h37.585a4.12 4.12 0 0 0-.24.518l-21.457 58.96c-.707 1.939.295 3.521 2.236 3.521h4.965c1.94 0 4.088-1.576 4.797-3.521zM390.344 107h4.422c1.943 0 3.391-1.742 4.098-3.685l1.207-3.315h28.992l-12.551 34.479c-.707 1.938.295 3.521 2.238 3.521h4.963c1.943 0 4.092-1.576 4.799-3.521l13.229-36.336.002-.006.098-.271.002-.013 8.135-22.341c.145-.386.219-.795.219-1.208.223-.219.396-.483.51-.775l.021-.067c.299-.81-.119-1.466-.932-1.466h-7.016l-.024.004h-41.037c-.645 0-1.34.42-1.746.999h-.082l-.166.457a.088.088 0 0 0-.006.01l-.02.067-.002.009-10.841 29.771c-.708 1.947-.456 3.687 1.488 3.687zm18.819-32h29.051c-.09.167-.17.34-.24.518L430.518 96H401.52l7.643-21zm77.693 28.315L497.163 75h24.051c-.09.167-.17.34-.24.518l-21.461 58.961c-.707 1.939.295 3.521 2.238 3.521h4.965c1.941 0 4.09-1.576 4.797-3.521l21.461-58.961c.154-.427.219-.831.215-1.208.227-.219.396-.483.514-.775l.021-.067c.295-.81-.123-1.466-.932-1.466h-2.031l-.024-.002h-4.971l-.02.002h-37.031c-.645 0-1.34.42-1.746.999h-.082l-.166.457a.088.088 0 0 0-.006.01l-.02.067-.002.009-10.836 29.771c-.707 1.939-.244 3.686 1.691 3.686h4.422c1.95-.001 4.179-1.743 4.886-3.686z"/>
</g>
</symbol><symbol id="application-pixabay" viewBox="0.999 0 253.957 49.154" xmlns:xlink="http://www.w3.org/1999/xlink">
<g transform="translate(-156.15726,-367.21451)">
	<path fill="#333333" d="M364.89,383.153c-1.379-0.976-2.381-1.966-2.381-3.188h-7.674c0,2.198-1.003,3.188-2.239,3.188h-2.05
		v22.313h39.847v-22.313h-25.646H364.89z M362.508,389.528h-7.181v-3.188h7.97v2.565L362.508,389.528z M375.995,401.939
		c-4.546,0-8.246-3.652-8.246-8.141c0-4.488,3.7-7.951,8.246-7.951c4.547,0,8.245,3.463,8.245,7.951
		C384.241,398.287,380.542,401.939,375.995,401.939z M380.427,393.798c0,2.412-1.988,4.377-4.432,4.377s-4.432-1.965-4.432-4.377
		s1.988-4.375,4.432-4.375S380.427,391.386,380.427,393.798L380.427,393.798z M411.113,380.118l-9.919,25.29l-7.612-3.054v-4.311
		l5.286,2.164l6.98-17.793l-26.156-10.001l-2.425,7.552h-4.365l4.464-12.751L411.113,380.118L411.113,380.118z"/>
	<g transform="matrix(4.129044,0,0,4.129044,-488.6229,-1536.6294)">
		<path fill="#333333" d="M159.664,463.826c1.591-0.037,3.085,1.258,3.253,2.845c0.201,1.395-0.619,2.844-1.905,3.409
			c-0.779,0.387-1.659,0.268-2.497,0.288h-0.819v2.623H156.4c0.003-2.024-0.005-4.047,0.004-6.071
			c0.042-1.507,1.277-2.858,2.767-3.058C159.334,463.837,159.499,463.825,159.664,463.826L159.664,463.826z M159.664,469.071
			c0.935,0.023,1.812-0.706,1.952-1.633c0.186-0.933-0.409-1.935-1.318-2.214c-0.879-0.312-1.935,0.099-2.364,0.928
			c-0.333,0.567-0.215,1.237-0.237,1.861v1.058C158.352,469.071,159.008,469.071,159.664,469.071L159.664,469.071z"/>
		<path fill="#333333" d="M163.544,463.794h1.282v6.542h-1.282V463.794z"/>
		<path fill="#333333" d="M168.679,467.925h0.047l1.822,2.429h1.589l-2.476-3.364l2.196-3.177h-1.589l-1.542,2.243h-0.047
			l-1.542-2.243h-1.589l2.196,3.177l-2.476,3.364h1.589L168.679,467.925z"/>
		<path fill="#333333" d="M175.039,463.794c1.299-0.026,2.544,0.825,3.024,2.026c0.251,0.558,0.247,1.176,0.239,1.774v2.742
			c-1.157-0.004-2.314,0.008-3.472-0.006c-1.33-0.065-2.546-1.035-2.927-2.308c-0.349-1.107-0.059-2.392,0.763-3.218
			C173.281,464.169,174.153,463.786,175.039,463.794L175.039,463.794z M177.007,469.039c-0.006-0.728,0.012-1.456-0.01-2.182
			c-0.076-0.975-0.98-1.791-1.957-1.766c-0.93-0.023-1.807,0.699-1.952,1.62c-0.17,0.883,0.337,1.846,1.18,2.176
			c0.519,0.226,1.093,0.133,1.642,0.153C176.275,469.039,176.641,469.039,177.007,469.039L177.007,469.039z"/>
		<path fill="#333333" d="M182.206,463.826c1.535-0.038,2.971,1.17,3.215,2.683c0.277,1.433-0.532,2.982-1.867,3.572
			c-1.304,0.616-2.982,0.219-3.879-0.909c-0.556-0.655-0.795-1.526-0.748-2.375v-5.594h1.297v2.623
			C180.884,463.826,181.545,463.825,182.206,463.826L182.206,463.826z M182.206,469.071c0.985,0.026,1.885-0.801,1.957-1.781
			c0.123-0.973-0.599-1.953-1.562-2.13c-0.533-0.073-1.075-0.024-1.611-0.038h-0.766c0.008,0.739-0.018,1.48,0.015,2.218
			C180.342,468.316,181.225,469.09,182.206,469.071z"/>
		<path fill="#333333" d="M189.233,463.794c1.298-0.026,2.544,0.825,3.024,2.026c0.251,0.558,0.247,1.176,0.239,1.774v2.742
			c-1.157-0.004-2.314,0.008-3.471-0.006c-1.33-0.065-2.547-1.035-2.927-2.308c-0.349-1.107-0.059-2.392,0.763-3.218
			C187.474,464.169,188.347,463.786,189.233,463.794L189.233,463.794z M191.2,469.039c-0.006-0.728,0.012-1.456-0.01-2.182
			c-0.077-0.975-0.98-1.791-1.957-1.766c-0.93-0.023-1.807,0.699-1.952,1.62c-0.171,0.883,0.337,1.846,1.18,2.176
			c0.519,0.226,1.093,0.133,1.642,0.153C190.468,469.039,190.834,469.039,191.2,469.039L191.2,469.039z"/>
		<path fill="#333333" d="M199.633,463.81c-0.003,2.019,0.005,4.038-0.004,6.056c-0.047,1.589-1.412,3.016-3.006,3.1
			c-0.303,0.016-0.606,0.006-0.91,0.009v-1.296c0.553-0.003,1.145,0.053,1.635-0.26c0.612-0.343,1.001-1.036,0.987-1.736
			c-1.149,0.927-2.931,0.879-4.049-0.078c-0.814-0.657-1.259-1.715-1.197-2.756v-3.038h1.297c0.006,1.155-0.012,2.311,0.009,3.465
			c0.071,0.951,0.918,1.755,1.871,1.778c0.965,0.075,1.895-0.676,2.039-1.63c0.058-0.571,0.017-1.148,0.029-1.723v-1.89
			C198.768,463.81,199.2,463.81,199.633,463.81L199.633,463.81z"/>
	</g>
</g>
</symbol><symbol id="application-flickr" viewBox="0 0 165.809 50.217" xmlns:xlink="http://www.w3.org/1999/xlink">
<g id="g2403-ae19b320-2808-4ecd-93c4-de1b4fa663f7" transform="matrix(1.0986567,0,0,1.0986567,0,-7.6819571)">
	<g id="g2405-3c625cab-f9ea-4a45-a4c5-f88be88f4288">
		<path id="path2407-eb4ff447-69f4-42a6-9d10-4801472826bf" fill="#0063DB" d="M6.455,28.446H0.412v-7.441h6.215v-1.889C6.627,9.963,10.789,6.774,19,6.774
			c2.223,0,3.934,0.354,5.244,0.591l-0.628,7.323c-0.854-0.296-1.71-0.473-3.249-0.473c-2.623,0-3.649,1.89-3.649,4.902v1.889h7.297
			v7.441h-7.297v23.326H6.455V28.446z"/>
		<rect id="rect2409-46ae103d-3e91-4e4b-ad4d-7004a7ff4d73" x="29.374" y="7.482" fill="#0063DB" width="10.263" height="44.289"/>
		<rect id="rect2411-1a95a5ee-3f7a-4635-ab86-2d1506841365" x="48.418" y="8.191" fill="#0063DB" width="10.262" height="7.795"/>
		<rect id="rect2413-80dbb43e-9f1a-4be1-a7a3-5846d9d50e24" x="48.418" y="21.005" fill="#0063DB" width="10.262" height="30.765"/>
		<path id="path2415-b0184a6d-c489-4a27-b984-c98d4d185cd8" fill="#0063DB" d="M89.525,29.804c-1.882-1.181-3.763-1.712-6.215-1.712c-4.446,0-7.867,3.188-7.867,8.503
			c0,4.902,3.991,8.09,8.438,8.09c2.34,0,4.675-0.532,6.387-1.476l0.228,7.914c-2.565,0.884-5.644,1.357-8.382,1.357
			c-9.808,0-17.275-5.907-17.275-16.063c0-10.216,7.467-16.121,17.275-16.121c3.081,0,5.817,0.532,8.154,1.712L89.525,29.804z"/>
		<polygon id="polygon2417-1c0d8031-8f3d-4be1-bbc6-747333c4e662" fill="#0063DB" points="94.771,7.482 105.035,7.482 105.035,33.938 105.149,33.938 113.701,21.005 
			124.932,21.005 114.613,35.119 125.787,51.772 113.358,51.772 105.149,36.535 105.035,36.535 105.035,51.772 94.771,51.772 		"/>
		<path id="path2419-17e47ded-8294-4051-afe0-e9539244f07d" fill="#FF0084" d="M150.817,29.509c-1.141-0.354-2.282-0.354-3.478-0.354c-4.787,0-7.47,3.601-7.47,9.626
			v12.992h-10.262V21.005h9.35v5.669h0.116c1.766-3.898,4.331-6.378,8.778-6.378c1.196,0,2.452,0.177,3.478,0.354L150.817,29.509z"
			/>
	</g>
</g>
</symbol><symbol id="application-heart" viewBox="0 0 50 50" xmlns:xlink="http://www.w3.org/1999/xlink">
<path d="M25.005,7.723C19.42,2.135,10.368,1.031,4.781,6.618c-5.585,5.585-5.585,14.643,0,20.23v-0.01l20.221,20.223l0,0
	l20.223-20.223c5.582-5.582,5.582-14.638,0-20.22C39.645,1.031,30.589,2.135,25.005,7.723z M43.206,24.816L25.005,43.018
	L8.826,26.838l-2.025-2.022c-4.458-4.457-4.46-11.718,0-16.177c4.461-4.459,11.721-3.357,16.179,1.103l2.025,2.023l2.022-2.023
	c4.464-4.462,11.72-5.562,16.179-1.105C47.663,13.096,47.667,20.354,43.206,24.816z"/>
</symbol></svg>